G04 #@! TF.GenerationSoftware,KiCad,Pcbnew,(5.1.5-0-10_14)*
G04 #@! TF.CreationDate,2020-06-06T08:29:19+02:00*
G04 #@! TF.ProjectId,ps2zx,7073327a-782e-46b6-9963-61645f706362,rev?*
G04 #@! TF.SameCoordinates,Original*
G04 #@! TF.FileFunction,Legend,Top*
G04 #@! TF.FilePolarity,Positive*
%FSLAX46Y46*%
G04 Gerber Fmt 4.6, Leading zero omitted, Abs format (unit mm)*
G04 Created by KiCad (PCBNEW (5.1.5-0-10_14)) date 2020-06-06 08:29:19*
%MOMM*%
%LPD*%
G04 APERTURE LIST*
%ADD10C,0.125000*%
%ADD11C,0.150000*%
%ADD12C,0.120000*%
G04 APERTURE END LIST*
D10*
X137831880Y-95210095D02*
X138831880Y-95043428D01*
X137831880Y-94876761D01*
X138784261Y-94519619D02*
X138831880Y-94567238D01*
X138831880Y-94662476D01*
X138784261Y-94710095D01*
X138689023Y-94733904D01*
X138308071Y-94733904D01*
X138212833Y-94710095D01*
X138165214Y-94662476D01*
X138165214Y-94567238D01*
X138212833Y-94519619D01*
X138308071Y-94495809D01*
X138403309Y-94495809D01*
X138498547Y-94733904D01*
X138831880Y-94281523D02*
X138165214Y-94281523D01*
X138355690Y-94281523D02*
X138260452Y-94257714D01*
X138212833Y-94233904D01*
X138165214Y-94186285D01*
X138165214Y-94138666D01*
X138784261Y-93995809D02*
X138831880Y-93948190D01*
X138831880Y-93852952D01*
X138784261Y-93805333D01*
X138689023Y-93781523D01*
X138641404Y-93781523D01*
X138546166Y-93805333D01*
X138498547Y-93852952D01*
X138498547Y-93924380D01*
X138450928Y-93972000D01*
X138355690Y-93995809D01*
X138308071Y-93995809D01*
X138212833Y-93972000D01*
X138165214Y-93924380D01*
X138165214Y-93852952D01*
X138212833Y-93805333D01*
X138831880Y-93567238D02*
X138165214Y-93567238D01*
X137831880Y-93567238D02*
X137879500Y-93591047D01*
X137927119Y-93567238D01*
X137879500Y-93543428D01*
X137831880Y-93567238D01*
X137927119Y-93567238D01*
X138831880Y-93257714D02*
X138784261Y-93305333D01*
X138736642Y-93329142D01*
X138641404Y-93352952D01*
X138355690Y-93352952D01*
X138260452Y-93329142D01*
X138212833Y-93305333D01*
X138165214Y-93257714D01*
X138165214Y-93186285D01*
X138212833Y-93138666D01*
X138260452Y-93114857D01*
X138355690Y-93091047D01*
X138641404Y-93091047D01*
X138736642Y-93114857D01*
X138784261Y-93138666D01*
X138831880Y-93186285D01*
X138831880Y-93257714D01*
X138165214Y-92876761D02*
X138831880Y-92876761D01*
X138260452Y-92876761D02*
X138212833Y-92852952D01*
X138165214Y-92805333D01*
X138165214Y-92733904D01*
X138212833Y-92686285D01*
X138308071Y-92662476D01*
X138831880Y-92662476D01*
X137831880Y-92091047D02*
X137831880Y-91781523D01*
X138212833Y-91948190D01*
X138212833Y-91876761D01*
X138260452Y-91829142D01*
X138308071Y-91805333D01*
X138403309Y-91781523D01*
X138641404Y-91781523D01*
X138736642Y-91805333D01*
X138784261Y-91829142D01*
X138831880Y-91876761D01*
X138831880Y-92019619D01*
X138784261Y-92067238D01*
X138736642Y-92091047D01*
X139790214Y-99162476D02*
X140599738Y-99162476D01*
X140694976Y-99186285D01*
X140742595Y-99210095D01*
X140790214Y-99257714D01*
X140790214Y-99329142D01*
X140742595Y-99376761D01*
X140409261Y-99162476D02*
X140456880Y-99210095D01*
X140456880Y-99305333D01*
X140409261Y-99352952D01*
X140361642Y-99376761D01*
X140266404Y-99400571D01*
X139980690Y-99400571D01*
X139885452Y-99376761D01*
X139837833Y-99352952D01*
X139790214Y-99305333D01*
X139790214Y-99210095D01*
X139837833Y-99162476D01*
X140456880Y-98924380D02*
X139790214Y-98924380D01*
X139456880Y-98924380D02*
X139504500Y-98948190D01*
X139552119Y-98924380D01*
X139504500Y-98900571D01*
X139456880Y-98924380D01*
X139552119Y-98924380D01*
X139790214Y-98757714D02*
X139790214Y-98567238D01*
X139456880Y-98686285D02*
X140314023Y-98686285D01*
X140409261Y-98662476D01*
X140456880Y-98614857D01*
X140456880Y-98567238D01*
X140456880Y-98400571D02*
X139456880Y-98400571D01*
X140456880Y-98186285D02*
X139933071Y-98186285D01*
X139837833Y-98210095D01*
X139790214Y-98257714D01*
X139790214Y-98329142D01*
X139837833Y-98376761D01*
X139885452Y-98400571D01*
X139790214Y-97733904D02*
X140456880Y-97733904D01*
X139790214Y-97948190D02*
X140314023Y-97948190D01*
X140409261Y-97924380D01*
X140456880Y-97876761D01*
X140456880Y-97805333D01*
X140409261Y-97757714D01*
X140361642Y-97733904D01*
X140456880Y-97495809D02*
X139456880Y-97495809D01*
X139837833Y-97495809D02*
X139790214Y-97448190D01*
X139790214Y-97352952D01*
X139837833Y-97305333D01*
X139885452Y-97281523D01*
X139980690Y-97257714D01*
X140266404Y-97257714D01*
X140361642Y-97281523D01*
X140409261Y-97305333D01*
X140456880Y-97352952D01*
X140456880Y-97448190D01*
X140409261Y-97495809D01*
X140361642Y-97043428D02*
X140409261Y-97019619D01*
X140456880Y-97043428D01*
X140409261Y-97067238D01*
X140361642Y-97043428D01*
X140456880Y-97043428D01*
X140409261Y-96591047D02*
X140456880Y-96638666D01*
X140456880Y-96733904D01*
X140409261Y-96781523D01*
X140361642Y-96805333D01*
X140266404Y-96829142D01*
X139980690Y-96829142D01*
X139885452Y-96805333D01*
X139837833Y-96781523D01*
X139790214Y-96733904D01*
X139790214Y-96638666D01*
X139837833Y-96591047D01*
X140456880Y-96305333D02*
X140409261Y-96352952D01*
X140361642Y-96376761D01*
X140266404Y-96400571D01*
X139980690Y-96400571D01*
X139885452Y-96376761D01*
X139837833Y-96352952D01*
X139790214Y-96305333D01*
X139790214Y-96233904D01*
X139837833Y-96186285D01*
X139885452Y-96162476D01*
X139980690Y-96138666D01*
X140266404Y-96138666D01*
X140361642Y-96162476D01*
X140409261Y-96186285D01*
X140456880Y-96233904D01*
X140456880Y-96305333D01*
X140456880Y-95924380D02*
X139790214Y-95924380D01*
X139885452Y-95924380D02*
X139837833Y-95900571D01*
X139790214Y-95852952D01*
X139790214Y-95781523D01*
X139837833Y-95733904D01*
X139933071Y-95710095D01*
X140456880Y-95710095D01*
X139933071Y-95710095D02*
X139837833Y-95686285D01*
X139790214Y-95638666D01*
X139790214Y-95567238D01*
X139837833Y-95519619D01*
X139933071Y-95495809D01*
X140456880Y-95495809D01*
X139409261Y-94900571D02*
X140694976Y-95329142D01*
X140456880Y-94733904D02*
X139456880Y-94733904D01*
X140456880Y-94519619D02*
X139933071Y-94519619D01*
X139837833Y-94543428D01*
X139790214Y-94591047D01*
X139790214Y-94662476D01*
X139837833Y-94710095D01*
X139885452Y-94733904D01*
X140456880Y-94067238D02*
X139933071Y-94067238D01*
X139837833Y-94091047D01*
X139790214Y-94138666D01*
X139790214Y-94233904D01*
X139837833Y-94281523D01*
X140409261Y-94067238D02*
X140456880Y-94114857D01*
X140456880Y-94233904D01*
X140409261Y-94281523D01*
X140314023Y-94305333D01*
X140218785Y-94305333D01*
X140123547Y-94281523D01*
X140075928Y-94233904D01*
X140075928Y-94114857D01*
X140028309Y-94067238D01*
X139790214Y-93829142D02*
X140456880Y-93829142D01*
X139885452Y-93829142D02*
X139837833Y-93805333D01*
X139790214Y-93757714D01*
X139790214Y-93686285D01*
X139837833Y-93638666D01*
X139933071Y-93614857D01*
X140456880Y-93614857D01*
X140409261Y-93400571D02*
X140456880Y-93352952D01*
X140456880Y-93257714D01*
X140409261Y-93210095D01*
X140314023Y-93186285D01*
X140266404Y-93186285D01*
X140171166Y-93210095D01*
X140123547Y-93257714D01*
X140123547Y-93329142D01*
X140075928Y-93376761D01*
X139980690Y-93400571D01*
X139933071Y-93400571D01*
X139837833Y-93376761D01*
X139790214Y-93329142D01*
X139790214Y-93257714D01*
X139837833Y-93210095D01*
X140456880Y-92972000D02*
X139456880Y-92972000D01*
X140456880Y-92757714D02*
X139933071Y-92757714D01*
X139837833Y-92781523D01*
X139790214Y-92829142D01*
X139790214Y-92900571D01*
X139837833Y-92948190D01*
X139885452Y-92972000D01*
X139790214Y-92305333D02*
X140456880Y-92305333D01*
X139790214Y-92519619D02*
X140314023Y-92519619D01*
X140409261Y-92495809D01*
X140456880Y-92448190D01*
X140456880Y-92376761D01*
X140409261Y-92329142D01*
X140361642Y-92305333D01*
X140409261Y-91876761D02*
X140456880Y-91924380D01*
X140456880Y-92019619D01*
X140409261Y-92067238D01*
X140314023Y-92091047D01*
X139933071Y-92091047D01*
X139837833Y-92067238D01*
X139790214Y-92019619D01*
X139790214Y-91924380D01*
X139837833Y-91876761D01*
X139933071Y-91852952D01*
X140028309Y-91852952D01*
X140123547Y-92091047D01*
X140456880Y-91638666D02*
X139456880Y-91638666D01*
X139837833Y-91638666D02*
X139790214Y-91591047D01*
X139790214Y-91495809D01*
X139837833Y-91448190D01*
X139885452Y-91424380D01*
X139980690Y-91400571D01*
X140266404Y-91400571D01*
X140361642Y-91424380D01*
X140409261Y-91448190D01*
X140456880Y-91495809D01*
X140456880Y-91591047D01*
X140409261Y-91638666D01*
X139790214Y-91186285D02*
X140456880Y-91186285D01*
X139885452Y-91186285D02*
X139837833Y-91162476D01*
X139790214Y-91114857D01*
X139790214Y-91043428D01*
X139837833Y-90995809D01*
X139933071Y-90972000D01*
X140456880Y-90972000D01*
X140409261Y-90543428D02*
X140456880Y-90591047D01*
X140456880Y-90686285D01*
X140409261Y-90733904D01*
X140314023Y-90757714D01*
X139933071Y-90757714D01*
X139837833Y-90733904D01*
X139790214Y-90686285D01*
X139790214Y-90591047D01*
X139837833Y-90543428D01*
X139933071Y-90519619D01*
X140028309Y-90519619D01*
X140123547Y-90757714D01*
X140456880Y-90305333D02*
X139790214Y-90305333D01*
X139980690Y-90305333D02*
X139885452Y-90281523D01*
X139837833Y-90257714D01*
X139790214Y-90210095D01*
X139790214Y-90162476D01*
X139409261Y-89638666D02*
X140694976Y-90067238D01*
X139790214Y-89472000D02*
X140790214Y-89472000D01*
X139837833Y-89472000D02*
X139790214Y-89424380D01*
X139790214Y-89329142D01*
X139837833Y-89281523D01*
X139885452Y-89257714D01*
X139980690Y-89233904D01*
X140266404Y-89233904D01*
X140361642Y-89257714D01*
X140409261Y-89281523D01*
X140456880Y-89329142D01*
X140456880Y-89424380D01*
X140409261Y-89472000D01*
X140409261Y-89043428D02*
X140456880Y-88995809D01*
X140456880Y-88900571D01*
X140409261Y-88852952D01*
X140314023Y-88829142D01*
X140266404Y-88829142D01*
X140171166Y-88852952D01*
X140123547Y-88900571D01*
X140123547Y-88972000D01*
X140075928Y-89019619D01*
X139980690Y-89043428D01*
X139933071Y-89043428D01*
X139837833Y-89019619D01*
X139790214Y-88972000D01*
X139790214Y-88900571D01*
X139837833Y-88852952D01*
X139552119Y-88638666D02*
X139504500Y-88614857D01*
X139456880Y-88567238D01*
X139456880Y-88448190D01*
X139504500Y-88400571D01*
X139552119Y-88376761D01*
X139647357Y-88352952D01*
X139742595Y-88352952D01*
X139885452Y-88376761D01*
X140456880Y-88662476D01*
X140456880Y-88352952D01*
X139790214Y-88186285D02*
X139790214Y-87924380D01*
X140456880Y-88186285D01*
X140456880Y-87924380D01*
X140456880Y-87781523D02*
X139790214Y-87519619D01*
X139790214Y-87781523D02*
X140456880Y-87519619D01*
D11*
X141084966Y-117267980D02*
X141084966Y-116267980D01*
X141389728Y-116267980D01*
X141465919Y-116315600D01*
X141504014Y-116363219D01*
X141542109Y-116458457D01*
X141542109Y-116601314D01*
X141504014Y-116696552D01*
X141465919Y-116744171D01*
X141389728Y-116791790D01*
X141084966Y-116791790D01*
X141846871Y-117220361D02*
X141961157Y-117267980D01*
X142151633Y-117267980D01*
X142227823Y-117220361D01*
X142265919Y-117172742D01*
X142304014Y-117077504D01*
X142304014Y-116982266D01*
X142265919Y-116887028D01*
X142227823Y-116839409D01*
X142151633Y-116791790D01*
X141999252Y-116744171D01*
X141923061Y-116696552D01*
X141884966Y-116648933D01*
X141846871Y-116553695D01*
X141846871Y-116458457D01*
X141884966Y-116363219D01*
X141923061Y-116315600D01*
X141999252Y-116267980D01*
X142189728Y-116267980D01*
X142304014Y-116315600D01*
X143218300Y-116220361D02*
X142532585Y-117506076D01*
X143446871Y-116363219D02*
X143484966Y-116315600D01*
X143561157Y-116267980D01*
X143751633Y-116267980D01*
X143827823Y-116315600D01*
X143865919Y-116363219D01*
X143904014Y-116458457D01*
X143904014Y-116553695D01*
X143865919Y-116696552D01*
X143408776Y-117267980D01*
X143904014Y-117267980D01*
X144856395Y-117267980D02*
X144856395Y-116267980D01*
X145313538Y-117267980D02*
X144970680Y-116696552D01*
X145313538Y-116267980D02*
X144856395Y-116839409D01*
X145961157Y-117220361D02*
X145884966Y-117267980D01*
X145732585Y-117267980D01*
X145656395Y-117220361D01*
X145618300Y-117125123D01*
X145618300Y-116744171D01*
X145656395Y-116648933D01*
X145732585Y-116601314D01*
X145884966Y-116601314D01*
X145961157Y-116648933D01*
X145999252Y-116744171D01*
X145999252Y-116839409D01*
X145618300Y-116934647D01*
X146265919Y-116601314D02*
X146456395Y-117267980D01*
X146646871Y-116601314D02*
X146456395Y-117267980D01*
X146380204Y-117506076D01*
X146342109Y-117553695D01*
X146265919Y-117601314D01*
X146951633Y-117267980D02*
X146951633Y-116267980D01*
X146951633Y-116648933D02*
X147027823Y-116601314D01*
X147180204Y-116601314D01*
X147256395Y-116648933D01*
X147294490Y-116696552D01*
X147332585Y-116791790D01*
X147332585Y-117077504D01*
X147294490Y-117172742D01*
X147256395Y-117220361D01*
X147180204Y-117267980D01*
X147027823Y-117267980D01*
X146951633Y-117220361D01*
X147789728Y-117267980D02*
X147713538Y-117220361D01*
X147675442Y-117172742D01*
X147637347Y-117077504D01*
X147637347Y-116791790D01*
X147675442Y-116696552D01*
X147713538Y-116648933D01*
X147789728Y-116601314D01*
X147904014Y-116601314D01*
X147980204Y-116648933D01*
X148018300Y-116696552D01*
X148056395Y-116791790D01*
X148056395Y-117077504D01*
X148018300Y-117172742D01*
X147980204Y-117220361D01*
X147904014Y-117267980D01*
X147789728Y-117267980D01*
X148742109Y-117267980D02*
X148742109Y-116744171D01*
X148704014Y-116648933D01*
X148627823Y-116601314D01*
X148475442Y-116601314D01*
X148399252Y-116648933D01*
X148742109Y-117220361D02*
X148665919Y-117267980D01*
X148475442Y-117267980D01*
X148399252Y-117220361D01*
X148361157Y-117125123D01*
X148361157Y-117029885D01*
X148399252Y-116934647D01*
X148475442Y-116887028D01*
X148665919Y-116887028D01*
X148742109Y-116839409D01*
X149123061Y-117267980D02*
X149123061Y-116601314D01*
X149123061Y-116791790D02*
X149161157Y-116696552D01*
X149199252Y-116648933D01*
X149275442Y-116601314D01*
X149351633Y-116601314D01*
X149961157Y-117267980D02*
X149961157Y-116267980D01*
X149961157Y-117220361D02*
X149884966Y-117267980D01*
X149732585Y-117267980D01*
X149656395Y-117220361D01*
X149618300Y-117172742D01*
X149580204Y-117077504D01*
X149580204Y-116791790D01*
X149618300Y-116696552D01*
X149656395Y-116648933D01*
X149732585Y-116601314D01*
X149884966Y-116601314D01*
X149961157Y-116648933D01*
X150837347Y-116601314D02*
X151142109Y-116601314D01*
X150951633Y-116267980D02*
X150951633Y-117125123D01*
X150989728Y-117220361D01*
X151065919Y-117267980D01*
X151142109Y-117267980D01*
X151523061Y-117267980D02*
X151446871Y-117220361D01*
X151408776Y-117172742D01*
X151370680Y-117077504D01*
X151370680Y-116791790D01*
X151408776Y-116696552D01*
X151446871Y-116648933D01*
X151523061Y-116601314D01*
X151637347Y-116601314D01*
X151713538Y-116648933D01*
X151751633Y-116696552D01*
X151789728Y-116791790D01*
X151789728Y-117077504D01*
X151751633Y-117172742D01*
X151713538Y-117220361D01*
X151637347Y-117267980D01*
X151523061Y-117267980D01*
X139180204Y-117917980D02*
X139180204Y-118632266D01*
X139142109Y-118775123D01*
X139065919Y-118870361D01*
X138951633Y-118917980D01*
X138875442Y-118917980D01*
X139904014Y-118251314D02*
X139904014Y-118917980D01*
X139561157Y-118251314D02*
X139561157Y-118775123D01*
X139599252Y-118870361D01*
X139675442Y-118917980D01*
X139789728Y-118917980D01*
X139865919Y-118870361D01*
X139904014Y-118822742D01*
X140284966Y-118251314D02*
X140284966Y-119251314D01*
X140284966Y-118298933D02*
X140361157Y-118251314D01*
X140513538Y-118251314D01*
X140589728Y-118298933D01*
X140627823Y-118346552D01*
X140665919Y-118441790D01*
X140665919Y-118727504D01*
X140627823Y-118822742D01*
X140589728Y-118870361D01*
X140513538Y-118917980D01*
X140361157Y-118917980D01*
X140284966Y-118870361D01*
X141008776Y-118917980D02*
X141008776Y-118251314D01*
X141008776Y-117917980D02*
X140970680Y-117965600D01*
X141008776Y-118013219D01*
X141046871Y-117965600D01*
X141008776Y-117917980D01*
X141008776Y-118013219D01*
X141275442Y-118251314D02*
X141580204Y-118251314D01*
X141389728Y-117917980D02*
X141389728Y-118775123D01*
X141427823Y-118870361D01*
X141504014Y-118917980D01*
X141580204Y-118917980D01*
X142151633Y-118870361D02*
X142075442Y-118917980D01*
X141923061Y-118917980D01*
X141846871Y-118870361D01*
X141808776Y-118775123D01*
X141808776Y-118394171D01*
X141846871Y-118298933D01*
X141923061Y-118251314D01*
X142075442Y-118251314D01*
X142151633Y-118298933D01*
X142189728Y-118394171D01*
X142189728Y-118489409D01*
X141808776Y-118584647D01*
X142532585Y-118917980D02*
X142532585Y-118251314D01*
X142532585Y-118441790D02*
X142570680Y-118346552D01*
X142608776Y-118298933D01*
X142684966Y-118251314D01*
X142761157Y-118251314D01*
X143599252Y-118632266D02*
X143980204Y-118632266D01*
X143523061Y-118917980D02*
X143789728Y-117917980D01*
X144056395Y-118917980D01*
X144665919Y-118870361D02*
X144589728Y-118917980D01*
X144437347Y-118917980D01*
X144361157Y-118870361D01*
X144323061Y-118822742D01*
X144284966Y-118727504D01*
X144284966Y-118441790D01*
X144323061Y-118346552D01*
X144361157Y-118298933D01*
X144437347Y-118251314D01*
X144589728Y-118251314D01*
X144665919Y-118298933D01*
X145313538Y-118870361D02*
X145237347Y-118917980D01*
X145084966Y-118917980D01*
X145008776Y-118870361D01*
X144970680Y-118775123D01*
X144970680Y-118394171D01*
X145008776Y-118298933D01*
X145084966Y-118251314D01*
X145237347Y-118251314D01*
X145313538Y-118298933D01*
X145351633Y-118394171D01*
X145351633Y-118489409D01*
X144970680Y-118584647D01*
X146265919Y-117870361D02*
X145580204Y-119156076D01*
X146456395Y-117917980D02*
X146989728Y-117917980D01*
X146456395Y-118917980D01*
X146989728Y-118917980D01*
X147218300Y-117917980D02*
X147751633Y-118917980D01*
X147751633Y-117917980D02*
X147218300Y-118917980D01*
X148627823Y-118870361D02*
X148742109Y-118917980D01*
X148932585Y-118917980D01*
X149008776Y-118870361D01*
X149046871Y-118822742D01*
X149084966Y-118727504D01*
X149084966Y-118632266D01*
X149046871Y-118537028D01*
X149008776Y-118489409D01*
X148932585Y-118441790D01*
X148780204Y-118394171D01*
X148704014Y-118346552D01*
X148665919Y-118298933D01*
X148627823Y-118203695D01*
X148627823Y-118108457D01*
X148665919Y-118013219D01*
X148704014Y-117965600D01*
X148780204Y-117917980D01*
X148970680Y-117917980D01*
X149084966Y-117965600D01*
X149427823Y-118251314D02*
X149427823Y-119251314D01*
X149427823Y-118298933D02*
X149504014Y-118251314D01*
X149656395Y-118251314D01*
X149732585Y-118298933D01*
X149770680Y-118346552D01*
X149808776Y-118441790D01*
X149808776Y-118727504D01*
X149770680Y-118822742D01*
X149732585Y-118870361D01*
X149656395Y-118917980D01*
X149504014Y-118917980D01*
X149427823Y-118870361D01*
X150456395Y-118870361D02*
X150380204Y-118917980D01*
X150227823Y-118917980D01*
X150151633Y-118870361D01*
X150113538Y-118775123D01*
X150113538Y-118394171D01*
X150151633Y-118298933D01*
X150227823Y-118251314D01*
X150380204Y-118251314D01*
X150456395Y-118298933D01*
X150494490Y-118394171D01*
X150494490Y-118489409D01*
X150113538Y-118584647D01*
X151180204Y-118870361D02*
X151104014Y-118917980D01*
X150951633Y-118917980D01*
X150875442Y-118870361D01*
X150837347Y-118822742D01*
X150799252Y-118727504D01*
X150799252Y-118441790D01*
X150837347Y-118346552D01*
X150875442Y-118298933D01*
X150951633Y-118251314D01*
X151104014Y-118251314D01*
X151180204Y-118298933D01*
X151408776Y-118251314D02*
X151713538Y-118251314D01*
X151523061Y-117917980D02*
X151523061Y-118775123D01*
X151561157Y-118870361D01*
X151637347Y-118917980D01*
X151713538Y-118917980D01*
X151980204Y-118917980D02*
X151980204Y-118251314D01*
X151980204Y-118441790D02*
X152018300Y-118346552D01*
X152056395Y-118298933D01*
X152132585Y-118251314D01*
X152208776Y-118251314D01*
X152818300Y-118251314D02*
X152818300Y-118917980D01*
X152475442Y-118251314D02*
X152475442Y-118775123D01*
X152513538Y-118870361D01*
X152589728Y-118917980D01*
X152704014Y-118917980D01*
X152780204Y-118870361D01*
X152818300Y-118822742D01*
X153199252Y-118917980D02*
X153199252Y-118251314D01*
X153199252Y-118346552D02*
X153237347Y-118298933D01*
X153313538Y-118251314D01*
X153427823Y-118251314D01*
X153504014Y-118298933D01*
X153542109Y-118394171D01*
X153542109Y-118917980D01*
X153542109Y-118394171D02*
X153580204Y-118298933D01*
X153656395Y-118251314D01*
X153770680Y-118251314D01*
X153846871Y-118298933D01*
X153884966Y-118394171D01*
X153884966Y-118917980D01*
X144227823Y-120472742D02*
X144189728Y-120520361D01*
X144075442Y-120567980D01*
X143999252Y-120567980D01*
X143884966Y-120520361D01*
X143808776Y-120425123D01*
X143770680Y-120329885D01*
X143732585Y-120139409D01*
X143732585Y-119996552D01*
X143770680Y-119806076D01*
X143808776Y-119710838D01*
X143884966Y-119615600D01*
X143999252Y-119567980D01*
X144075442Y-119567980D01*
X144189728Y-119615600D01*
X144227823Y-119663219D01*
X144684966Y-120567980D02*
X144608776Y-120520361D01*
X144570680Y-120472742D01*
X144532585Y-120377504D01*
X144532585Y-120091790D01*
X144570680Y-119996552D01*
X144608776Y-119948933D01*
X144684966Y-119901314D01*
X144799252Y-119901314D01*
X144875442Y-119948933D01*
X144913538Y-119996552D01*
X144951633Y-120091790D01*
X144951633Y-120377504D01*
X144913538Y-120472742D01*
X144875442Y-120520361D01*
X144799252Y-120567980D01*
X144684966Y-120567980D01*
X145294490Y-119901314D02*
X145294490Y-120567980D01*
X145294490Y-119996552D02*
X145332585Y-119948933D01*
X145408776Y-119901314D01*
X145523061Y-119901314D01*
X145599252Y-119948933D01*
X145637347Y-120044171D01*
X145637347Y-120567980D01*
X145942109Y-119901314D02*
X146132585Y-120567980D01*
X146323061Y-119901314D01*
X146932585Y-120520361D02*
X146856395Y-120567980D01*
X146704014Y-120567980D01*
X146627823Y-120520361D01*
X146589728Y-120425123D01*
X146589728Y-120044171D01*
X146627823Y-119948933D01*
X146704014Y-119901314D01*
X146856395Y-119901314D01*
X146932585Y-119948933D01*
X146970680Y-120044171D01*
X146970680Y-120139409D01*
X146589728Y-120234647D01*
X147313538Y-120567980D02*
X147313538Y-119901314D01*
X147313538Y-120091790D02*
X147351633Y-119996552D01*
X147389728Y-119948933D01*
X147465919Y-119901314D01*
X147542109Y-119901314D01*
X147694490Y-119901314D02*
X147999252Y-119901314D01*
X147808776Y-119567980D02*
X147808776Y-120425123D01*
X147846871Y-120520361D01*
X147923061Y-120567980D01*
X147999252Y-120567980D01*
X148570680Y-120520361D02*
X148494490Y-120567980D01*
X148342109Y-120567980D01*
X148265919Y-120520361D01*
X148227823Y-120425123D01*
X148227823Y-120044171D01*
X148265919Y-119948933D01*
X148342109Y-119901314D01*
X148494490Y-119901314D01*
X148570680Y-119948933D01*
X148608776Y-120044171D01*
X148608776Y-120139409D01*
X148227823Y-120234647D01*
X148951633Y-120567980D02*
X148951633Y-119901314D01*
X148951633Y-120091790D02*
X148989728Y-119996552D01*
X149027823Y-119948933D01*
X149104014Y-119901314D01*
X149180204Y-119901314D01*
X159546447Y-91273380D02*
X160117876Y-91273380D01*
X159832161Y-92273380D02*
X159832161Y-91273380D01*
X160594066Y-92273380D02*
X160498828Y-92225761D01*
X160451209Y-92178142D01*
X160403590Y-92082904D01*
X160403590Y-91797190D01*
X160451209Y-91701952D01*
X160498828Y-91654333D01*
X160594066Y-91606714D01*
X160736923Y-91606714D01*
X160832161Y-91654333D01*
X160879780Y-91701952D01*
X160927400Y-91797190D01*
X160927400Y-92082904D01*
X160879780Y-92178142D01*
X160832161Y-92225761D01*
X160736923Y-92273380D01*
X160594066Y-92273380D01*
X162070257Y-91987666D02*
X162546447Y-91987666D01*
X161975019Y-92273380D02*
X162308352Y-91273380D01*
X162641685Y-92273380D01*
X163403590Y-92225761D02*
X163308352Y-92273380D01*
X163117876Y-92273380D01*
X163022638Y-92225761D01*
X162975019Y-92178142D01*
X162927400Y-92082904D01*
X162927400Y-91797190D01*
X162975019Y-91701952D01*
X163022638Y-91654333D01*
X163117876Y-91606714D01*
X163308352Y-91606714D01*
X163403590Y-91654333D01*
X164213114Y-92225761D02*
X164117876Y-92273380D01*
X163927400Y-92273380D01*
X163832161Y-92225761D01*
X163784542Y-92130523D01*
X163784542Y-91749571D01*
X163832161Y-91654333D01*
X163927400Y-91606714D01*
X164117876Y-91606714D01*
X164213114Y-91654333D01*
X164260733Y-91749571D01*
X164260733Y-91844809D01*
X163784542Y-91940047D01*
X165403590Y-91225761D02*
X164546447Y-92511476D01*
X165641685Y-91273380D02*
X166308352Y-91273380D01*
X165641685Y-92273380D01*
X166308352Y-92273380D01*
X166594066Y-91273380D02*
X167260733Y-92273380D01*
X167260733Y-91273380D02*
X166594066Y-92273380D01*
X168403590Y-92273380D02*
X168403590Y-91273380D01*
X168736923Y-91987666D01*
X169070257Y-91273380D01*
X169070257Y-92273380D01*
X169689304Y-92273380D02*
X169594066Y-92225761D01*
X169546447Y-92178142D01*
X169498828Y-92082904D01*
X169498828Y-91797190D01*
X169546447Y-91701952D01*
X169594066Y-91654333D01*
X169689304Y-91606714D01*
X169832161Y-91606714D01*
X169927400Y-91654333D01*
X169975019Y-91701952D01*
X170022638Y-91797190D01*
X170022638Y-92082904D01*
X169975019Y-92178142D01*
X169927400Y-92225761D01*
X169832161Y-92273380D01*
X169689304Y-92273380D01*
X170308352Y-91606714D02*
X170689304Y-91606714D01*
X170451209Y-91273380D02*
X170451209Y-92130523D01*
X170498828Y-92225761D01*
X170594066Y-92273380D01*
X170689304Y-92273380D01*
X171022638Y-92273380D02*
X171022638Y-91273380D01*
X171451209Y-92273380D02*
X171451209Y-91749571D01*
X171403590Y-91654333D01*
X171308352Y-91606714D01*
X171165495Y-91606714D01*
X171070257Y-91654333D01*
X171022638Y-91701952D01*
X172308352Y-92225761D02*
X172213114Y-92273380D01*
X172022638Y-92273380D01*
X171927400Y-92225761D01*
X171879780Y-92130523D01*
X171879780Y-91749571D01*
X171927400Y-91654333D01*
X172022638Y-91606714D01*
X172213114Y-91606714D01*
X172308352Y-91654333D01*
X172355971Y-91749571D01*
X172355971Y-91844809D01*
X171879780Y-91940047D01*
X172784542Y-92273380D02*
X172784542Y-91606714D01*
X172784542Y-91797190D02*
X172832161Y-91701952D01*
X172879780Y-91654333D01*
X172975019Y-91606714D01*
X173070257Y-91606714D01*
X173403590Y-92273380D02*
X173403590Y-91273380D01*
X173403590Y-91654333D02*
X173498828Y-91606714D01*
X173689304Y-91606714D01*
X173784542Y-91654333D01*
X173832161Y-91701952D01*
X173879780Y-91797190D01*
X173879780Y-92082904D01*
X173832161Y-92178142D01*
X173784542Y-92225761D01*
X173689304Y-92273380D01*
X173498828Y-92273380D01*
X173403590Y-92225761D01*
X174451209Y-92273380D02*
X174355971Y-92225761D01*
X174308352Y-92178142D01*
X174260733Y-92082904D01*
X174260733Y-91797190D01*
X174308352Y-91701952D01*
X174355971Y-91654333D01*
X174451209Y-91606714D01*
X174594066Y-91606714D01*
X174689304Y-91654333D01*
X174736923Y-91701952D01*
X174784542Y-91797190D01*
X174784542Y-92082904D01*
X174736923Y-92178142D01*
X174689304Y-92225761D01*
X174594066Y-92273380D01*
X174451209Y-92273380D01*
X175641685Y-92273380D02*
X175641685Y-91749571D01*
X175594066Y-91654333D01*
X175498828Y-91606714D01*
X175308352Y-91606714D01*
X175213114Y-91654333D01*
X175641685Y-92225761D02*
X175546447Y-92273380D01*
X175308352Y-92273380D01*
X175213114Y-92225761D01*
X175165495Y-92130523D01*
X175165495Y-92035285D01*
X175213114Y-91940047D01*
X175308352Y-91892428D01*
X175546447Y-91892428D01*
X175641685Y-91844809D01*
X176117876Y-92273380D02*
X176117876Y-91606714D01*
X176117876Y-91797190D02*
X176165495Y-91701952D01*
X176213114Y-91654333D01*
X176308352Y-91606714D01*
X176403590Y-91606714D01*
X177165495Y-92273380D02*
X177165495Y-91273380D01*
X177165495Y-92225761D02*
X177070257Y-92273380D01*
X176879780Y-92273380D01*
X176784542Y-92225761D01*
X176736923Y-92178142D01*
X176689304Y-92082904D01*
X176689304Y-91797190D01*
X176736923Y-91701952D01*
X176784542Y-91654333D01*
X176879780Y-91606714D01*
X177070257Y-91606714D01*
X177165495Y-91654333D01*
X143027495Y-111234600D02*
X142932257Y-111186980D01*
X142789400Y-111186980D01*
X142646542Y-111234600D01*
X142551304Y-111329838D01*
X142503685Y-111425076D01*
X142456066Y-111615552D01*
X142456066Y-111758409D01*
X142503685Y-111948885D01*
X142551304Y-112044123D01*
X142646542Y-112139361D01*
X142789400Y-112186980D01*
X142884638Y-112186980D01*
X143027495Y-112139361D01*
X143075114Y-112091742D01*
X143075114Y-111758409D01*
X142884638Y-111758409D01*
X143503685Y-112186980D02*
X143503685Y-111186980D01*
X144075114Y-112186980D01*
X144075114Y-111186980D01*
X144551304Y-112186980D02*
X144551304Y-111186980D01*
X144789400Y-111186980D01*
X144932257Y-111234600D01*
X145027495Y-111329838D01*
X145075114Y-111425076D01*
X145122733Y-111615552D01*
X145122733Y-111758409D01*
X145075114Y-111948885D01*
X145027495Y-112044123D01*
X144932257Y-112139361D01*
X144789400Y-112186980D01*
X144551304Y-112186980D01*
X142402085Y-109342228D02*
X143163990Y-109342228D01*
X142783038Y-109723180D02*
X142783038Y-108961276D01*
X144116371Y-108723180D02*
X143640180Y-108723180D01*
X143592561Y-109199371D01*
X143640180Y-109151752D01*
X143735419Y-109104133D01*
X143973514Y-109104133D01*
X144068752Y-109151752D01*
X144116371Y-109199371D01*
X144163990Y-109294609D01*
X144163990Y-109532704D01*
X144116371Y-109627942D01*
X144068752Y-109675561D01*
X143973514Y-109723180D01*
X143735419Y-109723180D01*
X143640180Y-109675561D01*
X143592561Y-109627942D01*
X144449704Y-108723180D02*
X144783038Y-109723180D01*
X145116371Y-108723180D01*
X142213295Y-105765000D02*
X143213295Y-105765000D01*
X143022819Y-107132380D02*
X142689485Y-106656190D01*
X142451390Y-107132380D02*
X142451390Y-106132380D01*
X142832342Y-106132380D01*
X142927580Y-106180000D01*
X142975200Y-106227619D01*
X143022819Y-106322857D01*
X143022819Y-106465714D01*
X142975200Y-106560952D01*
X142927580Y-106608571D01*
X142832342Y-106656190D01*
X142451390Y-106656190D01*
X143213295Y-105765000D02*
X144118057Y-105765000D01*
X143451390Y-106608571D02*
X143784723Y-106608571D01*
X143927580Y-107132380D02*
X143451390Y-107132380D01*
X143451390Y-106132380D01*
X143927580Y-106132380D01*
X144118057Y-105765000D02*
X145070438Y-105765000D01*
X144308533Y-107084761D02*
X144451390Y-107132380D01*
X144689485Y-107132380D01*
X144784723Y-107084761D01*
X144832342Y-107037142D01*
X144879961Y-106941904D01*
X144879961Y-106846666D01*
X144832342Y-106751428D01*
X144784723Y-106703809D01*
X144689485Y-106656190D01*
X144499009Y-106608571D01*
X144403771Y-106560952D01*
X144356152Y-106513333D01*
X144308533Y-106418095D01*
X144308533Y-106322857D01*
X144356152Y-106227619D01*
X144403771Y-106180000D01*
X144499009Y-106132380D01*
X144737104Y-106132380D01*
X144879961Y-106180000D01*
X145070438Y-105765000D02*
X145975200Y-105765000D01*
X145308533Y-106608571D02*
X145641866Y-106608571D01*
X145784723Y-107132380D02*
X145308533Y-107132380D01*
X145308533Y-106132380D01*
X145784723Y-106132380D01*
X145975200Y-105765000D02*
X146737104Y-105765000D01*
X146070438Y-106132380D02*
X146641866Y-106132380D01*
X146356152Y-107132380D02*
X146356152Y-106132380D01*
X142187847Y-103352000D02*
X143187847Y-103352000D01*
X142997371Y-104719380D02*
X142664038Y-104243190D01*
X142425942Y-104719380D02*
X142425942Y-103719380D01*
X142806895Y-103719380D01*
X142902133Y-103767000D01*
X142949752Y-103814619D01*
X142997371Y-103909857D01*
X142997371Y-104052714D01*
X142949752Y-104147952D01*
X142902133Y-104195571D01*
X142806895Y-104243190D01*
X142425942Y-104243190D01*
X143187847Y-103352000D02*
X144187847Y-103352000D01*
X143425942Y-104719380D02*
X143425942Y-103719380D01*
X143664038Y-103719380D01*
X143806895Y-103767000D01*
X143902133Y-103862238D01*
X143949752Y-103957476D01*
X143997371Y-104147952D01*
X143997371Y-104290809D01*
X143949752Y-104481285D01*
X143902133Y-104576523D01*
X143806895Y-104671761D01*
X143664038Y-104719380D01*
X143425942Y-104719380D01*
X144187847Y-103352000D02*
X145044990Y-103352000D01*
X144759276Y-104195571D02*
X144425942Y-104195571D01*
X144425942Y-104719380D02*
X144425942Y-103719380D01*
X144902133Y-103719380D01*
X145044990Y-103352000D02*
X145949752Y-103352000D01*
X145283085Y-104195571D02*
X145616419Y-104195571D01*
X145759276Y-104719380D02*
X145283085Y-104719380D01*
X145283085Y-103719380D01*
X145759276Y-103719380D01*
D12*
X151877000Y-94511000D02*
G75*
G03X146827000Y-94511000I-2525000J0D01*
G01*
X151877000Y-100761000D02*
G75*
G02X146827000Y-100761000I-2525000J0D01*
G01*
X151877000Y-100761000D02*
X151877000Y-94511000D01*
X146827000Y-100761000D02*
X146827000Y-94511000D01*
X153722000Y-105910748D02*
X153722000Y-106433252D01*
X155142000Y-105910748D02*
X155142000Y-106433252D01*
X148642000Y-105910748D02*
X148642000Y-106433252D01*
X150062000Y-105910748D02*
X150062000Y-106433252D01*
X138370000Y-102810000D02*
X139700000Y-102810000D01*
X138370000Y-104140000D02*
X138370000Y-102810000D01*
X138370000Y-105410000D02*
X141030000Y-105410000D01*
X141030000Y-105410000D02*
X141030000Y-113090000D01*
X138370000Y-105410000D02*
X138370000Y-113090000D01*
X138370000Y-113090000D02*
X141030000Y-113090000D01*
D11*
X167144000Y-98103800D02*
X167144000Y-96678800D01*
X167369000Y-105353800D02*
X167369000Y-105028800D01*
X160119000Y-105353800D02*
X160119000Y-105028800D01*
X160119000Y-98103800D02*
X160119000Y-98428800D01*
X167369000Y-98103800D02*
X167369000Y-98428800D01*
X160119000Y-98103800D02*
X160444000Y-98103800D01*
X160119000Y-105353800D02*
X160444000Y-105353800D01*
X167369000Y-105353800D02*
X167044000Y-105353800D01*
X167369000Y-98103800D02*
X167144000Y-98103800D01*
D12*
X173587100Y-96675900D02*
X174917100Y-96675900D01*
X173587100Y-98005900D02*
X173587100Y-96675900D01*
X176187100Y-96675900D02*
X178787100Y-96675900D01*
X176187100Y-99275900D02*
X176187100Y-96675900D01*
X173587100Y-99275900D02*
X176187100Y-99275900D01*
X178787100Y-96675900D02*
X178787100Y-109495900D01*
X173587100Y-99275900D02*
X173587100Y-109495900D01*
X173587100Y-109495900D02*
X178787100Y-109495900D01*
X184298200Y-114469300D02*
X190758200Y-114469300D01*
X184298200Y-109939300D02*
X184298200Y-112539300D01*
X184298200Y-108009300D02*
X190758200Y-108009300D01*
X190758200Y-109939300D02*
X190758200Y-112539300D01*
X184298200Y-108039300D02*
X184298200Y-108009300D01*
X184298200Y-114469300D02*
X184298200Y-114439300D01*
X190758200Y-114469300D02*
X190758200Y-114439300D01*
X190758200Y-108009300D02*
X190758200Y-108039300D01*
X184298200Y-104309300D02*
X190758200Y-104309300D01*
X184298200Y-99779300D02*
X184298200Y-102379300D01*
X184298200Y-97849300D02*
X190758200Y-97849300D01*
X190758200Y-99779300D02*
X190758200Y-102379300D01*
X184298200Y-97879300D02*
X184298200Y-97849300D01*
X184298200Y-104309300D02*
X184298200Y-104279300D01*
X190758200Y-104309300D02*
X190758200Y-104279300D01*
X190758200Y-97849300D02*
X190758200Y-97879300D01*
X163202252Y-107544800D02*
X162679748Y-107544800D01*
X163202252Y-108964800D02*
X162679748Y-108964800D01*
X156462000Y-125440000D02*
X172662000Y-125440000D01*
X156462000Y-112440000D02*
X172662000Y-112440000D01*
X156462000Y-112440000D02*
X156462000Y-125440000D01*
X172662000Y-112440000D02*
X172662000Y-125440000D01*
X145990000Y-90230000D02*
X145990000Y-88900000D01*
X147320000Y-90230000D02*
X145990000Y-90230000D01*
X148590000Y-90230000D02*
X148590000Y-87570000D01*
X148590000Y-87570000D02*
X166430000Y-87570000D01*
X148590000Y-90230000D02*
X166430000Y-90230000D01*
X166430000Y-90230000D02*
X166430000Y-87570000D01*
X171390000Y-90230000D02*
X171390000Y-88900000D01*
X172720000Y-90230000D02*
X171390000Y-90230000D01*
X173990000Y-90230000D02*
X173990000Y-87570000D01*
X173990000Y-87570000D02*
X184210000Y-87570000D01*
X173990000Y-90230000D02*
X184210000Y-90230000D01*
X184210000Y-90230000D02*
X184210000Y-87570000D01*
D11*
X145803190Y-98112190D02*
X146279380Y-98112190D01*
X145279380Y-98445523D02*
X145803190Y-98112190D01*
X145279380Y-97778857D01*
X146279380Y-96921714D02*
X146279380Y-97493142D01*
X146279380Y-97207428D02*
X145279380Y-97207428D01*
X145422238Y-97302666D01*
X145517476Y-97397904D01*
X145565095Y-97493142D01*
X153329380Y-99255047D02*
X153329380Y-99826476D01*
X153329380Y-99540761D02*
X152329380Y-99540761D01*
X152472238Y-99636000D01*
X152567476Y-99731238D01*
X152615095Y-99826476D01*
X152329380Y-98397904D02*
X152329380Y-98588380D01*
X152377000Y-98683619D01*
X152424619Y-98731238D01*
X152567476Y-98826476D01*
X152757952Y-98874095D01*
X153138904Y-98874095D01*
X153234142Y-98826476D01*
X153281761Y-98778857D01*
X153329380Y-98683619D01*
X153329380Y-98493142D01*
X153281761Y-98397904D01*
X153234142Y-98350285D01*
X153138904Y-98302666D01*
X152900809Y-98302666D01*
X152805571Y-98350285D01*
X152757952Y-98397904D01*
X152710333Y-98493142D01*
X152710333Y-98683619D01*
X152757952Y-98778857D01*
X152805571Y-98826476D01*
X152900809Y-98874095D01*
X153329380Y-97874095D02*
X152329380Y-97874095D01*
X153043666Y-97540761D01*
X152329380Y-97207428D01*
X153329380Y-97207428D01*
X153329380Y-96731238D02*
X152329380Y-96731238D01*
X153329380Y-96302666D02*
X152805571Y-96302666D01*
X152710333Y-96350285D01*
X152662714Y-96445523D01*
X152662714Y-96588380D01*
X152710333Y-96683619D01*
X152757952Y-96731238D01*
X152662714Y-95921714D02*
X152662714Y-95397904D01*
X153329380Y-95921714D01*
X153329380Y-95397904D01*
X156439142Y-106338666D02*
X156486761Y-106386285D01*
X156534380Y-106529142D01*
X156534380Y-106624380D01*
X156486761Y-106767238D01*
X156391523Y-106862476D01*
X156296285Y-106910095D01*
X156105809Y-106957714D01*
X155962952Y-106957714D01*
X155772476Y-106910095D01*
X155677238Y-106862476D01*
X155582000Y-106767238D01*
X155534380Y-106624380D01*
X155534380Y-106529142D01*
X155582000Y-106386285D01*
X155629619Y-106338666D01*
X155629619Y-105957714D02*
X155582000Y-105910095D01*
X155534380Y-105814857D01*
X155534380Y-105576761D01*
X155582000Y-105481523D01*
X155629619Y-105433904D01*
X155724857Y-105386285D01*
X155820095Y-105386285D01*
X155962952Y-105433904D01*
X156534380Y-106005333D01*
X156534380Y-105386285D01*
X151359142Y-106338666D02*
X151406761Y-106386285D01*
X151454380Y-106529142D01*
X151454380Y-106624380D01*
X151406761Y-106767238D01*
X151311523Y-106862476D01*
X151216285Y-106910095D01*
X151025809Y-106957714D01*
X150882952Y-106957714D01*
X150692476Y-106910095D01*
X150597238Y-106862476D01*
X150502000Y-106767238D01*
X150454380Y-106624380D01*
X150454380Y-106529142D01*
X150502000Y-106386285D01*
X150549619Y-106338666D01*
X150454380Y-106005333D02*
X150454380Y-105386285D01*
X150835333Y-105719619D01*
X150835333Y-105576761D01*
X150882952Y-105481523D01*
X150930571Y-105433904D01*
X151025809Y-105386285D01*
X151263904Y-105386285D01*
X151359142Y-105433904D01*
X151406761Y-105481523D01*
X151454380Y-105576761D01*
X151454380Y-105862476D01*
X151406761Y-105957714D01*
X151359142Y-106005333D01*
X139366666Y-101262380D02*
X139366666Y-101976666D01*
X139319047Y-102119523D01*
X139223809Y-102214761D01*
X139080952Y-102262380D01*
X138985714Y-102262380D01*
X140271428Y-101595714D02*
X140271428Y-102262380D01*
X140033333Y-101214761D02*
X139795238Y-101929047D01*
X140414285Y-101929047D01*
X169246380Y-102490704D02*
X170055904Y-102490704D01*
X170151142Y-102443085D01*
X170198761Y-102395466D01*
X170246380Y-102300228D01*
X170246380Y-102109752D01*
X170198761Y-102014514D01*
X170151142Y-101966895D01*
X170055904Y-101919276D01*
X169246380Y-101919276D01*
X170246380Y-100919276D02*
X170246380Y-101490704D01*
X170246380Y-101204990D02*
X169246380Y-101204990D01*
X169389238Y-101300228D01*
X169484476Y-101395466D01*
X169532095Y-101490704D01*
X157860666Y-107347847D02*
X157860666Y-106871657D01*
X158146380Y-107443085D02*
X157146380Y-107109752D01*
X158146380Y-106776419D01*
X157146380Y-106585942D02*
X157146380Y-106014514D01*
X158146380Y-106300228D02*
X157146380Y-106300228D01*
X158146380Y-105681180D02*
X157479714Y-105681180D01*
X157574952Y-105681180D02*
X157527333Y-105633561D01*
X157479714Y-105538323D01*
X157479714Y-105395466D01*
X157527333Y-105300228D01*
X157622571Y-105252609D01*
X158146380Y-105252609D01*
X157622571Y-105252609D02*
X157527333Y-105204990D01*
X157479714Y-105109752D01*
X157479714Y-104966895D01*
X157527333Y-104871657D01*
X157622571Y-104824038D01*
X158146380Y-104824038D01*
X158098761Y-103966895D02*
X158146380Y-104062133D01*
X158146380Y-104252609D01*
X158098761Y-104347847D01*
X158003523Y-104395466D01*
X157622571Y-104395466D01*
X157527333Y-104347847D01*
X157479714Y-104252609D01*
X157479714Y-104062133D01*
X157527333Y-103966895D01*
X157622571Y-103919276D01*
X157717809Y-103919276D01*
X157813047Y-104395466D01*
X157479714Y-103062133D02*
X158289238Y-103062133D01*
X158384476Y-103109752D01*
X158432095Y-103157371D01*
X158479714Y-103252609D01*
X158479714Y-103395466D01*
X158432095Y-103490704D01*
X158098761Y-103062133D02*
X158146380Y-103157371D01*
X158146380Y-103347847D01*
X158098761Y-103443085D01*
X158051142Y-103490704D01*
X157955904Y-103538323D01*
X157670190Y-103538323D01*
X157574952Y-103490704D01*
X157527333Y-103443085D01*
X157479714Y-103347847D01*
X157479714Y-103157371D01*
X157527333Y-103062133D01*
X158146380Y-102157371D02*
X157622571Y-102157371D01*
X157527333Y-102204990D01*
X157479714Y-102300228D01*
X157479714Y-102490704D01*
X157527333Y-102585942D01*
X158098761Y-102157371D02*
X158146380Y-102252609D01*
X158146380Y-102490704D01*
X158098761Y-102585942D01*
X158003523Y-102633561D01*
X157908285Y-102633561D01*
X157813047Y-102585942D01*
X157765428Y-102490704D01*
X157765428Y-102252609D01*
X157717809Y-102157371D01*
X157574952Y-101538323D02*
X157527333Y-101633561D01*
X157479714Y-101681180D01*
X157384476Y-101728800D01*
X157336857Y-101728800D01*
X157241619Y-101681180D01*
X157194000Y-101633561D01*
X157146380Y-101538323D01*
X157146380Y-101347847D01*
X157194000Y-101252609D01*
X157241619Y-101204990D01*
X157336857Y-101157371D01*
X157384476Y-101157371D01*
X157479714Y-101204990D01*
X157527333Y-101252609D01*
X157574952Y-101347847D01*
X157574952Y-101538323D01*
X157622571Y-101633561D01*
X157670190Y-101681180D01*
X157765428Y-101728800D01*
X157955904Y-101728800D01*
X158051142Y-101681180D01*
X158098761Y-101633561D01*
X158146380Y-101538323D01*
X158146380Y-101347847D01*
X158098761Y-101252609D01*
X158051142Y-101204990D01*
X157955904Y-101157371D01*
X157765428Y-101157371D01*
X157670190Y-101204990D01*
X157622571Y-101252609D01*
X157574952Y-101347847D01*
X157765428Y-100728800D02*
X157765428Y-99966895D01*
X158146380Y-98966895D02*
X158146380Y-99538323D01*
X158146380Y-99252609D02*
X157146380Y-99252609D01*
X157289238Y-99347847D01*
X157384476Y-99443085D01*
X157432095Y-99538323D01*
X157146380Y-98109752D02*
X157146380Y-98300228D01*
X157194000Y-98395466D01*
X157241619Y-98443085D01*
X157384476Y-98538323D01*
X157574952Y-98585942D01*
X157955904Y-98585942D01*
X158051142Y-98538323D01*
X158098761Y-98490704D01*
X158146380Y-98395466D01*
X158146380Y-98204990D01*
X158098761Y-98109752D01*
X158051142Y-98062133D01*
X157955904Y-98014514D01*
X157717809Y-98014514D01*
X157622571Y-98062133D01*
X157574952Y-98109752D01*
X157527333Y-98204990D01*
X157527333Y-98395466D01*
X157574952Y-98490704D01*
X157622571Y-98538323D01*
X157717809Y-98585942D01*
X157860666Y-97633561D02*
X157860666Y-97157371D01*
X158146380Y-97728800D02*
X157146380Y-97395466D01*
X158146380Y-97062133D01*
X157146380Y-96728800D02*
X157955904Y-96728800D01*
X158051142Y-96681180D01*
X158098761Y-96633561D01*
X158146380Y-96538323D01*
X158146380Y-96347847D01*
X158098761Y-96252609D01*
X158051142Y-96204990D01*
X157955904Y-96157371D01*
X157146380Y-96157371D01*
X175853766Y-95128280D02*
X175853766Y-95842566D01*
X175806147Y-95985423D01*
X175710909Y-96080661D01*
X175568052Y-96128280D01*
X175472814Y-96128280D01*
X176806147Y-95128280D02*
X176329957Y-95128280D01*
X176282338Y-95604471D01*
X176329957Y-95556852D01*
X176425195Y-95509233D01*
X176663290Y-95509233D01*
X176758528Y-95556852D01*
X176806147Y-95604471D01*
X176853766Y-95699709D01*
X176853766Y-95937804D01*
X176806147Y-96033042D01*
X176758528Y-96080661D01*
X176663290Y-96128280D01*
X176425195Y-96128280D01*
X176329957Y-96080661D01*
X176282338Y-96033042D01*
X186194866Y-107594061D02*
X186337723Y-107641680D01*
X186575819Y-107641680D01*
X186671057Y-107594061D01*
X186718676Y-107546442D01*
X186766295Y-107451204D01*
X186766295Y-107355966D01*
X186718676Y-107260728D01*
X186671057Y-107213109D01*
X186575819Y-107165490D01*
X186385342Y-107117871D01*
X186290104Y-107070252D01*
X186242485Y-107022633D01*
X186194866Y-106927395D01*
X186194866Y-106832157D01*
X186242485Y-106736919D01*
X186290104Y-106689300D01*
X186385342Y-106641680D01*
X186623438Y-106641680D01*
X186766295Y-106689300D01*
X187099628Y-106641680D02*
X187337723Y-107641680D01*
X187528200Y-106927395D01*
X187718676Y-107641680D01*
X187956771Y-106641680D01*
X188861533Y-107641680D02*
X188290104Y-107641680D01*
X188575819Y-107641680D02*
X188575819Y-106641680D01*
X188480580Y-106784538D01*
X188385342Y-106879776D01*
X188290104Y-106927395D01*
X186194866Y-97434061D02*
X186337723Y-97481680D01*
X186575819Y-97481680D01*
X186671057Y-97434061D01*
X186718676Y-97386442D01*
X186766295Y-97291204D01*
X186766295Y-97195966D01*
X186718676Y-97100728D01*
X186671057Y-97053109D01*
X186575819Y-97005490D01*
X186385342Y-96957871D01*
X186290104Y-96910252D01*
X186242485Y-96862633D01*
X186194866Y-96767395D01*
X186194866Y-96672157D01*
X186242485Y-96576919D01*
X186290104Y-96529300D01*
X186385342Y-96481680D01*
X186623438Y-96481680D01*
X186766295Y-96529300D01*
X187099628Y-96481680D02*
X187337723Y-97481680D01*
X187528200Y-96767395D01*
X187718676Y-97481680D01*
X187956771Y-96481680D01*
X188290104Y-96576919D02*
X188337723Y-96529300D01*
X188432961Y-96481680D01*
X188671057Y-96481680D01*
X188766295Y-96529300D01*
X188813914Y-96576919D01*
X188861533Y-96672157D01*
X188861533Y-96767395D01*
X188813914Y-96910252D01*
X188242485Y-97481680D01*
X188861533Y-97481680D01*
X162774333Y-110261942D02*
X162726714Y-110309561D01*
X162583857Y-110357180D01*
X162488619Y-110357180D01*
X162345761Y-110309561D01*
X162250523Y-110214323D01*
X162202904Y-110119085D01*
X162155285Y-109928609D01*
X162155285Y-109785752D01*
X162202904Y-109595276D01*
X162250523Y-109500038D01*
X162345761Y-109404800D01*
X162488619Y-109357180D01*
X162583857Y-109357180D01*
X162726714Y-109404800D01*
X162774333Y-109452419D01*
X163726714Y-110357180D02*
X163155285Y-110357180D01*
X163441000Y-110357180D02*
X163441000Y-109357180D01*
X163345761Y-109500038D01*
X163250523Y-109595276D01*
X163155285Y-109642895D01*
X165939980Y-108732580D02*
X165368552Y-108732580D01*
X165654266Y-108732580D02*
X165654266Y-107732580D01*
X165559028Y-107875438D01*
X165463790Y-107970676D01*
X165368552Y-108018295D01*
X166559028Y-107732580D02*
X166654266Y-107732580D01*
X166749504Y-107780200D01*
X166797123Y-107827819D01*
X166844742Y-107923057D01*
X166892361Y-108113533D01*
X166892361Y-108351628D01*
X166844742Y-108542104D01*
X166797123Y-108637342D01*
X166749504Y-108684961D01*
X166654266Y-108732580D01*
X166559028Y-108732580D01*
X166463790Y-108684961D01*
X166416171Y-108637342D01*
X166368552Y-108542104D01*
X166320933Y-108351628D01*
X166320933Y-108113533D01*
X166368552Y-107923057D01*
X166416171Y-107827819D01*
X166463790Y-107780200D01*
X166559028Y-107732580D01*
X167511409Y-107732580D02*
X167606647Y-107732580D01*
X167701885Y-107780200D01*
X167749504Y-107827819D01*
X167797123Y-107923057D01*
X167844742Y-108113533D01*
X167844742Y-108351628D01*
X167797123Y-108542104D01*
X167749504Y-108637342D01*
X167701885Y-108684961D01*
X167606647Y-108732580D01*
X167511409Y-108732580D01*
X167416171Y-108684961D01*
X167368552Y-108637342D01*
X167320933Y-108542104D01*
X167273314Y-108351628D01*
X167273314Y-108113533D01*
X167320933Y-107923057D01*
X167368552Y-107827819D01*
X167416171Y-107780200D01*
X167511409Y-107732580D01*
X168273314Y-108065914D02*
X168273314Y-108732580D01*
X168273314Y-108161152D02*
X168320933Y-108113533D01*
X168416171Y-108065914D01*
X168559028Y-108065914D01*
X168654266Y-108113533D01*
X168701885Y-108208771D01*
X168701885Y-108732580D01*
X169511409Y-108208771D02*
X169178076Y-108208771D01*
X169178076Y-108732580D02*
X169178076Y-107732580D01*
X169654266Y-107732580D01*
X164258666Y-109942380D02*
X164258666Y-110656666D01*
X164211047Y-110799523D01*
X164115809Y-110894761D01*
X163972952Y-110942380D01*
X163877714Y-110942380D01*
X165258666Y-110942380D02*
X164687238Y-110942380D01*
X164972952Y-110942380D02*
X164972952Y-109942380D01*
X164877714Y-110085238D01*
X164782476Y-110180476D01*
X164687238Y-110228095D01*
X176616123Y-123426480D02*
X176616123Y-122426480D01*
X177187552Y-123426480D02*
X176758980Y-122855052D01*
X177187552Y-122426480D02*
X176616123Y-122997909D01*
X177997076Y-123378861D02*
X177901838Y-123426480D01*
X177711361Y-123426480D01*
X177616123Y-123378861D01*
X177568504Y-123283623D01*
X177568504Y-122902671D01*
X177616123Y-122807433D01*
X177711361Y-122759814D01*
X177901838Y-122759814D01*
X177997076Y-122807433D01*
X178044695Y-122902671D01*
X178044695Y-122997909D01*
X177568504Y-123093147D01*
X178378028Y-122759814D02*
X178616123Y-123426480D01*
X178854219Y-122759814D02*
X178616123Y-123426480D01*
X178520885Y-123664576D01*
X178473266Y-123712195D01*
X178378028Y-123759814D01*
X179235171Y-123426480D02*
X179235171Y-122426480D01*
X179235171Y-122807433D02*
X179330409Y-122759814D01*
X179520885Y-122759814D01*
X179616123Y-122807433D01*
X179663742Y-122855052D01*
X179711361Y-122950290D01*
X179711361Y-123236004D01*
X179663742Y-123331242D01*
X179616123Y-123378861D01*
X179520885Y-123426480D01*
X179330409Y-123426480D01*
X179235171Y-123378861D01*
X180282790Y-123426480D02*
X180187552Y-123378861D01*
X180139933Y-123331242D01*
X180092314Y-123236004D01*
X180092314Y-122950290D01*
X180139933Y-122855052D01*
X180187552Y-122807433D01*
X180282790Y-122759814D01*
X180425647Y-122759814D01*
X180520885Y-122807433D01*
X180568504Y-122855052D01*
X180616123Y-122950290D01*
X180616123Y-123236004D01*
X180568504Y-123331242D01*
X180520885Y-123378861D01*
X180425647Y-123426480D01*
X180282790Y-123426480D01*
X181473266Y-123426480D02*
X181473266Y-122902671D01*
X181425647Y-122807433D01*
X181330409Y-122759814D01*
X181139933Y-122759814D01*
X181044695Y-122807433D01*
X181473266Y-123378861D02*
X181378028Y-123426480D01*
X181139933Y-123426480D01*
X181044695Y-123378861D01*
X180997076Y-123283623D01*
X180997076Y-123188385D01*
X181044695Y-123093147D01*
X181139933Y-123045528D01*
X181378028Y-123045528D01*
X181473266Y-122997909D01*
X181949457Y-123426480D02*
X181949457Y-122759814D01*
X181949457Y-122950290D02*
X181997076Y-122855052D01*
X182044695Y-122807433D01*
X182139933Y-122759814D01*
X182235171Y-122759814D01*
X182997076Y-123426480D02*
X182997076Y-122426480D01*
X182997076Y-123378861D02*
X182901838Y-123426480D01*
X182711361Y-123426480D01*
X182616123Y-123378861D01*
X182568504Y-123331242D01*
X182520885Y-123236004D01*
X182520885Y-122950290D01*
X182568504Y-122855052D01*
X182616123Y-122807433D01*
X182711361Y-122759814D01*
X182901838Y-122759814D01*
X182997076Y-122807433D01*
X144442380Y-89233333D02*
X145156666Y-89233333D01*
X145299523Y-89280952D01*
X145394761Y-89376190D01*
X145442380Y-89519047D01*
X145442380Y-89614285D01*
X144442380Y-88852380D02*
X144442380Y-88233333D01*
X144823333Y-88566666D01*
X144823333Y-88423809D01*
X144870952Y-88328571D01*
X144918571Y-88280952D01*
X145013809Y-88233333D01*
X145251904Y-88233333D01*
X145347142Y-88280952D01*
X145394761Y-88328571D01*
X145442380Y-88423809D01*
X145442380Y-88709523D01*
X145394761Y-88804761D01*
X145347142Y-88852380D01*
X169842380Y-89233333D02*
X170556666Y-89233333D01*
X170699523Y-89280952D01*
X170794761Y-89376190D01*
X170842380Y-89519047D01*
X170842380Y-89614285D01*
X169937619Y-88804761D02*
X169890000Y-88757142D01*
X169842380Y-88661904D01*
X169842380Y-88423809D01*
X169890000Y-88328571D01*
X169937619Y-88280952D01*
X170032857Y-88233333D01*
X170128095Y-88233333D01*
X170270952Y-88280952D01*
X170842380Y-88852380D01*
X170842380Y-88233333D01*
M02*
