G04 #@! TF.GenerationSoftware,KiCad,Pcbnew,(5.1.5-0-10_14)*
G04 #@! TF.CreationDate,2020-06-21T19:14:36+02:00*
G04 #@! TF.ProjectId,ps2zx,7073327a-782e-46b6-9963-61645f706362,rev?*
G04 #@! TF.SameCoordinates,Original*
G04 #@! TF.FileFunction,Soldermask,Bot*
G04 #@! TF.FilePolarity,Negative*
%FSLAX46Y46*%
G04 Gerber Fmt 4.6, Leading zero omitted, Abs format (unit mm)*
G04 Created by KiCad (PCBNEW (5.1.5-0-10_14)) date 2020-06-21 19:14:36*
%MOMM*%
%LPD*%
G04 APERTURE LIST*
%ADD10C,0.100000*%
G04 APERTURE END LIST*
D10*
G36*
X190343549Y-120410116D02*
G01*
X190454734Y-120432232D01*
X190664203Y-120518997D01*
X190852720Y-120644960D01*
X191013040Y-120805280D01*
X191039009Y-120844146D01*
X191139004Y-120993799D01*
X191225768Y-121203267D01*
X191268023Y-121415694D01*
X191270000Y-121425636D01*
X191270000Y-121652364D01*
X191225768Y-121874734D01*
X191139003Y-122084203D01*
X191013040Y-122272720D01*
X190852720Y-122433040D01*
X190664203Y-122559003D01*
X190454734Y-122645768D01*
X190343549Y-122667884D01*
X190232365Y-122690000D01*
X190005635Y-122690000D01*
X189894451Y-122667884D01*
X189783266Y-122645768D01*
X189573797Y-122559003D01*
X189385280Y-122433040D01*
X189224960Y-122272720D01*
X189098997Y-122084203D01*
X189012232Y-121874734D01*
X188968000Y-121652364D01*
X188968000Y-121425636D01*
X188969978Y-121415694D01*
X189012232Y-121203267D01*
X189098996Y-120993799D01*
X189198991Y-120844146D01*
X189224960Y-120805280D01*
X189385280Y-120644960D01*
X189573797Y-120518997D01*
X189783266Y-120432232D01*
X189894451Y-120410116D01*
X190005635Y-120388000D01*
X190232365Y-120388000D01*
X190343549Y-120410116D01*
G37*
G36*
X140305549Y-120410116D02*
G01*
X140416734Y-120432232D01*
X140626203Y-120518997D01*
X140814720Y-120644960D01*
X140975040Y-120805280D01*
X141001009Y-120844146D01*
X141101004Y-120993799D01*
X141187768Y-121203267D01*
X141230023Y-121415694D01*
X141232000Y-121425636D01*
X141232000Y-121652364D01*
X141187768Y-121874734D01*
X141101003Y-122084203D01*
X140975040Y-122272720D01*
X140814720Y-122433040D01*
X140626203Y-122559003D01*
X140416734Y-122645768D01*
X140305549Y-122667884D01*
X140194365Y-122690000D01*
X139967635Y-122690000D01*
X139856451Y-122667884D01*
X139745266Y-122645768D01*
X139535797Y-122559003D01*
X139347280Y-122433040D01*
X139186960Y-122272720D01*
X139060997Y-122084203D01*
X138974232Y-121874734D01*
X138930000Y-121652364D01*
X138930000Y-121425636D01*
X138931978Y-121415694D01*
X138974232Y-121203267D01*
X139060996Y-120993799D01*
X139160991Y-120844146D01*
X139186960Y-120805280D01*
X139347280Y-120644960D01*
X139535797Y-120518997D01*
X139745266Y-120432232D01*
X139856451Y-120410116D01*
X139967635Y-120388000D01*
X140194365Y-120388000D01*
X140305549Y-120410116D01*
G37*
G36*
X173031097Y-119444069D02*
G01*
X173134032Y-119454207D01*
X173332146Y-119514305D01*
X173332149Y-119514306D01*
X173428975Y-119566061D01*
X173514729Y-119611897D01*
X173674765Y-119743235D01*
X173806103Y-119903271D01*
X173851939Y-119989025D01*
X173903694Y-120085851D01*
X173903695Y-120085854D01*
X173963793Y-120283968D01*
X173984085Y-120490000D01*
X173963793Y-120696032D01*
X173903695Y-120894146D01*
X173903694Y-120894149D01*
X173851939Y-120990975D01*
X173806103Y-121076729D01*
X173674765Y-121236765D01*
X173514729Y-121368103D01*
X173428975Y-121413939D01*
X173332149Y-121465694D01*
X173332146Y-121465695D01*
X173134032Y-121525793D01*
X173031097Y-121535931D01*
X172979631Y-121541000D01*
X170876369Y-121541000D01*
X170824903Y-121535931D01*
X170721968Y-121525793D01*
X170523854Y-121465695D01*
X170523851Y-121465694D01*
X170427025Y-121413939D01*
X170341271Y-121368103D01*
X170181235Y-121236765D01*
X170049897Y-121076729D01*
X170004061Y-120990975D01*
X169952306Y-120894149D01*
X169952305Y-120894146D01*
X169892207Y-120696032D01*
X169871915Y-120490000D01*
X169892207Y-120283968D01*
X169952305Y-120085854D01*
X169952306Y-120085851D01*
X170004061Y-119989025D01*
X170049897Y-119903271D01*
X170181235Y-119743235D01*
X170341271Y-119611897D01*
X170427025Y-119566061D01*
X170523851Y-119514306D01*
X170523854Y-119514305D01*
X170721968Y-119454207D01*
X170824903Y-119444069D01*
X170876369Y-119439000D01*
X172979631Y-119439000D01*
X173031097Y-119444069D01*
G37*
G36*
X178984031Y-117904207D02*
G01*
X179182145Y-117964305D01*
X179182148Y-117964306D01*
X179248030Y-117999521D01*
X179364729Y-118061897D01*
X179524765Y-118193235D01*
X179656103Y-118353271D01*
X179656104Y-118353273D01*
X179753694Y-118535851D01*
X179753694Y-118535852D01*
X179753695Y-118535854D01*
X179813793Y-118733968D01*
X179829000Y-118888370D01*
X179829000Y-120491630D01*
X179813793Y-120646032D01*
X179798626Y-120696030D01*
X179753694Y-120844149D01*
X179726970Y-120894146D01*
X179656103Y-121026729D01*
X179524765Y-121186765D01*
X179364729Y-121318103D01*
X179278975Y-121363939D01*
X179182149Y-121415694D01*
X179182146Y-121415695D01*
X178984032Y-121475793D01*
X178778000Y-121496085D01*
X178571969Y-121475793D01*
X178373855Y-121415695D01*
X178373852Y-121415694D01*
X178277026Y-121363939D01*
X178191272Y-121318103D01*
X178031236Y-121186765D01*
X177899898Y-121026729D01*
X177865904Y-120963130D01*
X177802305Y-120844146D01*
X177742207Y-120646033D01*
X177727000Y-120491631D01*
X177727000Y-118888370D01*
X177742207Y-118733971D01*
X177742207Y-118733969D01*
X177802305Y-118535855D01*
X177802306Y-118535852D01*
X177837521Y-118469970D01*
X177899897Y-118353271D01*
X178031235Y-118193235D01*
X178191271Y-118061897D01*
X178277025Y-118016061D01*
X178373851Y-117964306D01*
X178373854Y-117964305D01*
X178571968Y-117904207D01*
X178778000Y-117883915D01*
X178984031Y-117904207D01*
G37*
G36*
X165284031Y-117904207D02*
G01*
X165482145Y-117964305D01*
X165482148Y-117964306D01*
X165548030Y-117999521D01*
X165664729Y-118061897D01*
X165824765Y-118193235D01*
X165956103Y-118353271D01*
X165956104Y-118353273D01*
X166053694Y-118535851D01*
X166053694Y-118535852D01*
X166053695Y-118535854D01*
X166113793Y-118733968D01*
X166129000Y-118888370D01*
X166129000Y-120491630D01*
X166113793Y-120646032D01*
X166098626Y-120696030D01*
X166053694Y-120844149D01*
X166026970Y-120894146D01*
X165956103Y-121026729D01*
X165824765Y-121186765D01*
X165664729Y-121318103D01*
X165578975Y-121363939D01*
X165482149Y-121415694D01*
X165482146Y-121415695D01*
X165284032Y-121475793D01*
X165078000Y-121496085D01*
X164871969Y-121475793D01*
X164673855Y-121415695D01*
X164673852Y-121415694D01*
X164577026Y-121363939D01*
X164491272Y-121318103D01*
X164331236Y-121186765D01*
X164199898Y-121026729D01*
X164165904Y-120963130D01*
X164102305Y-120844146D01*
X164042207Y-120646033D01*
X164027000Y-120491631D01*
X164027000Y-118888370D01*
X164042207Y-118733971D01*
X164042207Y-118733969D01*
X164102305Y-118535855D01*
X164102306Y-118535852D01*
X164137521Y-118469970D01*
X164199897Y-118353271D01*
X164331235Y-118193235D01*
X164491271Y-118061897D01*
X164577025Y-118016061D01*
X164673851Y-117964306D01*
X164673854Y-117964305D01*
X164871968Y-117904207D01*
X165078000Y-117883915D01*
X165284031Y-117904207D01*
G37*
G36*
X174079000Y-117691000D02*
G01*
X172377000Y-117691000D01*
X172377000Y-115989000D01*
X174079000Y-115989000D01*
X174079000Y-117691000D01*
G37*
G36*
X168776228Y-116021703D02*
G01*
X168931100Y-116085853D01*
X169070481Y-116178985D01*
X169189015Y-116297519D01*
X169282147Y-116436900D01*
X169346297Y-116591772D01*
X169379000Y-116756184D01*
X169379000Y-116923816D01*
X169346297Y-117088228D01*
X169282147Y-117243100D01*
X169189015Y-117382481D01*
X169070481Y-117501015D01*
X168931100Y-117594147D01*
X168776228Y-117658297D01*
X168611816Y-117691000D01*
X168444184Y-117691000D01*
X168279772Y-117658297D01*
X168124900Y-117594147D01*
X167985519Y-117501015D01*
X167866985Y-117382481D01*
X167773853Y-117243100D01*
X167709703Y-117088228D01*
X167677000Y-116923816D01*
X167677000Y-116756184D01*
X167709703Y-116591772D01*
X167773853Y-116436900D01*
X167866985Y-116297519D01*
X167985519Y-116178985D01*
X168124900Y-116085853D01*
X168279772Y-116021703D01*
X168444184Y-115989000D01*
X168611816Y-115989000D01*
X168776228Y-116021703D01*
G37*
G36*
X175576228Y-116021703D02*
G01*
X175731100Y-116085853D01*
X175870481Y-116178985D01*
X175989015Y-116297519D01*
X176082147Y-116436900D01*
X176146297Y-116591772D01*
X176179000Y-116756184D01*
X176179000Y-116923816D01*
X176146297Y-117088228D01*
X176082147Y-117243100D01*
X175989015Y-117382481D01*
X175870481Y-117501015D01*
X175731100Y-117594147D01*
X175576228Y-117658297D01*
X175411816Y-117691000D01*
X175244184Y-117691000D01*
X175079772Y-117658297D01*
X174924900Y-117594147D01*
X174785519Y-117501015D01*
X174666985Y-117382481D01*
X174573853Y-117243100D01*
X174509703Y-117088228D01*
X174477000Y-116923816D01*
X174477000Y-116756184D01*
X174509703Y-116591772D01*
X174573853Y-116436900D01*
X174666985Y-116297519D01*
X174785519Y-116178985D01*
X174924900Y-116085853D01*
X175079772Y-116021703D01*
X175244184Y-115989000D01*
X175411816Y-115989000D01*
X175576228Y-116021703D01*
G37*
G36*
X170876228Y-116021703D02*
G01*
X171031100Y-116085853D01*
X171170481Y-116178985D01*
X171289015Y-116297519D01*
X171382147Y-116436900D01*
X171446297Y-116591772D01*
X171479000Y-116756184D01*
X171479000Y-116923816D01*
X171446297Y-117088228D01*
X171382147Y-117243100D01*
X171289015Y-117382481D01*
X171170481Y-117501015D01*
X171031100Y-117594147D01*
X170876228Y-117658297D01*
X170711816Y-117691000D01*
X170544184Y-117691000D01*
X170379772Y-117658297D01*
X170224900Y-117594147D01*
X170085519Y-117501015D01*
X169966985Y-117382481D01*
X169873853Y-117243100D01*
X169809703Y-117088228D01*
X169777000Y-116923816D01*
X169777000Y-116756184D01*
X169809703Y-116591772D01*
X169873853Y-116436900D01*
X169966985Y-116297519D01*
X170085519Y-116178985D01*
X170224900Y-116085853D01*
X170379772Y-116021703D01*
X170544184Y-115989000D01*
X170711816Y-115989000D01*
X170876228Y-116021703D01*
G37*
G36*
X154672512Y-113657927D02*
G01*
X154821812Y-113687624D01*
X154985784Y-113755544D01*
X155133354Y-113854147D01*
X155258853Y-113979646D01*
X155357456Y-114127216D01*
X155425376Y-114291188D01*
X155460000Y-114465259D01*
X155460000Y-114642741D01*
X155425376Y-114816812D01*
X155357456Y-114980784D01*
X155258853Y-115128354D01*
X155133354Y-115253853D01*
X154985784Y-115352456D01*
X154821812Y-115420376D01*
X154672512Y-115450073D01*
X154647742Y-115455000D01*
X154470258Y-115455000D01*
X154445488Y-115450073D01*
X154296188Y-115420376D01*
X154132216Y-115352456D01*
X153984646Y-115253853D01*
X153859147Y-115128354D01*
X153760544Y-114980784D01*
X153692624Y-114816812D01*
X153658000Y-114642741D01*
X153658000Y-114465259D01*
X153692624Y-114291188D01*
X153760544Y-114127216D01*
X153859147Y-113979646D01*
X153984646Y-113854147D01*
X154132216Y-113755544D01*
X154296188Y-113687624D01*
X154445488Y-113657927D01*
X154470258Y-113653000D01*
X154647742Y-113653000D01*
X154672512Y-113657927D01*
G37*
G36*
X150380000Y-115455000D02*
G01*
X148578000Y-115455000D01*
X148578000Y-113653000D01*
X150380000Y-113653000D01*
X150380000Y-115455000D01*
G37*
G36*
X159752512Y-113657927D02*
G01*
X159901812Y-113687624D01*
X160065784Y-113755544D01*
X160213354Y-113854147D01*
X160338853Y-113979646D01*
X160437456Y-114127216D01*
X160505376Y-114291188D01*
X160540000Y-114465259D01*
X160540000Y-114642741D01*
X160505376Y-114816812D01*
X160437456Y-114980784D01*
X160338853Y-115128354D01*
X160213354Y-115253853D01*
X160065784Y-115352456D01*
X159901812Y-115420376D01*
X159752512Y-115450073D01*
X159727742Y-115455000D01*
X159550258Y-115455000D01*
X159525488Y-115450073D01*
X159376188Y-115420376D01*
X159212216Y-115352456D01*
X159064646Y-115253853D01*
X158939147Y-115128354D01*
X158840544Y-114980784D01*
X158772624Y-114816812D01*
X158738000Y-114642741D01*
X158738000Y-114465259D01*
X158772624Y-114291188D01*
X158840544Y-114127216D01*
X158939147Y-113979646D01*
X159064646Y-113854147D01*
X159212216Y-113755544D01*
X159376188Y-113687624D01*
X159525488Y-113657927D01*
X159550258Y-113653000D01*
X159727742Y-113653000D01*
X159752512Y-113657927D01*
G37*
G36*
X157212512Y-113657927D02*
G01*
X157361812Y-113687624D01*
X157525784Y-113755544D01*
X157673354Y-113854147D01*
X157798853Y-113979646D01*
X157897456Y-114127216D01*
X157965376Y-114291188D01*
X158000000Y-114465259D01*
X158000000Y-114642741D01*
X157965376Y-114816812D01*
X157897456Y-114980784D01*
X157798853Y-115128354D01*
X157673354Y-115253853D01*
X157525784Y-115352456D01*
X157361812Y-115420376D01*
X157212512Y-115450073D01*
X157187742Y-115455000D01*
X157010258Y-115455000D01*
X156985488Y-115450073D01*
X156836188Y-115420376D01*
X156672216Y-115352456D01*
X156524646Y-115253853D01*
X156399147Y-115128354D01*
X156300544Y-114980784D01*
X156232624Y-114816812D01*
X156198000Y-114642741D01*
X156198000Y-114465259D01*
X156232624Y-114291188D01*
X156300544Y-114127216D01*
X156399147Y-113979646D01*
X156524646Y-113854147D01*
X156672216Y-113755544D01*
X156836188Y-113687624D01*
X156985488Y-113657927D01*
X157010258Y-113653000D01*
X157187742Y-113653000D01*
X157212512Y-113657927D01*
G37*
G36*
X152132512Y-113657927D02*
G01*
X152281812Y-113687624D01*
X152445784Y-113755544D01*
X152593354Y-113854147D01*
X152718853Y-113979646D01*
X152817456Y-114127216D01*
X152885376Y-114291188D01*
X152920000Y-114465259D01*
X152920000Y-114642741D01*
X152885376Y-114816812D01*
X152817456Y-114980784D01*
X152718853Y-115128354D01*
X152593354Y-115253853D01*
X152445784Y-115352456D01*
X152281812Y-115420376D01*
X152132512Y-115450073D01*
X152107742Y-115455000D01*
X151930258Y-115455000D01*
X151905488Y-115450073D01*
X151756188Y-115420376D01*
X151592216Y-115352456D01*
X151444646Y-115253853D01*
X151319147Y-115128354D01*
X151220544Y-114980784D01*
X151152624Y-114816812D01*
X151118000Y-114642741D01*
X151118000Y-114465259D01*
X151152624Y-114291188D01*
X151220544Y-114127216D01*
X151319147Y-113979646D01*
X151444646Y-113854147D01*
X151592216Y-113755544D01*
X151756188Y-113687624D01*
X151905488Y-113657927D01*
X151930258Y-113653000D01*
X152107742Y-113653000D01*
X152132512Y-113657927D01*
G37*
G36*
X139813512Y-113403927D02*
G01*
X139962812Y-113433624D01*
X140126784Y-113501544D01*
X140274354Y-113600147D01*
X140399853Y-113725646D01*
X140498456Y-113873216D01*
X140566376Y-114037188D01*
X140601000Y-114211259D01*
X140601000Y-114388741D01*
X140566376Y-114562812D01*
X140498456Y-114726784D01*
X140399853Y-114874354D01*
X140274354Y-114999853D01*
X140126784Y-115098456D01*
X139962812Y-115166376D01*
X139813512Y-115196073D01*
X139788742Y-115201000D01*
X139611258Y-115201000D01*
X139586488Y-115196073D01*
X139437188Y-115166376D01*
X139273216Y-115098456D01*
X139125646Y-114999853D01*
X139000147Y-114874354D01*
X138901544Y-114726784D01*
X138833624Y-114562812D01*
X138799000Y-114388741D01*
X138799000Y-114211259D01*
X138833624Y-114037188D01*
X138901544Y-113873216D01*
X139000147Y-113725646D01*
X139125646Y-113600147D01*
X139273216Y-113501544D01*
X139437188Y-113433624D01*
X139586488Y-113403927D01*
X139611258Y-113399000D01*
X139788742Y-113399000D01*
X139813512Y-113403927D01*
G37*
G36*
X168776228Y-113221703D02*
G01*
X168931100Y-113285853D01*
X169070481Y-113378985D01*
X169189015Y-113497519D01*
X169282147Y-113636900D01*
X169346297Y-113791772D01*
X169379000Y-113956184D01*
X169379000Y-114123816D01*
X169346297Y-114288228D01*
X169282147Y-114443100D01*
X169189015Y-114582481D01*
X169070481Y-114701015D01*
X168931100Y-114794147D01*
X168776228Y-114858297D01*
X168611816Y-114891000D01*
X168444184Y-114891000D01*
X168279772Y-114858297D01*
X168124900Y-114794147D01*
X167985519Y-114701015D01*
X167866985Y-114582481D01*
X167773853Y-114443100D01*
X167709703Y-114288228D01*
X167677000Y-114123816D01*
X167677000Y-113956184D01*
X167709703Y-113791772D01*
X167773853Y-113636900D01*
X167866985Y-113497519D01*
X167985519Y-113378985D01*
X168124900Y-113285853D01*
X168279772Y-113221703D01*
X168444184Y-113189000D01*
X168611816Y-113189000D01*
X168776228Y-113221703D01*
G37*
G36*
X175576228Y-113221703D02*
G01*
X175731100Y-113285853D01*
X175870481Y-113378985D01*
X175989015Y-113497519D01*
X176082147Y-113636900D01*
X176146297Y-113791772D01*
X176179000Y-113956184D01*
X176179000Y-114123816D01*
X176146297Y-114288228D01*
X176082147Y-114443100D01*
X175989015Y-114582481D01*
X175870481Y-114701015D01*
X175731100Y-114794147D01*
X175576228Y-114858297D01*
X175411816Y-114891000D01*
X175244184Y-114891000D01*
X175079772Y-114858297D01*
X174924900Y-114794147D01*
X174785519Y-114701015D01*
X174666985Y-114582481D01*
X174573853Y-114443100D01*
X174509703Y-114288228D01*
X174477000Y-114123816D01*
X174477000Y-113956184D01*
X174509703Y-113791772D01*
X174573853Y-113636900D01*
X174666985Y-113497519D01*
X174785519Y-113378985D01*
X174924900Y-113285853D01*
X175079772Y-113221703D01*
X175244184Y-113189000D01*
X175411816Y-113189000D01*
X175576228Y-113221703D01*
G37*
G36*
X157212512Y-111117927D02*
G01*
X157361812Y-111147624D01*
X157525784Y-111215544D01*
X157673354Y-111314147D01*
X157798853Y-111439646D01*
X157897456Y-111587216D01*
X157965376Y-111751188D01*
X158000000Y-111925259D01*
X158000000Y-112102741D01*
X157965376Y-112276812D01*
X157897456Y-112440784D01*
X157798853Y-112588354D01*
X157673354Y-112713853D01*
X157525784Y-112812456D01*
X157361812Y-112880376D01*
X157212512Y-112910073D01*
X157187742Y-112915000D01*
X157010258Y-112915000D01*
X156985488Y-112910073D01*
X156836188Y-112880376D01*
X156672216Y-112812456D01*
X156524646Y-112713853D01*
X156399147Y-112588354D01*
X156300544Y-112440784D01*
X156232624Y-112276812D01*
X156198000Y-112102741D01*
X156198000Y-111925259D01*
X156232624Y-111751188D01*
X156300544Y-111587216D01*
X156399147Y-111439646D01*
X156524646Y-111314147D01*
X156672216Y-111215544D01*
X156836188Y-111147624D01*
X156985488Y-111117927D01*
X157010258Y-111113000D01*
X157187742Y-111113000D01*
X157212512Y-111117927D01*
G37*
G36*
X159752512Y-111117927D02*
G01*
X159901812Y-111147624D01*
X160065784Y-111215544D01*
X160213354Y-111314147D01*
X160338853Y-111439646D01*
X160437456Y-111587216D01*
X160505376Y-111751188D01*
X160540000Y-111925259D01*
X160540000Y-112102741D01*
X160505376Y-112276812D01*
X160437456Y-112440784D01*
X160338853Y-112588354D01*
X160213354Y-112713853D01*
X160065784Y-112812456D01*
X159901812Y-112880376D01*
X159752512Y-112910073D01*
X159727742Y-112915000D01*
X159550258Y-112915000D01*
X159525488Y-112910073D01*
X159376188Y-112880376D01*
X159212216Y-112812456D01*
X159064646Y-112713853D01*
X158939147Y-112588354D01*
X158840544Y-112440784D01*
X158772624Y-112276812D01*
X158738000Y-112102741D01*
X158738000Y-111925259D01*
X158772624Y-111751188D01*
X158840544Y-111587216D01*
X158939147Y-111439646D01*
X159064646Y-111314147D01*
X159212216Y-111215544D01*
X159376188Y-111147624D01*
X159525488Y-111117927D01*
X159550258Y-111113000D01*
X159727742Y-111113000D01*
X159752512Y-111117927D01*
G37*
G36*
X154672512Y-111117927D02*
G01*
X154821812Y-111147624D01*
X154985784Y-111215544D01*
X155133354Y-111314147D01*
X155258853Y-111439646D01*
X155357456Y-111587216D01*
X155425376Y-111751188D01*
X155460000Y-111925259D01*
X155460000Y-112102741D01*
X155425376Y-112276812D01*
X155357456Y-112440784D01*
X155258853Y-112588354D01*
X155133354Y-112713853D01*
X154985784Y-112812456D01*
X154821812Y-112880376D01*
X154672512Y-112910073D01*
X154647742Y-112915000D01*
X154470258Y-112915000D01*
X154445488Y-112910073D01*
X154296188Y-112880376D01*
X154132216Y-112812456D01*
X153984646Y-112713853D01*
X153859147Y-112588354D01*
X153760544Y-112440784D01*
X153692624Y-112276812D01*
X153658000Y-112102741D01*
X153658000Y-111925259D01*
X153692624Y-111751188D01*
X153760544Y-111587216D01*
X153859147Y-111439646D01*
X153984646Y-111314147D01*
X154132216Y-111215544D01*
X154296188Y-111147624D01*
X154445488Y-111117927D01*
X154470258Y-111113000D01*
X154647742Y-111113000D01*
X154672512Y-111117927D01*
G37*
G36*
X149592512Y-111117927D02*
G01*
X149741812Y-111147624D01*
X149905784Y-111215544D01*
X150053354Y-111314147D01*
X150178853Y-111439646D01*
X150277456Y-111587216D01*
X150345376Y-111751188D01*
X150380000Y-111925259D01*
X150380000Y-112102741D01*
X150345376Y-112276812D01*
X150277456Y-112440784D01*
X150178853Y-112588354D01*
X150053354Y-112713853D01*
X149905784Y-112812456D01*
X149741812Y-112880376D01*
X149592512Y-112910073D01*
X149567742Y-112915000D01*
X149390258Y-112915000D01*
X149365488Y-112910073D01*
X149216188Y-112880376D01*
X149052216Y-112812456D01*
X148904646Y-112713853D01*
X148779147Y-112588354D01*
X148680544Y-112440784D01*
X148612624Y-112276812D01*
X148578000Y-112102741D01*
X148578000Y-111925259D01*
X148612624Y-111751188D01*
X148680544Y-111587216D01*
X148779147Y-111439646D01*
X148904646Y-111314147D01*
X149052216Y-111215544D01*
X149216188Y-111147624D01*
X149365488Y-111117927D01*
X149390258Y-111113000D01*
X149567742Y-111113000D01*
X149592512Y-111117927D01*
G37*
G36*
X152132512Y-111117927D02*
G01*
X152281812Y-111147624D01*
X152445784Y-111215544D01*
X152593354Y-111314147D01*
X152718853Y-111439646D01*
X152817456Y-111587216D01*
X152885376Y-111751188D01*
X152920000Y-111925259D01*
X152920000Y-112102741D01*
X152885376Y-112276812D01*
X152817456Y-112440784D01*
X152718853Y-112588354D01*
X152593354Y-112713853D01*
X152445784Y-112812456D01*
X152281812Y-112880376D01*
X152132512Y-112910073D01*
X152107742Y-112915000D01*
X151930258Y-112915000D01*
X151905488Y-112910073D01*
X151756188Y-112880376D01*
X151592216Y-112812456D01*
X151444646Y-112713853D01*
X151319147Y-112588354D01*
X151220544Y-112440784D01*
X151152624Y-112276812D01*
X151118000Y-112102741D01*
X151118000Y-111925259D01*
X151152624Y-111751188D01*
X151220544Y-111587216D01*
X151319147Y-111439646D01*
X151444646Y-111314147D01*
X151592216Y-111215544D01*
X151756188Y-111147624D01*
X151905488Y-111117927D01*
X151930258Y-111113000D01*
X152107742Y-111113000D01*
X152132512Y-111117927D01*
G37*
G36*
X139813512Y-110863927D02*
G01*
X139962812Y-110893624D01*
X140126784Y-110961544D01*
X140274354Y-111060147D01*
X140399853Y-111185646D01*
X140498456Y-111333216D01*
X140566376Y-111497188D01*
X140601000Y-111671259D01*
X140601000Y-111848741D01*
X140566376Y-112022812D01*
X140498456Y-112186784D01*
X140399853Y-112334354D01*
X140274354Y-112459853D01*
X140126784Y-112558456D01*
X139962812Y-112626376D01*
X139813512Y-112656073D01*
X139788742Y-112661000D01*
X139611258Y-112661000D01*
X139586488Y-112656073D01*
X139437188Y-112626376D01*
X139273216Y-112558456D01*
X139125646Y-112459853D01*
X139000147Y-112334354D01*
X138901544Y-112186784D01*
X138833624Y-112022812D01*
X138799000Y-111848741D01*
X138799000Y-111671259D01*
X138833624Y-111497188D01*
X138901544Y-111333216D01*
X139000147Y-111185646D01*
X139125646Y-111060147D01*
X139273216Y-110961544D01*
X139437188Y-110893624D01*
X139586488Y-110863927D01*
X139611258Y-110859000D01*
X139788742Y-110859000D01*
X139813512Y-110863927D01*
G37*
G36*
X139813512Y-108323927D02*
G01*
X139962812Y-108353624D01*
X140126784Y-108421544D01*
X140274354Y-108520147D01*
X140399853Y-108645646D01*
X140498456Y-108793216D01*
X140566376Y-108957188D01*
X140601000Y-109131259D01*
X140601000Y-109308741D01*
X140566376Y-109482812D01*
X140498456Y-109646784D01*
X140399853Y-109794354D01*
X140274354Y-109919853D01*
X140126784Y-110018456D01*
X139962812Y-110086376D01*
X139813512Y-110116073D01*
X139788742Y-110121000D01*
X139611258Y-110121000D01*
X139586488Y-110116073D01*
X139437188Y-110086376D01*
X139273216Y-110018456D01*
X139125646Y-109919853D01*
X139000147Y-109794354D01*
X138901544Y-109646784D01*
X138833624Y-109482812D01*
X138799000Y-109308741D01*
X138799000Y-109131259D01*
X138833624Y-108957188D01*
X138901544Y-108793216D01*
X139000147Y-108645646D01*
X139125646Y-108520147D01*
X139273216Y-108421544D01*
X139437188Y-108353624D01*
X139586488Y-108323927D01*
X139611258Y-108319000D01*
X139788742Y-108319000D01*
X139813512Y-108323927D01*
G37*
G36*
X140601000Y-107581000D02*
G01*
X138799000Y-107581000D01*
X138799000Y-105779000D01*
X140601000Y-105779000D01*
X140601000Y-107581000D01*
G37*
G36*
X155427642Y-101591781D02*
G01*
X155573414Y-101652162D01*
X155573416Y-101652163D01*
X155704608Y-101739822D01*
X155816178Y-101851392D01*
X155903837Y-101982584D01*
X155903838Y-101982586D01*
X155964219Y-102128358D01*
X155995000Y-102283107D01*
X155995000Y-102440893D01*
X155964219Y-102595642D01*
X155903838Y-102741414D01*
X155903837Y-102741416D01*
X155816178Y-102872608D01*
X155704608Y-102984178D01*
X155573416Y-103071837D01*
X155573415Y-103071838D01*
X155573414Y-103071838D01*
X155427642Y-103132219D01*
X155272893Y-103163000D01*
X155115107Y-103163000D01*
X154960358Y-103132219D01*
X154814586Y-103071838D01*
X154814585Y-103071838D01*
X154814584Y-103071837D01*
X154683392Y-102984178D01*
X154571822Y-102872608D01*
X154484163Y-102741416D01*
X154484162Y-102741414D01*
X154423781Y-102595642D01*
X154393000Y-102440893D01*
X154393000Y-102283107D01*
X154423781Y-102128358D01*
X154484162Y-101982586D01*
X154484163Y-101982584D01*
X154571822Y-101851392D01*
X154683392Y-101739822D01*
X154814584Y-101652163D01*
X154814586Y-101652162D01*
X154960358Y-101591781D01*
X155115107Y-101561000D01*
X155272893Y-101561000D01*
X155427642Y-101591781D01*
G37*
G36*
X155427642Y-96711781D02*
G01*
X155573414Y-96772162D01*
X155573416Y-96772163D01*
X155704608Y-96859822D01*
X155816178Y-96971392D01*
X155903837Y-97102584D01*
X155903838Y-97102586D01*
X155964219Y-97248358D01*
X155995000Y-97403107D01*
X155995000Y-97560893D01*
X155964219Y-97715642D01*
X155903838Y-97861414D01*
X155903837Y-97861416D01*
X155816178Y-97992608D01*
X155704608Y-98104178D01*
X155573416Y-98191837D01*
X155573415Y-98191838D01*
X155573414Y-98191838D01*
X155427642Y-98252219D01*
X155272893Y-98283000D01*
X155115107Y-98283000D01*
X154960358Y-98252219D01*
X154814586Y-98191838D01*
X154814585Y-98191838D01*
X154814584Y-98191837D01*
X154683392Y-98104178D01*
X154571822Y-97992608D01*
X154484163Y-97861416D01*
X154484162Y-97861414D01*
X154423781Y-97715642D01*
X154393000Y-97560893D01*
X154393000Y-97403107D01*
X154423781Y-97248358D01*
X154484162Y-97102586D01*
X154484163Y-97102584D01*
X154571822Y-96971392D01*
X154683392Y-96859822D01*
X154814584Y-96772163D01*
X154814586Y-96772162D01*
X154960358Y-96711781D01*
X155115107Y-96681000D01*
X155272893Y-96681000D01*
X155427642Y-96711781D01*
G37*
G36*
X140305549Y-88152116D02*
G01*
X140416734Y-88174232D01*
X140626203Y-88260997D01*
X140814720Y-88386960D01*
X140975040Y-88547280D01*
X141035115Y-88637189D01*
X141101004Y-88735799D01*
X141187768Y-88945267D01*
X141231041Y-89162812D01*
X141232000Y-89167636D01*
X141232000Y-89394364D01*
X141187768Y-89616734D01*
X141126416Y-89764850D01*
X141111443Y-89801000D01*
X141101003Y-89826203D01*
X140975040Y-90014720D01*
X140814720Y-90175040D01*
X140626203Y-90301003D01*
X140416734Y-90387768D01*
X140305549Y-90409884D01*
X140194365Y-90432000D01*
X139967635Y-90432000D01*
X139856451Y-90409884D01*
X139745266Y-90387768D01*
X139535797Y-90301003D01*
X139347280Y-90175040D01*
X139186960Y-90014720D01*
X139060997Y-89826203D01*
X139050558Y-89801000D01*
X139035584Y-89764850D01*
X138974232Y-89616734D01*
X138930000Y-89394364D01*
X138930000Y-89167636D01*
X138930960Y-89162812D01*
X138974232Y-88945267D01*
X139060996Y-88735799D01*
X139126885Y-88637189D01*
X139186960Y-88547280D01*
X139347280Y-88386960D01*
X139535797Y-88260997D01*
X139745266Y-88174232D01*
X139856451Y-88152116D01*
X139967635Y-88130000D01*
X140194365Y-88130000D01*
X140305549Y-88152116D01*
G37*
G36*
X190343549Y-88152116D02*
G01*
X190454734Y-88174232D01*
X190664203Y-88260997D01*
X190852720Y-88386960D01*
X191013040Y-88547280D01*
X191073115Y-88637189D01*
X191139004Y-88735799D01*
X191225768Y-88945267D01*
X191269041Y-89162812D01*
X191270000Y-89167636D01*
X191270000Y-89394364D01*
X191225768Y-89616734D01*
X191164416Y-89764850D01*
X191149443Y-89801000D01*
X191139003Y-89826203D01*
X191013040Y-90014720D01*
X190852720Y-90175040D01*
X190664203Y-90301003D01*
X190454734Y-90387768D01*
X190343549Y-90409884D01*
X190232365Y-90432000D01*
X190005635Y-90432000D01*
X189894451Y-90409884D01*
X189783266Y-90387768D01*
X189573797Y-90301003D01*
X189385280Y-90175040D01*
X189224960Y-90014720D01*
X189098997Y-89826203D01*
X189088558Y-89801000D01*
X189073584Y-89764850D01*
X189012232Y-89616734D01*
X188968000Y-89394364D01*
X188968000Y-89167636D01*
X188968960Y-89162812D01*
X189012232Y-88945267D01*
X189098996Y-88735799D01*
X189164885Y-88637189D01*
X189224960Y-88547280D01*
X189385280Y-88386960D01*
X189573797Y-88260997D01*
X189783266Y-88174232D01*
X189894451Y-88152116D01*
X190005635Y-88130000D01*
X190232365Y-88130000D01*
X190343549Y-88152116D01*
G37*
G36*
X180453512Y-88003927D02*
G01*
X180602812Y-88033624D01*
X180766784Y-88101544D01*
X180914354Y-88200147D01*
X181039853Y-88325646D01*
X181138456Y-88473216D01*
X181206376Y-88637188D01*
X181241000Y-88811259D01*
X181241000Y-88988741D01*
X181206376Y-89162812D01*
X181138456Y-89326784D01*
X181039853Y-89474354D01*
X180914354Y-89599853D01*
X180766784Y-89698456D01*
X180602812Y-89766376D01*
X180453512Y-89796073D01*
X180428742Y-89801000D01*
X180251258Y-89801000D01*
X180226488Y-89796073D01*
X180077188Y-89766376D01*
X179913216Y-89698456D01*
X179765646Y-89599853D01*
X179640147Y-89474354D01*
X179541544Y-89326784D01*
X179473624Y-89162812D01*
X179439000Y-88988741D01*
X179439000Y-88811259D01*
X179473624Y-88637188D01*
X179541544Y-88473216D01*
X179640147Y-88325646D01*
X179765646Y-88200147D01*
X179913216Y-88101544D01*
X180077188Y-88033624D01*
X180226488Y-88003927D01*
X180251258Y-87999000D01*
X180428742Y-87999000D01*
X180453512Y-88003927D01*
G37*
G36*
X177913512Y-88003927D02*
G01*
X178062812Y-88033624D01*
X178226784Y-88101544D01*
X178374354Y-88200147D01*
X178499853Y-88325646D01*
X178598456Y-88473216D01*
X178666376Y-88637188D01*
X178701000Y-88811259D01*
X178701000Y-88988741D01*
X178666376Y-89162812D01*
X178598456Y-89326784D01*
X178499853Y-89474354D01*
X178374354Y-89599853D01*
X178226784Y-89698456D01*
X178062812Y-89766376D01*
X177913512Y-89796073D01*
X177888742Y-89801000D01*
X177711258Y-89801000D01*
X177686488Y-89796073D01*
X177537188Y-89766376D01*
X177373216Y-89698456D01*
X177225646Y-89599853D01*
X177100147Y-89474354D01*
X177001544Y-89326784D01*
X176933624Y-89162812D01*
X176899000Y-88988741D01*
X176899000Y-88811259D01*
X176933624Y-88637188D01*
X177001544Y-88473216D01*
X177100147Y-88325646D01*
X177225646Y-88200147D01*
X177373216Y-88101544D01*
X177537188Y-88033624D01*
X177686488Y-88003927D01*
X177711258Y-87999000D01*
X177888742Y-87999000D01*
X177913512Y-88003927D01*
G37*
G36*
X175373512Y-88003927D02*
G01*
X175522812Y-88033624D01*
X175686784Y-88101544D01*
X175834354Y-88200147D01*
X175959853Y-88325646D01*
X176058456Y-88473216D01*
X176126376Y-88637188D01*
X176161000Y-88811259D01*
X176161000Y-88988741D01*
X176126376Y-89162812D01*
X176058456Y-89326784D01*
X175959853Y-89474354D01*
X175834354Y-89599853D01*
X175686784Y-89698456D01*
X175522812Y-89766376D01*
X175373512Y-89796073D01*
X175348742Y-89801000D01*
X175171258Y-89801000D01*
X175146488Y-89796073D01*
X174997188Y-89766376D01*
X174833216Y-89698456D01*
X174685646Y-89599853D01*
X174560147Y-89474354D01*
X174461544Y-89326784D01*
X174393624Y-89162812D01*
X174359000Y-88988741D01*
X174359000Y-88811259D01*
X174393624Y-88637188D01*
X174461544Y-88473216D01*
X174560147Y-88325646D01*
X174685646Y-88200147D01*
X174833216Y-88101544D01*
X174997188Y-88033624D01*
X175146488Y-88003927D01*
X175171258Y-87999000D01*
X175348742Y-87999000D01*
X175373512Y-88003927D01*
G37*
G36*
X172833512Y-88003927D02*
G01*
X172982812Y-88033624D01*
X173146784Y-88101544D01*
X173294354Y-88200147D01*
X173419853Y-88325646D01*
X173518456Y-88473216D01*
X173586376Y-88637188D01*
X173621000Y-88811259D01*
X173621000Y-88988741D01*
X173586376Y-89162812D01*
X173518456Y-89326784D01*
X173419853Y-89474354D01*
X173294354Y-89599853D01*
X173146784Y-89698456D01*
X172982812Y-89766376D01*
X172833512Y-89796073D01*
X172808742Y-89801000D01*
X172631258Y-89801000D01*
X172606488Y-89796073D01*
X172457188Y-89766376D01*
X172293216Y-89698456D01*
X172145646Y-89599853D01*
X172020147Y-89474354D01*
X171921544Y-89326784D01*
X171853624Y-89162812D01*
X171819000Y-88988741D01*
X171819000Y-88811259D01*
X171853624Y-88637188D01*
X171921544Y-88473216D01*
X172020147Y-88325646D01*
X172145646Y-88200147D01*
X172293216Y-88101544D01*
X172457188Y-88033624D01*
X172606488Y-88003927D01*
X172631258Y-87999000D01*
X172808742Y-87999000D01*
X172833512Y-88003927D01*
G37*
G36*
X170293512Y-88003927D02*
G01*
X170442812Y-88033624D01*
X170606784Y-88101544D01*
X170754354Y-88200147D01*
X170879853Y-88325646D01*
X170978456Y-88473216D01*
X171046376Y-88637188D01*
X171081000Y-88811259D01*
X171081000Y-88988741D01*
X171046376Y-89162812D01*
X170978456Y-89326784D01*
X170879853Y-89474354D01*
X170754354Y-89599853D01*
X170606784Y-89698456D01*
X170442812Y-89766376D01*
X170293512Y-89796073D01*
X170268742Y-89801000D01*
X170091258Y-89801000D01*
X170066488Y-89796073D01*
X169917188Y-89766376D01*
X169753216Y-89698456D01*
X169605646Y-89599853D01*
X169480147Y-89474354D01*
X169381544Y-89326784D01*
X169313624Y-89162812D01*
X169279000Y-88988741D01*
X169279000Y-88811259D01*
X169313624Y-88637188D01*
X169381544Y-88473216D01*
X169480147Y-88325646D01*
X169605646Y-88200147D01*
X169753216Y-88101544D01*
X169917188Y-88033624D01*
X170066488Y-88003927D01*
X170091258Y-87999000D01*
X170268742Y-87999000D01*
X170293512Y-88003927D01*
G37*
G36*
X167753512Y-88003927D02*
G01*
X167902812Y-88033624D01*
X168066784Y-88101544D01*
X168214354Y-88200147D01*
X168339853Y-88325646D01*
X168438456Y-88473216D01*
X168506376Y-88637188D01*
X168541000Y-88811259D01*
X168541000Y-88988741D01*
X168506376Y-89162812D01*
X168438456Y-89326784D01*
X168339853Y-89474354D01*
X168214354Y-89599853D01*
X168066784Y-89698456D01*
X167902812Y-89766376D01*
X167753512Y-89796073D01*
X167728742Y-89801000D01*
X167551258Y-89801000D01*
X167526488Y-89796073D01*
X167377188Y-89766376D01*
X167213216Y-89698456D01*
X167065646Y-89599853D01*
X166940147Y-89474354D01*
X166841544Y-89326784D01*
X166773624Y-89162812D01*
X166739000Y-88988741D01*
X166739000Y-88811259D01*
X166773624Y-88637188D01*
X166841544Y-88473216D01*
X166940147Y-88325646D01*
X167065646Y-88200147D01*
X167213216Y-88101544D01*
X167377188Y-88033624D01*
X167526488Y-88003927D01*
X167551258Y-87999000D01*
X167728742Y-87999000D01*
X167753512Y-88003927D01*
G37*
G36*
X165213512Y-88003927D02*
G01*
X165362812Y-88033624D01*
X165526784Y-88101544D01*
X165674354Y-88200147D01*
X165799853Y-88325646D01*
X165898456Y-88473216D01*
X165966376Y-88637188D01*
X166001000Y-88811259D01*
X166001000Y-88988741D01*
X165966376Y-89162812D01*
X165898456Y-89326784D01*
X165799853Y-89474354D01*
X165674354Y-89599853D01*
X165526784Y-89698456D01*
X165362812Y-89766376D01*
X165213512Y-89796073D01*
X165188742Y-89801000D01*
X165011258Y-89801000D01*
X164986488Y-89796073D01*
X164837188Y-89766376D01*
X164673216Y-89698456D01*
X164525646Y-89599853D01*
X164400147Y-89474354D01*
X164301544Y-89326784D01*
X164233624Y-89162812D01*
X164199000Y-88988741D01*
X164199000Y-88811259D01*
X164233624Y-88637188D01*
X164301544Y-88473216D01*
X164400147Y-88325646D01*
X164525646Y-88200147D01*
X164673216Y-88101544D01*
X164837188Y-88033624D01*
X164986488Y-88003927D01*
X165011258Y-87999000D01*
X165188742Y-87999000D01*
X165213512Y-88003927D01*
G37*
G36*
X183781000Y-89801000D02*
G01*
X181979000Y-89801000D01*
X181979000Y-87999000D01*
X183781000Y-87999000D01*
X183781000Y-89801000D01*
G37*
G36*
X147433512Y-88003927D02*
G01*
X147582812Y-88033624D01*
X147746784Y-88101544D01*
X147894354Y-88200147D01*
X148019853Y-88325646D01*
X148118456Y-88473216D01*
X148186376Y-88637188D01*
X148221000Y-88811259D01*
X148221000Y-88988741D01*
X148186376Y-89162812D01*
X148118456Y-89326784D01*
X148019853Y-89474354D01*
X147894354Y-89599853D01*
X147746784Y-89698456D01*
X147582812Y-89766376D01*
X147433512Y-89796073D01*
X147408742Y-89801000D01*
X147231258Y-89801000D01*
X147206488Y-89796073D01*
X147057188Y-89766376D01*
X146893216Y-89698456D01*
X146745646Y-89599853D01*
X146620147Y-89474354D01*
X146521544Y-89326784D01*
X146453624Y-89162812D01*
X146419000Y-88988741D01*
X146419000Y-88811259D01*
X146453624Y-88637188D01*
X146521544Y-88473216D01*
X146620147Y-88325646D01*
X146745646Y-88200147D01*
X146893216Y-88101544D01*
X147057188Y-88033624D01*
X147206488Y-88003927D01*
X147231258Y-87999000D01*
X147408742Y-87999000D01*
X147433512Y-88003927D01*
G37*
G36*
X149973512Y-88003927D02*
G01*
X150122812Y-88033624D01*
X150286784Y-88101544D01*
X150434354Y-88200147D01*
X150559853Y-88325646D01*
X150658456Y-88473216D01*
X150726376Y-88637188D01*
X150761000Y-88811259D01*
X150761000Y-88988741D01*
X150726376Y-89162812D01*
X150658456Y-89326784D01*
X150559853Y-89474354D01*
X150434354Y-89599853D01*
X150286784Y-89698456D01*
X150122812Y-89766376D01*
X149973512Y-89796073D01*
X149948742Y-89801000D01*
X149771258Y-89801000D01*
X149746488Y-89796073D01*
X149597188Y-89766376D01*
X149433216Y-89698456D01*
X149285646Y-89599853D01*
X149160147Y-89474354D01*
X149061544Y-89326784D01*
X148993624Y-89162812D01*
X148959000Y-88988741D01*
X148959000Y-88811259D01*
X148993624Y-88637188D01*
X149061544Y-88473216D01*
X149160147Y-88325646D01*
X149285646Y-88200147D01*
X149433216Y-88101544D01*
X149597188Y-88033624D01*
X149746488Y-88003927D01*
X149771258Y-87999000D01*
X149948742Y-87999000D01*
X149973512Y-88003927D01*
G37*
G36*
X152513512Y-88003927D02*
G01*
X152662812Y-88033624D01*
X152826784Y-88101544D01*
X152974354Y-88200147D01*
X153099853Y-88325646D01*
X153198456Y-88473216D01*
X153266376Y-88637188D01*
X153301000Y-88811259D01*
X153301000Y-88988741D01*
X153266376Y-89162812D01*
X153198456Y-89326784D01*
X153099853Y-89474354D01*
X152974354Y-89599853D01*
X152826784Y-89698456D01*
X152662812Y-89766376D01*
X152513512Y-89796073D01*
X152488742Y-89801000D01*
X152311258Y-89801000D01*
X152286488Y-89796073D01*
X152137188Y-89766376D01*
X151973216Y-89698456D01*
X151825646Y-89599853D01*
X151700147Y-89474354D01*
X151601544Y-89326784D01*
X151533624Y-89162812D01*
X151499000Y-88988741D01*
X151499000Y-88811259D01*
X151533624Y-88637188D01*
X151601544Y-88473216D01*
X151700147Y-88325646D01*
X151825646Y-88200147D01*
X151973216Y-88101544D01*
X152137188Y-88033624D01*
X152286488Y-88003927D01*
X152311258Y-87999000D01*
X152488742Y-87999000D01*
X152513512Y-88003927D01*
G37*
G36*
X155053512Y-88003927D02*
G01*
X155202812Y-88033624D01*
X155366784Y-88101544D01*
X155514354Y-88200147D01*
X155639853Y-88325646D01*
X155738456Y-88473216D01*
X155806376Y-88637188D01*
X155841000Y-88811259D01*
X155841000Y-88988741D01*
X155806376Y-89162812D01*
X155738456Y-89326784D01*
X155639853Y-89474354D01*
X155514354Y-89599853D01*
X155366784Y-89698456D01*
X155202812Y-89766376D01*
X155053512Y-89796073D01*
X155028742Y-89801000D01*
X154851258Y-89801000D01*
X154826488Y-89796073D01*
X154677188Y-89766376D01*
X154513216Y-89698456D01*
X154365646Y-89599853D01*
X154240147Y-89474354D01*
X154141544Y-89326784D01*
X154073624Y-89162812D01*
X154039000Y-88988741D01*
X154039000Y-88811259D01*
X154073624Y-88637188D01*
X154141544Y-88473216D01*
X154240147Y-88325646D01*
X154365646Y-88200147D01*
X154513216Y-88101544D01*
X154677188Y-88033624D01*
X154826488Y-88003927D01*
X154851258Y-87999000D01*
X155028742Y-87999000D01*
X155053512Y-88003927D01*
G37*
G36*
X158381000Y-89801000D02*
G01*
X156579000Y-89801000D01*
X156579000Y-87999000D01*
X158381000Y-87999000D01*
X158381000Y-89801000D01*
G37*
M02*
