G04 #@! TF.GenerationSoftware,KiCad,Pcbnew,(5.1.5-0-10_14)*
G04 #@! TF.CreationDate,2020-06-21T16:07:24+02:00*
G04 #@! TF.ProjectId,ps2zx,7073327a-782e-46b6-9963-61645f706362,rev?*
G04 #@! TF.SameCoordinates,Original*
G04 #@! TF.FileFunction,Legend,Bot*
G04 #@! TF.FilePolarity,Positive*
%FSLAX46Y46*%
G04 Gerber Fmt 4.6, Leading zero omitted, Abs format (unit mm)*
G04 Created by KiCad (PCBNEW (5.1.5-0-10_14)) date 2020-06-21 16:07:24*
%MOMM*%
%LPD*%
G04 APERTURE LIST*
%ADD10C,0.250000*%
G04 APERTURE END LIST*
D10*
X190242309Y-97147761D02*
X190242309Y-95147761D01*
X189480404Y-95147761D01*
X189289928Y-95243000D01*
X189194690Y-95338238D01*
X189099452Y-95528714D01*
X189099452Y-95814428D01*
X189194690Y-96004904D01*
X189289928Y-96100142D01*
X189480404Y-96195380D01*
X190242309Y-96195380D01*
X188337547Y-97052523D02*
X188051833Y-97147761D01*
X187575642Y-97147761D01*
X187385166Y-97052523D01*
X187289928Y-96957285D01*
X187194690Y-96766809D01*
X187194690Y-96576333D01*
X187289928Y-96385857D01*
X187385166Y-96290619D01*
X187575642Y-96195380D01*
X187956595Y-96100142D01*
X188147071Y-96004904D01*
X188242309Y-95909666D01*
X188337547Y-95719190D01*
X188337547Y-95528714D01*
X188242309Y-95338238D01*
X188147071Y-95243000D01*
X187956595Y-95147761D01*
X187480404Y-95147761D01*
X187194690Y-95243000D01*
X184908976Y-95052523D02*
X186623261Y-97623952D01*
X184337547Y-95338238D02*
X184242309Y-95243000D01*
X184051833Y-95147761D01*
X183575642Y-95147761D01*
X183385166Y-95243000D01*
X183289928Y-95338238D01*
X183194690Y-95528714D01*
X183194690Y-95719190D01*
X183289928Y-96004904D01*
X184432785Y-97147761D01*
X183194690Y-97147761D01*
X180813738Y-97147761D02*
X180813738Y-95147761D01*
X179670880Y-97147761D02*
X180528023Y-96004904D01*
X179670880Y-95147761D02*
X180813738Y-96290619D01*
X178051833Y-97052523D02*
X178242309Y-97147761D01*
X178623261Y-97147761D01*
X178813738Y-97052523D01*
X178908976Y-96862047D01*
X178908976Y-96100142D01*
X178813738Y-95909666D01*
X178623261Y-95814428D01*
X178242309Y-95814428D01*
X178051833Y-95909666D01*
X177956595Y-96100142D01*
X177956595Y-96290619D01*
X178908976Y-96481095D01*
X177289928Y-95814428D02*
X176813738Y-97147761D01*
X176337547Y-95814428D02*
X176813738Y-97147761D01*
X177004214Y-97623952D01*
X177099452Y-97719190D01*
X177289928Y-97814428D01*
X175575642Y-97147761D02*
X175575642Y-95147761D01*
X175575642Y-95909666D02*
X175385166Y-95814428D01*
X175004214Y-95814428D01*
X174813738Y-95909666D01*
X174718500Y-96004904D01*
X174623261Y-96195380D01*
X174623261Y-96766809D01*
X174718500Y-96957285D01*
X174813738Y-97052523D01*
X175004214Y-97147761D01*
X175385166Y-97147761D01*
X175575642Y-97052523D01*
X173480404Y-97147761D02*
X173670880Y-97052523D01*
X173766119Y-96957285D01*
X173861357Y-96766809D01*
X173861357Y-96195380D01*
X173766119Y-96004904D01*
X173670880Y-95909666D01*
X173480404Y-95814428D01*
X173194690Y-95814428D01*
X173004214Y-95909666D01*
X172908976Y-96004904D01*
X172813738Y-96195380D01*
X172813738Y-96766809D01*
X172908976Y-96957285D01*
X173004214Y-97052523D01*
X173194690Y-97147761D01*
X173480404Y-97147761D01*
X171099452Y-97147761D02*
X171099452Y-96100142D01*
X171194690Y-95909666D01*
X171385166Y-95814428D01*
X171766119Y-95814428D01*
X171956595Y-95909666D01*
X171099452Y-97052523D02*
X171289928Y-97147761D01*
X171766119Y-97147761D01*
X171956595Y-97052523D01*
X172051833Y-96862047D01*
X172051833Y-96671571D01*
X171956595Y-96481095D01*
X171766119Y-96385857D01*
X171289928Y-96385857D01*
X171099452Y-96290619D01*
X170147071Y-97147761D02*
X170147071Y-95814428D01*
X170147071Y-96195380D02*
X170051833Y-96004904D01*
X169956595Y-95909666D01*
X169766119Y-95814428D01*
X169575642Y-95814428D01*
X168051833Y-97147761D02*
X168051833Y-95147761D01*
X168051833Y-97052523D02*
X168242309Y-97147761D01*
X168623261Y-97147761D01*
X168813738Y-97052523D01*
X168908976Y-96957285D01*
X169004214Y-96766809D01*
X169004214Y-96195380D01*
X168908976Y-96004904D01*
X168813738Y-95909666D01*
X168623261Y-95814428D01*
X168242309Y-95814428D01*
X168051833Y-95909666D01*
X165861357Y-95814428D02*
X165099452Y-95814428D01*
X165575642Y-95147761D02*
X165575642Y-96862047D01*
X165480404Y-97052523D01*
X165289928Y-97147761D01*
X165099452Y-97147761D01*
X164147071Y-97147761D02*
X164337547Y-97052523D01*
X164432785Y-96957285D01*
X164528023Y-96766809D01*
X164528023Y-96195380D01*
X164432785Y-96004904D01*
X164337547Y-95909666D01*
X164147071Y-95814428D01*
X163861357Y-95814428D01*
X163670880Y-95909666D01*
X163575642Y-96004904D01*
X163480404Y-96195380D01*
X163480404Y-96766809D01*
X163575642Y-96957285D01*
X163670880Y-97052523D01*
X163861357Y-97147761D01*
X164147071Y-97147761D01*
X189670880Y-98397761D02*
X189670880Y-99826333D01*
X189766119Y-100112047D01*
X189956595Y-100302523D01*
X190242309Y-100397761D01*
X190432785Y-100397761D01*
X187861357Y-99064428D02*
X187861357Y-100397761D01*
X188718500Y-99064428D02*
X188718500Y-100112047D01*
X188623261Y-100302523D01*
X188432785Y-100397761D01*
X188147071Y-100397761D01*
X187956595Y-100302523D01*
X187861357Y-100207285D01*
X186908976Y-99064428D02*
X186908976Y-101064428D01*
X186908976Y-99159666D02*
X186718500Y-99064428D01*
X186337547Y-99064428D01*
X186147071Y-99159666D01*
X186051833Y-99254904D01*
X185956595Y-99445380D01*
X185956595Y-100016809D01*
X186051833Y-100207285D01*
X186147071Y-100302523D01*
X186337547Y-100397761D01*
X186718500Y-100397761D01*
X186908976Y-100302523D01*
X185099452Y-100397761D02*
X185099452Y-99064428D01*
X185099452Y-98397761D02*
X185194690Y-98493000D01*
X185099452Y-98588238D01*
X185004214Y-98493000D01*
X185099452Y-98397761D01*
X185099452Y-98588238D01*
X184432785Y-99064428D02*
X183670880Y-99064428D01*
X184147071Y-98397761D02*
X184147071Y-100112047D01*
X184051833Y-100302523D01*
X183861357Y-100397761D01*
X183670880Y-100397761D01*
X182242309Y-100302523D02*
X182432785Y-100397761D01*
X182813738Y-100397761D01*
X183004214Y-100302523D01*
X183099452Y-100112047D01*
X183099452Y-99350142D01*
X183004214Y-99159666D01*
X182813738Y-99064428D01*
X182432785Y-99064428D01*
X182242309Y-99159666D01*
X182147071Y-99350142D01*
X182147071Y-99540619D01*
X183099452Y-99731095D01*
X181289928Y-100397761D02*
X181289928Y-99064428D01*
X181289928Y-99445380D02*
X181194690Y-99254904D01*
X181099452Y-99159666D01*
X180908976Y-99064428D01*
X180718500Y-99064428D01*
X178623261Y-99826333D02*
X177670880Y-99826333D01*
X178813738Y-100397761D02*
X178147071Y-98397761D01*
X177480404Y-100397761D01*
X175956595Y-100302523D02*
X176147071Y-100397761D01*
X176528023Y-100397761D01*
X176718500Y-100302523D01*
X176813738Y-100207285D01*
X176908976Y-100016809D01*
X176908976Y-99445380D01*
X176813738Y-99254904D01*
X176718500Y-99159666D01*
X176528023Y-99064428D01*
X176147071Y-99064428D01*
X175956595Y-99159666D01*
X174337547Y-100302523D02*
X174528023Y-100397761D01*
X174908976Y-100397761D01*
X175099452Y-100302523D01*
X175194690Y-100112047D01*
X175194690Y-99350142D01*
X175099452Y-99159666D01*
X174908976Y-99064428D01*
X174528023Y-99064428D01*
X174337547Y-99159666D01*
X174242309Y-99350142D01*
X174242309Y-99540619D01*
X175194690Y-99731095D01*
X171956595Y-98302523D02*
X173670880Y-100873952D01*
X171480404Y-98397761D02*
X170147071Y-98397761D01*
X171480404Y-100397761D01*
X170147071Y-100397761D01*
X169575642Y-98397761D02*
X168242309Y-100397761D01*
X168242309Y-98397761D02*
X169575642Y-100397761D01*
X166051833Y-100302523D02*
X165766119Y-100397761D01*
X165289928Y-100397761D01*
X165099452Y-100302523D01*
X165004214Y-100207285D01*
X164908976Y-100016809D01*
X164908976Y-99826333D01*
X165004214Y-99635857D01*
X165099452Y-99540619D01*
X165289928Y-99445380D01*
X165670880Y-99350142D01*
X165861357Y-99254904D01*
X165956595Y-99159666D01*
X166051833Y-98969190D01*
X166051833Y-98778714D01*
X165956595Y-98588238D01*
X165861357Y-98493000D01*
X165670880Y-98397761D01*
X165194690Y-98397761D01*
X164908976Y-98493000D01*
X164051833Y-99064428D02*
X164051833Y-101064428D01*
X164051833Y-99159666D02*
X163861357Y-99064428D01*
X163480404Y-99064428D01*
X163289928Y-99159666D01*
X163194690Y-99254904D01*
X163099452Y-99445380D01*
X163099452Y-100016809D01*
X163194690Y-100207285D01*
X163289928Y-100302523D01*
X163480404Y-100397761D01*
X163861357Y-100397761D01*
X164051833Y-100302523D01*
X161480404Y-100302523D02*
X161670880Y-100397761D01*
X162051833Y-100397761D01*
X162242309Y-100302523D01*
X162337547Y-100112047D01*
X162337547Y-99350142D01*
X162242309Y-99159666D01*
X162051833Y-99064428D01*
X161670880Y-99064428D01*
X161480404Y-99159666D01*
X161385166Y-99350142D01*
X161385166Y-99540619D01*
X162337547Y-99731095D01*
X159670880Y-100302523D02*
X159861357Y-100397761D01*
X160242309Y-100397761D01*
X160432785Y-100302523D01*
X160528023Y-100207285D01*
X160623261Y-100016809D01*
X160623261Y-99445380D01*
X160528023Y-99254904D01*
X160432785Y-99159666D01*
X160242309Y-99064428D01*
X159861357Y-99064428D01*
X159670880Y-99159666D01*
X159099452Y-99064428D02*
X158337547Y-99064428D01*
X158813738Y-98397761D02*
X158813738Y-100112047D01*
X158718500Y-100302523D01*
X158528023Y-100397761D01*
X158337547Y-100397761D01*
X157670880Y-100397761D02*
X157670880Y-99064428D01*
X157670880Y-99445380D02*
X157575642Y-99254904D01*
X157480404Y-99159666D01*
X157289928Y-99064428D01*
X157099452Y-99064428D01*
X155575642Y-99064428D02*
X155575642Y-100397761D01*
X156432785Y-99064428D02*
X156432785Y-100112047D01*
X156337547Y-100302523D01*
X156147071Y-100397761D01*
X155861357Y-100397761D01*
X155670880Y-100302523D01*
X155575642Y-100207285D01*
X154623261Y-100397761D02*
X154623261Y-99064428D01*
X154623261Y-99254904D02*
X154528023Y-99159666D01*
X154337547Y-99064428D01*
X154051833Y-99064428D01*
X153861357Y-99159666D01*
X153766119Y-99350142D01*
X153766119Y-100397761D01*
X153766119Y-99350142D02*
X153670880Y-99159666D01*
X153480404Y-99064428D01*
X153194690Y-99064428D01*
X153004214Y-99159666D01*
X152908976Y-99350142D01*
X152908976Y-100397761D01*
X189099452Y-103457285D02*
X189194690Y-103552523D01*
X189480404Y-103647761D01*
X189670880Y-103647761D01*
X189956595Y-103552523D01*
X190147071Y-103362047D01*
X190242309Y-103171571D01*
X190337547Y-102790619D01*
X190337547Y-102504904D01*
X190242309Y-102123952D01*
X190147071Y-101933476D01*
X189956595Y-101743000D01*
X189670880Y-101647761D01*
X189480404Y-101647761D01*
X189194690Y-101743000D01*
X189099452Y-101838238D01*
X187956595Y-103647761D02*
X188147071Y-103552523D01*
X188242309Y-103457285D01*
X188337547Y-103266809D01*
X188337547Y-102695380D01*
X188242309Y-102504904D01*
X188147071Y-102409666D01*
X187956595Y-102314428D01*
X187670880Y-102314428D01*
X187480404Y-102409666D01*
X187385166Y-102504904D01*
X187289928Y-102695380D01*
X187289928Y-103266809D01*
X187385166Y-103457285D01*
X187480404Y-103552523D01*
X187670880Y-103647761D01*
X187956595Y-103647761D01*
X186432785Y-102314428D02*
X186432785Y-103647761D01*
X186432785Y-102504904D02*
X186337547Y-102409666D01*
X186147071Y-102314428D01*
X185861357Y-102314428D01*
X185670880Y-102409666D01*
X185575642Y-102600142D01*
X185575642Y-103647761D01*
X184813738Y-102314428D02*
X184337547Y-103647761D01*
X183861357Y-102314428D01*
X182337547Y-103552523D02*
X182528023Y-103647761D01*
X182908976Y-103647761D01*
X183099452Y-103552523D01*
X183194690Y-103362047D01*
X183194690Y-102600142D01*
X183099452Y-102409666D01*
X182908976Y-102314428D01*
X182528023Y-102314428D01*
X182337547Y-102409666D01*
X182242309Y-102600142D01*
X182242309Y-102790619D01*
X183194690Y-102981095D01*
X181385166Y-103647761D02*
X181385166Y-102314428D01*
X181385166Y-102695380D02*
X181289928Y-102504904D01*
X181194690Y-102409666D01*
X181004214Y-102314428D01*
X180813738Y-102314428D01*
X180432785Y-102314428D02*
X179670880Y-102314428D01*
X180147071Y-101647761D02*
X180147071Y-103362047D01*
X180051833Y-103552523D01*
X179861357Y-103647761D01*
X179670880Y-103647761D01*
X178242309Y-103552523D02*
X178432785Y-103647761D01*
X178813738Y-103647761D01*
X179004214Y-103552523D01*
X179099452Y-103362047D01*
X179099452Y-102600142D01*
X179004214Y-102409666D01*
X178813738Y-102314428D01*
X178432785Y-102314428D01*
X178242309Y-102409666D01*
X178147071Y-102600142D01*
X178147071Y-102790619D01*
X179099452Y-102981095D01*
X177289928Y-103647761D02*
X177289928Y-102314428D01*
X177289928Y-102695380D02*
X177194690Y-102504904D01*
X177099452Y-102409666D01*
X176908976Y-102314428D01*
X176718500Y-102314428D01*
X190528023Y-104897761D02*
X189861357Y-106897761D01*
X189194690Y-104897761D01*
X187766119Y-106802523D02*
X187956595Y-106897761D01*
X188337547Y-106897761D01*
X188528023Y-106802523D01*
X188623261Y-106612047D01*
X188623261Y-105850142D01*
X188528023Y-105659666D01*
X188337547Y-105564428D01*
X187956595Y-105564428D01*
X187766119Y-105659666D01*
X187670880Y-105850142D01*
X187670880Y-106040619D01*
X188623261Y-106231095D01*
X186813738Y-106897761D02*
X186813738Y-105564428D01*
X186813738Y-105945380D02*
X186718500Y-105754904D01*
X186623261Y-105659666D01*
X186432785Y-105564428D01*
X186242309Y-105564428D01*
X185670880Y-106802523D02*
X185480404Y-106897761D01*
X185099452Y-106897761D01*
X184908976Y-106802523D01*
X184813738Y-106612047D01*
X184813738Y-106516809D01*
X184908976Y-106326333D01*
X185099452Y-106231095D01*
X185385166Y-106231095D01*
X185575642Y-106135857D01*
X185670880Y-105945380D01*
X185670880Y-105850142D01*
X185575642Y-105659666D01*
X185385166Y-105564428D01*
X185099452Y-105564428D01*
X184908976Y-105659666D01*
X183956595Y-106897761D02*
X183956595Y-105564428D01*
X183956595Y-104897761D02*
X184051833Y-104993000D01*
X183956595Y-105088238D01*
X183861357Y-104993000D01*
X183956595Y-104897761D01*
X183956595Y-105088238D01*
X182718500Y-106897761D02*
X182908976Y-106802523D01*
X183004214Y-106707285D01*
X183099452Y-106516809D01*
X183099452Y-105945380D01*
X183004214Y-105754904D01*
X182908976Y-105659666D01*
X182718500Y-105564428D01*
X182432785Y-105564428D01*
X182242309Y-105659666D01*
X182147071Y-105754904D01*
X182051833Y-105945380D01*
X182051833Y-106516809D01*
X182147071Y-106707285D01*
X182242309Y-106802523D01*
X182432785Y-106897761D01*
X182718500Y-106897761D01*
X181194690Y-105564428D02*
X181194690Y-106897761D01*
X181194690Y-105754904D02*
X181099452Y-105659666D01*
X180908976Y-105564428D01*
X180623261Y-105564428D01*
X180432785Y-105659666D01*
X180337547Y-105850142D01*
X180337547Y-106897761D01*
X177004214Y-105564428D02*
X177004214Y-106897761D01*
X177480404Y-104802523D02*
X177956595Y-106231095D01*
X176718500Y-106231095D01*
X189385166Y-108814428D02*
X189385166Y-110433476D01*
X189480404Y-110623952D01*
X189575642Y-110719190D01*
X189766119Y-110814428D01*
X190051833Y-110814428D01*
X190242309Y-110719190D01*
X189385166Y-110052523D02*
X189575642Y-110147761D01*
X189956595Y-110147761D01*
X190147071Y-110052523D01*
X190242309Y-109957285D01*
X190337547Y-109766809D01*
X190337547Y-109195380D01*
X190242309Y-109004904D01*
X190147071Y-108909666D01*
X189956595Y-108814428D01*
X189575642Y-108814428D01*
X189385166Y-108909666D01*
X188432785Y-110147761D02*
X188432785Y-108814428D01*
X188432785Y-108147761D02*
X188528023Y-108243000D01*
X188432785Y-108338238D01*
X188337547Y-108243000D01*
X188432785Y-108147761D01*
X188432785Y-108338238D01*
X187766119Y-108814428D02*
X187004214Y-108814428D01*
X187480404Y-108147761D02*
X187480404Y-109862047D01*
X187385166Y-110052523D01*
X187194690Y-110147761D01*
X187004214Y-110147761D01*
X186337547Y-110147761D02*
X186337547Y-108147761D01*
X185480404Y-110147761D02*
X185480404Y-109100142D01*
X185575642Y-108909666D01*
X185766119Y-108814428D01*
X186051833Y-108814428D01*
X186242309Y-108909666D01*
X186337547Y-109004904D01*
X183670880Y-108814428D02*
X183670880Y-110147761D01*
X184528023Y-108814428D02*
X184528023Y-109862047D01*
X184432785Y-110052523D01*
X184242309Y-110147761D01*
X183956595Y-110147761D01*
X183766119Y-110052523D01*
X183670880Y-109957285D01*
X182718500Y-110147761D02*
X182718500Y-108147761D01*
X182718500Y-108909666D02*
X182528023Y-108814428D01*
X182147071Y-108814428D01*
X181956595Y-108909666D01*
X181861357Y-109004904D01*
X181766119Y-109195380D01*
X181766119Y-109766809D01*
X181861357Y-109957285D01*
X181956595Y-110052523D01*
X182147071Y-110147761D01*
X182528023Y-110147761D01*
X182718500Y-110052523D01*
X180908976Y-109957285D02*
X180813738Y-110052523D01*
X180908976Y-110147761D01*
X181004214Y-110052523D01*
X180908976Y-109957285D01*
X180908976Y-110147761D01*
X179099452Y-110052523D02*
X179289928Y-110147761D01*
X179670880Y-110147761D01*
X179861357Y-110052523D01*
X179956595Y-109957285D01*
X180051833Y-109766809D01*
X180051833Y-109195380D01*
X179956595Y-109004904D01*
X179861357Y-108909666D01*
X179670880Y-108814428D01*
X179289928Y-108814428D01*
X179099452Y-108909666D01*
X177956595Y-110147761D02*
X178147071Y-110052523D01*
X178242309Y-109957285D01*
X178337547Y-109766809D01*
X178337547Y-109195380D01*
X178242309Y-109004904D01*
X178147071Y-108909666D01*
X177956595Y-108814428D01*
X177670880Y-108814428D01*
X177480404Y-108909666D01*
X177385166Y-109004904D01*
X177289928Y-109195380D01*
X177289928Y-109766809D01*
X177385166Y-109957285D01*
X177480404Y-110052523D01*
X177670880Y-110147761D01*
X177956595Y-110147761D01*
X176432785Y-110147761D02*
X176432785Y-108814428D01*
X176432785Y-109004904D02*
X176337547Y-108909666D01*
X176147071Y-108814428D01*
X175861357Y-108814428D01*
X175670880Y-108909666D01*
X175575642Y-109100142D01*
X175575642Y-110147761D01*
X175575642Y-109100142D02*
X175480404Y-108909666D01*
X175289928Y-108814428D01*
X175004214Y-108814428D01*
X174813738Y-108909666D01*
X174718500Y-109100142D01*
X174718500Y-110147761D01*
X172337547Y-108052523D02*
X174051833Y-110623952D01*
X171670880Y-110147761D02*
X171670880Y-108147761D01*
X170813738Y-110147761D02*
X170813738Y-109100142D01*
X170908976Y-108909666D01*
X171099452Y-108814428D01*
X171385166Y-108814428D01*
X171575642Y-108909666D01*
X171670880Y-109004904D01*
X169004214Y-110147761D02*
X169004214Y-109100142D01*
X169099452Y-108909666D01*
X169289928Y-108814428D01*
X169670880Y-108814428D01*
X169861357Y-108909666D01*
X169004214Y-110052523D02*
X169194690Y-110147761D01*
X169670880Y-110147761D01*
X169861357Y-110052523D01*
X169956595Y-109862047D01*
X169956595Y-109671571D01*
X169861357Y-109481095D01*
X169670880Y-109385857D01*
X169194690Y-109385857D01*
X169004214Y-109290619D01*
X168051833Y-108814428D02*
X168051833Y-110147761D01*
X168051833Y-109004904D02*
X167956595Y-108909666D01*
X167766119Y-108814428D01*
X167480404Y-108814428D01*
X167289928Y-108909666D01*
X167194690Y-109100142D01*
X167194690Y-110147761D01*
X166337547Y-110052523D02*
X166147071Y-110147761D01*
X165766119Y-110147761D01*
X165575642Y-110052523D01*
X165480404Y-109862047D01*
X165480404Y-109766809D01*
X165575642Y-109576333D01*
X165766119Y-109481095D01*
X166051833Y-109481095D01*
X166242309Y-109385857D01*
X166337547Y-109195380D01*
X166337547Y-109100142D01*
X166242309Y-108909666D01*
X166051833Y-108814428D01*
X165766119Y-108814428D01*
X165575642Y-108909666D01*
X164623261Y-110147761D02*
X164623261Y-108147761D01*
X163766119Y-110147761D02*
X163766119Y-109100142D01*
X163861357Y-108909666D01*
X164051833Y-108814428D01*
X164337547Y-108814428D01*
X164528023Y-108909666D01*
X164623261Y-109004904D01*
X161956595Y-108814428D02*
X161956595Y-110147761D01*
X162813738Y-108814428D02*
X162813738Y-109862047D01*
X162718500Y-110052523D01*
X162528023Y-110147761D01*
X162242309Y-110147761D01*
X162051833Y-110052523D01*
X161956595Y-109957285D01*
X160242309Y-110052523D02*
X160432785Y-110147761D01*
X160813738Y-110147761D01*
X161004214Y-110052523D01*
X161099452Y-109862047D01*
X161099452Y-109100142D01*
X161004214Y-108909666D01*
X160813738Y-108814428D01*
X160432785Y-108814428D01*
X160242309Y-108909666D01*
X160147071Y-109100142D01*
X160147071Y-109290619D01*
X161099452Y-109481095D01*
X159289928Y-110147761D02*
X159289928Y-108147761D01*
X159289928Y-108909666D02*
X159099452Y-108814428D01*
X158718500Y-108814428D01*
X158528023Y-108909666D01*
X158432785Y-109004904D01*
X158337547Y-109195380D01*
X158337547Y-109766809D01*
X158432785Y-109957285D01*
X158528023Y-110052523D01*
X158718500Y-110147761D01*
X159099452Y-110147761D01*
X159289928Y-110052523D01*
X157480404Y-108814428D02*
X157480404Y-110147761D01*
X157480404Y-109004904D02*
X157385166Y-108909666D01*
X157194690Y-108814428D01*
X156908976Y-108814428D01*
X156718500Y-108909666D01*
X156623261Y-109100142D01*
X156623261Y-110147761D01*
X154908976Y-110052523D02*
X155099452Y-110147761D01*
X155480404Y-110147761D01*
X155670880Y-110052523D01*
X155766119Y-109862047D01*
X155766119Y-109100142D01*
X155670880Y-108909666D01*
X155480404Y-108814428D01*
X155099452Y-108814428D01*
X154908976Y-108909666D01*
X154813738Y-109100142D01*
X154813738Y-109290619D01*
X155766119Y-109481095D01*
X153956595Y-110147761D02*
X153956595Y-108814428D01*
X153956595Y-109195380D02*
X153861357Y-109004904D01*
X153766119Y-108909666D01*
X153575642Y-108814428D01*
X153385166Y-108814428D01*
X151289928Y-108052523D02*
X153004214Y-110623952D01*
X150623261Y-108814428D02*
X150623261Y-110814428D01*
X150623261Y-108909666D02*
X150432785Y-108814428D01*
X150051833Y-108814428D01*
X149861357Y-108909666D01*
X149766119Y-109004904D01*
X149670880Y-109195380D01*
X149670880Y-109766809D01*
X149766119Y-109957285D01*
X149861357Y-110052523D01*
X150051833Y-110147761D01*
X150432785Y-110147761D01*
X150623261Y-110052523D01*
X148908976Y-110052523D02*
X148718500Y-110147761D01*
X148337547Y-110147761D01*
X148147071Y-110052523D01*
X148051833Y-109862047D01*
X148051833Y-109766809D01*
X148147071Y-109576333D01*
X148337547Y-109481095D01*
X148623261Y-109481095D01*
X148813738Y-109385857D01*
X148908976Y-109195380D01*
X148908976Y-109100142D01*
X148813738Y-108909666D01*
X148623261Y-108814428D01*
X148337547Y-108814428D01*
X148147071Y-108909666D01*
X147289928Y-108338238D02*
X147194690Y-108243000D01*
X147004214Y-108147761D01*
X146528023Y-108147761D01*
X146337547Y-108243000D01*
X146242309Y-108338238D01*
X146147071Y-108528714D01*
X146147071Y-108719190D01*
X146242309Y-109004904D01*
X147385166Y-110147761D01*
X146147071Y-110147761D01*
X145480404Y-108814428D02*
X144432785Y-108814428D01*
X145480404Y-110147761D01*
X144432785Y-110147761D01*
X143861357Y-110147761D02*
X142813738Y-108814428D01*
X143861357Y-108814428D02*
X142813738Y-110147761D01*
M02*
