G04 #@! TF.GenerationSoftware,KiCad,Pcbnew,(5.1.5-0-10_14)*
G04 #@! TF.CreationDate,2020-06-06T08:29:19+02:00*
G04 #@! TF.ProjectId,ps2zx,7073327a-782e-46b6-9963-61645f706362,rev?*
G04 #@! TF.SameCoordinates,Original*
G04 #@! TF.FileFunction,Copper,L2,Bot*
G04 #@! TF.FilePolarity,Positive*
%FSLAX46Y46*%
G04 Gerber Fmt 4.6, Leading zero omitted, Abs format (unit mm)*
G04 Created by KiCad (PCBNEW (5.1.5-0-10_14)) date 2020-06-06 08:29:19*
%MOMM*%
%LPD*%
G04 APERTURE LIST*
%ADD10C,1.500000*%
%ADD11O,1.700000X1.700000*%
%ADD12R,1.700000X1.700000*%
%ADD13O,4.000000X2.000000*%
%ADD14C,1.600000*%
%ADD15R,1.600000X1.600000*%
%ADD16O,2.000000X3.500000*%
%ADD17C,0.800000*%
%ADD18C,0.508000*%
%ADD19C,0.127000*%
%ADD20C,0.254000*%
G04 APERTURE END LIST*
D10*
X149352000Y-95196000D03*
X149352000Y-100076000D03*
D11*
X139700000Y-111760000D03*
X139700000Y-109220000D03*
X139700000Y-106680000D03*
D12*
X139700000Y-104140000D03*
D11*
X177457100Y-108165900D03*
X174917100Y-108165900D03*
X177457100Y-105625900D03*
X174917100Y-105625900D03*
X177457100Y-103085900D03*
X174917100Y-103085900D03*
X177457100Y-100545900D03*
X174917100Y-100545900D03*
X177457100Y-98005900D03*
D12*
X174917100Y-98005900D03*
D13*
X164562000Y-120490000D03*
D14*
X161162000Y-114040000D03*
X167962000Y-114040000D03*
X161162000Y-116840000D03*
X167962000Y-116840000D03*
X163262000Y-116840000D03*
D15*
X165862000Y-116840000D03*
D16*
X171412000Y-119690000D03*
X157712000Y-119690000D03*
D11*
X165100000Y-88900000D03*
X162560000Y-88900000D03*
X160020000Y-88900000D03*
X157480000Y-88900000D03*
X154940000Y-88900000D03*
X152400000Y-88900000D03*
X149860000Y-88900000D03*
D12*
X147320000Y-88900000D03*
D11*
X182880000Y-88900000D03*
X180340000Y-88900000D03*
X177800000Y-88900000D03*
X175260000Y-88900000D03*
D12*
X172720000Y-88900000D03*
D17*
X161916000Y-108254800D03*
X162490281Y-98808716D03*
X161721800Y-104775000D03*
X165608000Y-100584000D03*
X163966000Y-108254800D03*
X164134800Y-98878802D03*
X164084000Y-104711500D03*
X163930767Y-111902292D03*
X177419000Y-111760000D03*
X151892000Y-107188000D03*
X151892000Y-111905990D03*
X166867820Y-102150205D03*
X165849300Y-102971600D03*
X159524700Y-104603802D03*
X174320200Y-92290900D03*
X162148606Y-109913906D03*
X158280100Y-103771700D03*
X158292800Y-110074000D03*
X173002500Y-108889800D03*
X173050200Y-98082100D03*
X164846000Y-102933500D03*
X158259080Y-102171390D03*
X158267400Y-91084400D03*
X161062000Y-101669338D03*
X160784717Y-100708548D03*
X160584476Y-99728801D03*
X159473900Y-98853798D03*
X165798000Y-98722886D03*
X165483500Y-92989400D03*
X166619002Y-97332800D03*
X166461500Y-93847597D03*
X169219573Y-103830847D03*
X169341800Y-94284800D03*
X170546573Y-99603715D03*
X170796328Y-95558623D03*
X154801884Y-95814731D03*
X155471098Y-94487731D03*
X169883073Y-100469700D03*
X169883073Y-95151231D03*
X142151100Y-110906000D03*
X166525500Y-110906000D03*
X166525500Y-104578798D03*
X171335700Y-98958400D03*
X171132500Y-110737500D03*
X141122400Y-110439200D03*
X172339000Y-105981500D03*
X172326300Y-109867700D03*
X182079900Y-104597200D03*
X183553200Y-98829300D03*
X176161700Y-107137200D03*
D18*
X161789000Y-104707800D02*
X161721800Y-104775000D01*
X161916000Y-104707800D02*
X161789000Y-104707800D01*
X161916000Y-108254800D02*
X161916000Y-104707800D01*
X162490281Y-104006519D02*
X161721800Y-104775000D01*
X162490281Y-98808716D02*
X162490281Y-104006519D01*
X163966000Y-99047602D02*
X164134800Y-98878802D01*
X163966000Y-104657000D02*
X164029500Y-104657000D01*
X164029500Y-104657000D02*
X164084000Y-104711500D01*
X163966000Y-108254800D02*
X163966000Y-104657000D01*
X163966000Y-104657000D02*
X163966000Y-99047602D01*
X177457100Y-100545900D02*
X177457100Y-103085900D01*
X177457100Y-103085900D02*
X177457100Y-105625900D01*
X177457100Y-105625900D02*
X177457100Y-108165900D01*
X163966000Y-111867059D02*
X163930767Y-111902292D01*
X163966000Y-108254800D02*
X163966000Y-111867059D01*
X177457100Y-111721900D02*
X177419000Y-111760000D01*
X177457100Y-108165900D02*
X177457100Y-111721900D01*
X151892000Y-107188000D02*
X151892000Y-111905990D01*
D19*
X167962000Y-103244385D02*
X166867820Y-102150205D01*
X167962000Y-114040000D02*
X167962000Y-103244385D01*
X165862000Y-102984300D02*
X165849300Y-102971600D01*
X165862000Y-116840000D02*
X165862000Y-102984300D01*
X159524700Y-104603802D02*
X159524700Y-110061300D01*
X173803599Y-107052399D02*
X173803599Y-92769401D01*
X174917100Y-108165900D02*
X173803599Y-107052399D01*
X174301150Y-92271850D02*
X174320200Y-92290900D01*
X173803599Y-92769401D02*
X174301150Y-92271850D01*
X174301150Y-92271850D02*
X174447200Y-92125800D01*
X161435527Y-110061300D02*
X159524700Y-110061300D01*
X161582921Y-109913906D02*
X161435527Y-110061300D01*
X162148606Y-109913906D02*
X161582921Y-109913906D01*
X180340000Y-88900000D02*
X177406300Y-91833700D01*
X177406300Y-91833700D02*
X176339500Y-91833700D01*
X174917100Y-93256100D02*
X174917100Y-98005900D01*
X176339500Y-91833700D02*
X174917100Y-93256100D01*
X158280100Y-110061300D02*
X158292800Y-110074000D01*
X158280100Y-103771700D02*
X158280100Y-110061300D01*
X173002500Y-98129800D02*
X173050200Y-98082100D01*
X173002500Y-108889800D02*
X173002500Y-98129800D01*
X164820600Y-102908100D02*
X164846000Y-102933500D01*
X164820600Y-102298500D02*
X164820600Y-102908100D01*
X177800000Y-88900000D02*
X175161590Y-91538410D01*
X165863990Y-91538410D02*
X164820000Y-92582400D01*
X164820000Y-102297900D02*
X164820600Y-102298500D01*
X175161590Y-91538410D02*
X165863990Y-91538410D01*
X164820000Y-92582400D02*
X164820000Y-102297900D01*
X158259080Y-91092720D02*
X158267400Y-91084400D01*
X158259080Y-102171390D02*
X158259080Y-91092720D01*
X161826780Y-100904558D02*
X161826780Y-92998720D01*
X161062000Y-101669338D02*
X161826780Y-100904558D01*
X161826780Y-92998720D02*
X163614100Y-91211400D01*
X172720000Y-89877000D02*
X172720000Y-88900000D01*
X171385600Y-91211400D02*
X172720000Y-89877000D01*
X163614100Y-91211400D02*
X171385600Y-91211400D01*
X164250001Y-89749999D02*
X165100000Y-88900000D01*
X161247977Y-100245288D02*
X161247977Y-92752023D01*
X161247977Y-92752023D02*
X164250001Y-89749999D01*
X160784717Y-100708548D02*
X161247977Y-100245288D01*
X160584476Y-90875524D02*
X162560000Y-88900000D01*
X160584476Y-99728801D02*
X160584476Y-90875524D01*
X160020000Y-98307698D02*
X160020000Y-88900000D01*
X159473900Y-98853798D02*
X160020000Y-98307698D01*
X165798000Y-93303900D02*
X165483500Y-92989400D01*
X165798000Y-98722886D02*
X165798000Y-93303900D01*
X166619002Y-94005099D02*
X166461500Y-93847597D01*
X166619002Y-97332800D02*
X166619002Y-94005099D01*
X169219573Y-94407027D02*
X169341800Y-94284800D01*
X169219573Y-103830847D02*
X169219573Y-94407027D01*
X170546573Y-95808378D02*
X170796328Y-95558623D01*
X170546573Y-99603715D02*
X170546573Y-95808378D01*
X155471098Y-95145517D02*
X155471098Y-94487731D01*
X154801884Y-95814731D02*
X155471098Y-95145517D01*
X169883073Y-100469700D02*
X169883073Y-95151231D01*
X140803919Y-111102701D02*
X141954399Y-111102701D01*
X141954399Y-111102701D02*
X142151100Y-110906000D01*
X138586499Y-107793501D02*
X138586499Y-109754481D01*
X140034719Y-110333501D02*
X140803919Y-111102701D01*
X138586499Y-109754481D02*
X139165519Y-110333501D01*
X139165519Y-110333501D02*
X140034719Y-110333501D01*
X139700000Y-106680000D02*
X138586499Y-107793501D01*
X166525500Y-110906000D02*
X166525500Y-104578798D01*
X171335700Y-110534300D02*
X171132500Y-110737500D01*
X171335700Y-98958400D02*
X171335700Y-110534300D01*
X140677000Y-104140000D02*
X139700000Y-104140000D01*
X141122400Y-104585400D02*
X140677000Y-104140000D01*
X141122400Y-110439200D02*
X141122400Y-104585400D01*
X172339000Y-109855000D02*
X172326300Y-109867700D01*
X172339000Y-105981500D02*
X172339000Y-109855000D01*
X183553200Y-103123900D02*
X183553200Y-98829300D01*
X182079900Y-104597200D02*
X183553200Y-103123900D01*
X174917100Y-105892600D02*
X174917100Y-105625900D01*
X176161700Y-107137200D02*
X174917100Y-105892600D01*
D20*
G36*
X187325000Y-91948000D02*
G01*
X187327440Y-91972776D01*
X187334667Y-91996601D01*
X187346403Y-92018557D01*
X187362197Y-92037803D01*
X187381443Y-92053597D01*
X187403399Y-92065333D01*
X187427224Y-92072560D01*
X187452000Y-92075000D01*
X192380001Y-92075000D01*
X192380000Y-118745000D01*
X187452000Y-118745000D01*
X187427224Y-118747440D01*
X187403399Y-118754667D01*
X187381443Y-118766403D01*
X187362197Y-118782197D01*
X187346403Y-118801443D01*
X187334667Y-118823399D01*
X187327440Y-118847224D01*
X187325000Y-118872000D01*
X187325000Y-123800000D01*
X142875000Y-123800000D01*
X142875000Y-119817000D01*
X156077000Y-119817000D01*
X156077000Y-120567000D01*
X156133193Y-120883532D01*
X156250058Y-121183020D01*
X156423105Y-121453954D01*
X156645683Y-121685922D01*
X156909239Y-121870010D01*
X157203645Y-121999144D01*
X157331566Y-122030124D01*
X157585000Y-121910777D01*
X157585000Y-119817000D01*
X157839000Y-119817000D01*
X157839000Y-121910777D01*
X158092434Y-122030124D01*
X158220355Y-121999144D01*
X158514761Y-121870010D01*
X158778317Y-121685922D01*
X159000895Y-121453954D01*
X159173942Y-121183020D01*
X159290807Y-120883532D01*
X159293132Y-120870434D01*
X161971876Y-120870434D01*
X162002856Y-120998355D01*
X162131990Y-121292761D01*
X162316078Y-121556317D01*
X162548046Y-121778895D01*
X162818980Y-121951942D01*
X163118468Y-122068807D01*
X163435000Y-122125000D01*
X164435000Y-122125000D01*
X164435000Y-120617000D01*
X164689000Y-120617000D01*
X164689000Y-122125000D01*
X165689000Y-122125000D01*
X166005532Y-122068807D01*
X166305020Y-121951942D01*
X166575954Y-121778895D01*
X166807922Y-121556317D01*
X166992010Y-121292761D01*
X167121144Y-120998355D01*
X167152124Y-120870434D01*
X167032777Y-120617000D01*
X164689000Y-120617000D01*
X164435000Y-120617000D01*
X162091223Y-120617000D01*
X161971876Y-120870434D01*
X159293132Y-120870434D01*
X159347000Y-120567000D01*
X159347000Y-120109566D01*
X161971876Y-120109566D01*
X162091223Y-120363000D01*
X164435000Y-120363000D01*
X164435000Y-118855000D01*
X164689000Y-118855000D01*
X164689000Y-120363000D01*
X167032777Y-120363000D01*
X167152124Y-120109566D01*
X167121144Y-119981645D01*
X167048927Y-119817000D01*
X169777000Y-119817000D01*
X169777000Y-120567000D01*
X169833193Y-120883532D01*
X169950058Y-121183020D01*
X170123105Y-121453954D01*
X170345683Y-121685922D01*
X170609239Y-121870010D01*
X170903645Y-121999144D01*
X171031566Y-122030124D01*
X171285000Y-121910777D01*
X171285000Y-119817000D01*
X171539000Y-119817000D01*
X171539000Y-121910777D01*
X171792434Y-122030124D01*
X171920355Y-121999144D01*
X172214761Y-121870010D01*
X172478317Y-121685922D01*
X172700895Y-121453954D01*
X172873942Y-121183020D01*
X172990807Y-120883532D01*
X173047000Y-120567000D01*
X173047000Y-119817000D01*
X171539000Y-119817000D01*
X171285000Y-119817000D01*
X169777000Y-119817000D01*
X167048927Y-119817000D01*
X166992010Y-119687239D01*
X166807922Y-119423683D01*
X166575954Y-119201105D01*
X166305020Y-119028058D01*
X166005532Y-118911193D01*
X165689000Y-118855000D01*
X164689000Y-118855000D01*
X164435000Y-118855000D01*
X163435000Y-118855000D01*
X163118468Y-118911193D01*
X162818980Y-119028058D01*
X162548046Y-119201105D01*
X162316078Y-119423683D01*
X162131990Y-119687239D01*
X162002856Y-119981645D01*
X161971876Y-120109566D01*
X159347000Y-120109566D01*
X159347000Y-119817000D01*
X157839000Y-119817000D01*
X157585000Y-119817000D01*
X156077000Y-119817000D01*
X142875000Y-119817000D01*
X142875000Y-118872000D01*
X142872560Y-118847224D01*
X142865333Y-118823399D01*
X142859775Y-118813000D01*
X156077000Y-118813000D01*
X156077000Y-119563000D01*
X157585000Y-119563000D01*
X157585000Y-117469223D01*
X157839000Y-117469223D01*
X157839000Y-119563000D01*
X159347000Y-119563000D01*
X159347000Y-118813000D01*
X169777000Y-118813000D01*
X169777000Y-119563000D01*
X171285000Y-119563000D01*
X171285000Y-117469223D01*
X171539000Y-117469223D01*
X171539000Y-119563000D01*
X173047000Y-119563000D01*
X173047000Y-118813000D01*
X172990807Y-118496468D01*
X172873942Y-118196980D01*
X172700895Y-117926046D01*
X172478317Y-117694078D01*
X172214761Y-117509990D01*
X171920355Y-117380856D01*
X171792434Y-117349876D01*
X171539000Y-117469223D01*
X171285000Y-117469223D01*
X171031566Y-117349876D01*
X170903645Y-117380856D01*
X170609239Y-117509990D01*
X170345683Y-117694078D01*
X170123105Y-117926046D01*
X169950058Y-118196980D01*
X169833193Y-118496468D01*
X169777000Y-118813000D01*
X159347000Y-118813000D01*
X159290807Y-118496468D01*
X159173942Y-118196980D01*
X159000895Y-117926046D01*
X158778317Y-117694078D01*
X158514761Y-117509990D01*
X158220355Y-117380856D01*
X158092434Y-117349876D01*
X157839000Y-117469223D01*
X157585000Y-117469223D01*
X157331566Y-117349876D01*
X157203645Y-117380856D01*
X156909239Y-117509990D01*
X156645683Y-117694078D01*
X156423105Y-117926046D01*
X156250058Y-118196980D01*
X156133193Y-118496468D01*
X156077000Y-118813000D01*
X142859775Y-118813000D01*
X142853597Y-118801443D01*
X142837803Y-118782197D01*
X142818557Y-118766403D01*
X142796601Y-118754667D01*
X142772776Y-118747440D01*
X142748000Y-118745000D01*
X137820000Y-118745000D01*
X137820000Y-112116890D01*
X138258524Y-112116890D01*
X138303175Y-112264099D01*
X138428359Y-112526920D01*
X138602412Y-112760269D01*
X138818645Y-112955178D01*
X139068748Y-113104157D01*
X139343109Y-113201481D01*
X139573000Y-113080814D01*
X139573000Y-111887000D01*
X138379845Y-111887000D01*
X138258524Y-112116890D01*
X137820000Y-112116890D01*
X137820000Y-107793501D01*
X137884621Y-107793501D01*
X137887999Y-107827800D01*
X137888000Y-109720173D01*
X137884621Y-109754481D01*
X137888000Y-109788789D01*
X137888000Y-109788790D01*
X137898107Y-109891411D01*
X137908236Y-109924800D01*
X137938048Y-110023079D01*
X138002908Y-110144424D01*
X138068325Y-110224134D01*
X138068329Y-110224138D01*
X138090197Y-110250784D01*
X138116842Y-110272651D01*
X138603206Y-110759016D01*
X138602412Y-110759731D01*
X138428359Y-110993080D01*
X138303175Y-111255901D01*
X138258524Y-111403110D01*
X138379845Y-111633000D01*
X139573000Y-111633000D01*
X139573000Y-111613000D01*
X139827000Y-111613000D01*
X139827000Y-111633000D01*
X139847000Y-111633000D01*
X139847000Y-111887000D01*
X139827000Y-111887000D01*
X139827000Y-113080814D01*
X140056891Y-113201481D01*
X140331252Y-113104157D01*
X140581355Y-112955178D01*
X140797588Y-112760269D01*
X140971641Y-112526920D01*
X141096825Y-112264099D01*
X141141476Y-112116890D01*
X141020156Y-111887002D01*
X141185000Y-111887002D01*
X141185000Y-111801201D01*
X141627913Y-111801201D01*
X141660844Y-111823205D01*
X141849202Y-111901226D01*
X142049161Y-111941000D01*
X142253039Y-111941000D01*
X142452998Y-111901226D01*
X142641356Y-111823205D01*
X142810874Y-111709937D01*
X142955037Y-111565774D01*
X143068305Y-111396256D01*
X143146326Y-111207898D01*
X143186100Y-111007939D01*
X143186100Y-110804061D01*
X143146326Y-110604102D01*
X143068305Y-110415744D01*
X142955037Y-110246226D01*
X142810874Y-110102063D01*
X142641356Y-109988795D01*
X142452998Y-109910774D01*
X142253039Y-109871000D01*
X142049161Y-109871000D01*
X141994756Y-109881822D01*
X141926337Y-109779426D01*
X141820900Y-109673989D01*
X141820900Y-104619698D01*
X141824278Y-104585400D01*
X141820900Y-104551102D01*
X141820900Y-104551091D01*
X141810793Y-104448470D01*
X141770852Y-104316803D01*
X141719532Y-104220790D01*
X141705991Y-104195456D01*
X141640574Y-104115747D01*
X141618703Y-104089097D01*
X141592052Y-104067225D01*
X141195175Y-103670348D01*
X141188072Y-103661693D01*
X141188072Y-103290000D01*
X141175812Y-103165518D01*
X141139502Y-103045820D01*
X141080537Y-102935506D01*
X141001185Y-102838815D01*
X140904494Y-102759463D01*
X140794180Y-102700498D01*
X140674482Y-102664188D01*
X140550000Y-102651928D01*
X138850000Y-102651928D01*
X138725518Y-102664188D01*
X138605820Y-102700498D01*
X138495506Y-102759463D01*
X138398815Y-102838815D01*
X138319463Y-102935506D01*
X138260498Y-103045820D01*
X138224188Y-103165518D01*
X138211928Y-103290000D01*
X138211928Y-104990000D01*
X138224188Y-105114482D01*
X138260498Y-105234180D01*
X138319463Y-105344494D01*
X138398815Y-105441185D01*
X138495506Y-105520537D01*
X138605820Y-105579502D01*
X138678380Y-105601513D01*
X138546525Y-105733368D01*
X138384010Y-105976589D01*
X138272068Y-106246842D01*
X138215000Y-106533740D01*
X138215000Y-106826260D01*
X138272068Y-107113158D01*
X138274103Y-107118070D01*
X138116843Y-107275330D01*
X138090196Y-107297199D01*
X138068328Y-107323845D01*
X138068325Y-107323848D01*
X138002908Y-107403558D01*
X137982178Y-107442342D01*
X137938047Y-107524905D01*
X137898106Y-107656572D01*
X137887999Y-107759193D01*
X137887999Y-107759203D01*
X137884621Y-107793501D01*
X137820000Y-107793501D01*
X137820000Y-99939589D01*
X147967000Y-99939589D01*
X147967000Y-100212411D01*
X148020225Y-100479989D01*
X148124629Y-100732043D01*
X148276201Y-100958886D01*
X148469114Y-101151799D01*
X148695957Y-101303371D01*
X148948011Y-101407775D01*
X149215589Y-101461000D01*
X149488411Y-101461000D01*
X149755989Y-101407775D01*
X150008043Y-101303371D01*
X150234886Y-101151799D01*
X150427799Y-100958886D01*
X150579371Y-100732043D01*
X150683775Y-100479989D01*
X150737000Y-100212411D01*
X150737000Y-99939589D01*
X150683775Y-99672011D01*
X150579371Y-99419957D01*
X150427799Y-99193114D01*
X150234886Y-99000201D01*
X150008043Y-98848629D01*
X149755989Y-98744225D01*
X149488411Y-98691000D01*
X149215589Y-98691000D01*
X148948011Y-98744225D01*
X148695957Y-98848629D01*
X148469114Y-99000201D01*
X148276201Y-99193114D01*
X148124629Y-99419957D01*
X148020225Y-99672011D01*
X147967000Y-99939589D01*
X137820000Y-99939589D01*
X137820000Y-95059589D01*
X147967000Y-95059589D01*
X147967000Y-95332411D01*
X148020225Y-95599989D01*
X148124629Y-95852043D01*
X148276201Y-96078886D01*
X148469114Y-96271799D01*
X148695957Y-96423371D01*
X148948011Y-96527775D01*
X149215589Y-96581000D01*
X149488411Y-96581000D01*
X149755989Y-96527775D01*
X150008043Y-96423371D01*
X150234886Y-96271799D01*
X150427799Y-96078886D01*
X150579371Y-95852043D01*
X150637050Y-95712792D01*
X153766884Y-95712792D01*
X153766884Y-95916670D01*
X153806658Y-96116629D01*
X153884679Y-96304987D01*
X153997947Y-96474505D01*
X154142110Y-96618668D01*
X154311628Y-96731936D01*
X154499986Y-96809957D01*
X154699945Y-96849731D01*
X154903823Y-96849731D01*
X155103782Y-96809957D01*
X155292140Y-96731936D01*
X155461658Y-96618668D01*
X155605821Y-96474505D01*
X155719089Y-96304987D01*
X155797110Y-96116629D01*
X155836884Y-95916670D01*
X155836884Y-95767559D01*
X155940759Y-95663684D01*
X155967400Y-95641820D01*
X155989265Y-95615178D01*
X155989272Y-95615171D01*
X156054689Y-95535460D01*
X156066783Y-95512833D01*
X156119550Y-95414114D01*
X156159491Y-95282447D01*
X156161610Y-95260930D01*
X156275035Y-95147505D01*
X156388303Y-94977987D01*
X156466324Y-94789629D01*
X156506098Y-94589670D01*
X156506098Y-94385792D01*
X156466324Y-94185833D01*
X156388303Y-93997475D01*
X156275035Y-93827957D01*
X156130872Y-93683794D01*
X155961354Y-93570526D01*
X155772996Y-93492505D01*
X155573037Y-93452731D01*
X155369159Y-93452731D01*
X155169200Y-93492505D01*
X154980842Y-93570526D01*
X154811324Y-93683794D01*
X154667161Y-93827957D01*
X154553893Y-93997475D01*
X154475872Y-94185833D01*
X154436098Y-94385792D01*
X154436098Y-94589670D01*
X154475872Y-94789629D01*
X154489966Y-94823655D01*
X154311628Y-94897526D01*
X154142110Y-95010794D01*
X153997947Y-95154957D01*
X153884679Y-95324475D01*
X153806658Y-95512833D01*
X153766884Y-95712792D01*
X150637050Y-95712792D01*
X150683775Y-95599989D01*
X150737000Y-95332411D01*
X150737000Y-95059589D01*
X150683775Y-94792011D01*
X150579371Y-94539957D01*
X150427799Y-94313114D01*
X150234886Y-94120201D01*
X150008043Y-93968629D01*
X149755989Y-93864225D01*
X149488411Y-93811000D01*
X149215589Y-93811000D01*
X148948011Y-93864225D01*
X148695957Y-93968629D01*
X148469114Y-94120201D01*
X148276201Y-94313114D01*
X148124629Y-94539957D01*
X148020225Y-94792011D01*
X147967000Y-95059589D01*
X137820000Y-95059589D01*
X137820000Y-92075000D01*
X142748000Y-92075000D01*
X142772776Y-92072560D01*
X142796601Y-92065333D01*
X142818557Y-92053597D01*
X142837803Y-92037803D01*
X142853597Y-92018557D01*
X142865333Y-91996601D01*
X142872560Y-91972776D01*
X142875000Y-91948000D01*
X142875000Y-88050000D01*
X145831928Y-88050000D01*
X145831928Y-89750000D01*
X145844188Y-89874482D01*
X145880498Y-89994180D01*
X145939463Y-90104494D01*
X146018815Y-90201185D01*
X146115506Y-90280537D01*
X146225820Y-90339502D01*
X146345518Y-90375812D01*
X146470000Y-90388072D01*
X148170000Y-90388072D01*
X148294482Y-90375812D01*
X148414180Y-90339502D01*
X148524494Y-90280537D01*
X148621185Y-90201185D01*
X148700537Y-90104494D01*
X148759502Y-89994180D01*
X148781513Y-89921620D01*
X148913368Y-90053475D01*
X149156589Y-90215990D01*
X149426842Y-90327932D01*
X149713740Y-90385000D01*
X150006260Y-90385000D01*
X150293158Y-90327932D01*
X150563411Y-90215990D01*
X150806632Y-90053475D01*
X151013475Y-89846632D01*
X151130000Y-89672240D01*
X151246525Y-89846632D01*
X151453368Y-90053475D01*
X151696589Y-90215990D01*
X151966842Y-90327932D01*
X152253740Y-90385000D01*
X152546260Y-90385000D01*
X152833158Y-90327932D01*
X153103411Y-90215990D01*
X153346632Y-90053475D01*
X153553475Y-89846632D01*
X153670000Y-89672240D01*
X153786525Y-89846632D01*
X153993368Y-90053475D01*
X154236589Y-90215990D01*
X154506842Y-90327932D01*
X154793740Y-90385000D01*
X155086260Y-90385000D01*
X155373158Y-90327932D01*
X155643411Y-90215990D01*
X155886632Y-90053475D01*
X156093475Y-89846632D01*
X156210000Y-89672240D01*
X156326525Y-89846632D01*
X156533368Y-90053475D01*
X156776589Y-90215990D01*
X157046842Y-90327932D01*
X157333740Y-90385000D01*
X157503089Y-90385000D01*
X157463463Y-90424626D01*
X157350195Y-90594144D01*
X157272174Y-90782502D01*
X157232400Y-90982461D01*
X157232400Y-91186339D01*
X157272174Y-91386298D01*
X157350195Y-91574656D01*
X157463463Y-91744174D01*
X157560581Y-91841292D01*
X157560580Y-101406179D01*
X157455143Y-101511616D01*
X157341875Y-101681134D01*
X157263854Y-101869492D01*
X157224080Y-102069451D01*
X157224080Y-102273329D01*
X157263854Y-102473288D01*
X157341875Y-102661646D01*
X157455143Y-102831164D01*
X157599306Y-102975327D01*
X157607372Y-102980717D01*
X157476163Y-103111926D01*
X157362895Y-103281444D01*
X157284874Y-103469802D01*
X157245100Y-103669761D01*
X157245100Y-103873639D01*
X157284874Y-104073598D01*
X157362895Y-104261956D01*
X157476163Y-104431474D01*
X157581600Y-104536911D01*
X157581601Y-109321488D01*
X157488863Y-109414226D01*
X157375595Y-109583744D01*
X157297574Y-109772102D01*
X157257800Y-109972061D01*
X157257800Y-110175939D01*
X157297574Y-110375898D01*
X157375595Y-110564256D01*
X157488863Y-110733774D01*
X157633026Y-110877937D01*
X157802544Y-110991205D01*
X157990902Y-111069226D01*
X158190861Y-111109000D01*
X158394739Y-111109000D01*
X158594698Y-111069226D01*
X158783056Y-110991205D01*
X158952574Y-110877937D01*
X159096737Y-110733774D01*
X159150503Y-110653307D01*
X159256103Y-110709752D01*
X159387770Y-110749693D01*
X159490391Y-110759800D01*
X159490392Y-110759800D01*
X159524700Y-110763179D01*
X159559009Y-110759800D01*
X161401229Y-110759800D01*
X161435527Y-110763178D01*
X161469825Y-110759800D01*
X161469836Y-110759800D01*
X161541118Y-110752780D01*
X161658350Y-110831111D01*
X161846708Y-110909132D01*
X162046667Y-110948906D01*
X162250545Y-110948906D01*
X162450504Y-110909132D01*
X162638862Y-110831111D01*
X162808380Y-110717843D01*
X162952543Y-110573680D01*
X163065811Y-110404162D01*
X163143832Y-110215804D01*
X163183606Y-110015845D01*
X163183606Y-109811967D01*
X163143832Y-109612008D01*
X163065811Y-109423650D01*
X162952543Y-109254132D01*
X162808380Y-109109969D01*
X162638862Y-108996701D01*
X162638118Y-108996393D01*
X162719937Y-108914574D01*
X162833205Y-108745056D01*
X162911226Y-108556698D01*
X162951000Y-108356739D01*
X162951000Y-108152861D01*
X162911226Y-107952902D01*
X162833205Y-107764544D01*
X162805000Y-107722332D01*
X162805000Y-104949035D01*
X163088017Y-104666018D01*
X163121940Y-104638178D01*
X163233034Y-104502810D01*
X163315584Y-104348370D01*
X163348647Y-104239375D01*
X163366417Y-104180795D01*
X163371661Y-104127547D01*
X163379281Y-104050186D01*
X163379281Y-104050180D01*
X163383581Y-104006520D01*
X163379281Y-103962860D01*
X163379281Y-99341184D01*
X163407486Y-99298972D01*
X163485507Y-99110614D01*
X163525281Y-98910655D01*
X163525281Y-98706777D01*
X163485507Y-98506818D01*
X163407486Y-98318460D01*
X163294218Y-98148942D01*
X163150055Y-98004779D01*
X162980537Y-97891511D01*
X162792179Y-97813490D01*
X162592220Y-97773716D01*
X162525280Y-97773716D01*
X162525280Y-93288047D01*
X163903429Y-91909900D01*
X164504673Y-91909900D01*
X164350344Y-92064229D01*
X164323697Y-92086098D01*
X164301829Y-92112744D01*
X164301826Y-92112747D01*
X164236409Y-92192457D01*
X164171549Y-92313802D01*
X164171548Y-92313804D01*
X164131607Y-92445471D01*
X164121500Y-92548092D01*
X164121500Y-92548102D01*
X164118122Y-92582400D01*
X164121500Y-92616698D01*
X164121501Y-102194288D01*
X164042063Y-102273726D01*
X163928795Y-102443244D01*
X163850774Y-102631602D01*
X163811000Y-102831561D01*
X163811000Y-103035439D01*
X163850774Y-103235398D01*
X163928795Y-103423756D01*
X164042063Y-103593274D01*
X164186226Y-103737437D01*
X164355744Y-103850705D01*
X164544102Y-103928726D01*
X164744061Y-103968500D01*
X164947939Y-103968500D01*
X165147898Y-103928726D01*
X165163501Y-103922263D01*
X165163500Y-115401928D01*
X165062000Y-115401928D01*
X164937518Y-115414188D01*
X164817820Y-115450498D01*
X164707506Y-115509463D01*
X164610815Y-115588815D01*
X164531463Y-115685506D01*
X164472498Y-115795820D01*
X164436188Y-115915518D01*
X164427703Y-116001667D01*
X164376637Y-115925241D01*
X164176759Y-115725363D01*
X163941727Y-115568320D01*
X163680574Y-115460147D01*
X163403335Y-115405000D01*
X163120665Y-115405000D01*
X162843426Y-115460147D01*
X162582273Y-115568320D01*
X162347241Y-115725363D01*
X162212000Y-115860604D01*
X162076759Y-115725363D01*
X161841727Y-115568320D01*
X161580574Y-115460147D01*
X161479290Y-115440000D01*
X161580574Y-115419853D01*
X161841727Y-115311680D01*
X162076759Y-115154637D01*
X162276637Y-114954759D01*
X162433680Y-114719727D01*
X162541853Y-114458574D01*
X162597000Y-114181335D01*
X162597000Y-113898665D01*
X162541853Y-113621426D01*
X162433680Y-113360273D01*
X162276637Y-113125241D01*
X162076759Y-112925363D01*
X161841727Y-112768320D01*
X161580574Y-112660147D01*
X161303335Y-112605000D01*
X161020665Y-112605000D01*
X160743426Y-112660147D01*
X160482273Y-112768320D01*
X160247241Y-112925363D01*
X160047363Y-113125241D01*
X159890320Y-113360273D01*
X159782147Y-113621426D01*
X159727000Y-113898665D01*
X159727000Y-114181335D01*
X159782147Y-114458574D01*
X159890320Y-114719727D01*
X160047363Y-114954759D01*
X160247241Y-115154637D01*
X160482273Y-115311680D01*
X160743426Y-115419853D01*
X160844710Y-115440000D01*
X160743426Y-115460147D01*
X160482273Y-115568320D01*
X160247241Y-115725363D01*
X160047363Y-115925241D01*
X159890320Y-116160273D01*
X159782147Y-116421426D01*
X159727000Y-116698665D01*
X159727000Y-116981335D01*
X159782147Y-117258574D01*
X159890320Y-117519727D01*
X160047363Y-117754759D01*
X160247241Y-117954637D01*
X160482273Y-118111680D01*
X160743426Y-118219853D01*
X161020665Y-118275000D01*
X161303335Y-118275000D01*
X161580574Y-118219853D01*
X161841727Y-118111680D01*
X162076759Y-117954637D01*
X162212000Y-117819396D01*
X162347241Y-117954637D01*
X162582273Y-118111680D01*
X162843426Y-118219853D01*
X163120665Y-118275000D01*
X163403335Y-118275000D01*
X163680574Y-118219853D01*
X163941727Y-118111680D01*
X164176759Y-117954637D01*
X164376637Y-117754759D01*
X164427703Y-117678333D01*
X164436188Y-117764482D01*
X164472498Y-117884180D01*
X164531463Y-117994494D01*
X164610815Y-118091185D01*
X164707506Y-118170537D01*
X164817820Y-118229502D01*
X164937518Y-118265812D01*
X165062000Y-118278072D01*
X166662000Y-118278072D01*
X166786482Y-118265812D01*
X166906180Y-118229502D01*
X167016494Y-118170537D01*
X167113185Y-118091185D01*
X167192537Y-117994494D01*
X167195014Y-117989859D01*
X167220486Y-118076671D01*
X167475996Y-118197571D01*
X167750184Y-118266300D01*
X168032512Y-118280217D01*
X168312130Y-118238787D01*
X168578292Y-118143603D01*
X168703514Y-118076671D01*
X168775097Y-117832702D01*
X167962000Y-117019605D01*
X167947858Y-117033748D01*
X167768253Y-116854143D01*
X167782395Y-116840000D01*
X168141605Y-116840000D01*
X168954702Y-117653097D01*
X169198671Y-117581514D01*
X169319571Y-117326004D01*
X169388300Y-117051816D01*
X169402217Y-116769488D01*
X169360787Y-116489870D01*
X169265603Y-116223708D01*
X169198671Y-116098486D01*
X168954702Y-116026903D01*
X168141605Y-116840000D01*
X167782395Y-116840000D01*
X167768253Y-116825858D01*
X167947858Y-116646253D01*
X167962000Y-116660395D01*
X168775097Y-115847298D01*
X168703514Y-115603329D01*
X168448004Y-115482429D01*
X168278982Y-115440061D01*
X168380574Y-115419853D01*
X168641727Y-115311680D01*
X168876759Y-115154637D01*
X169076637Y-114954759D01*
X169233680Y-114719727D01*
X169341853Y-114458574D01*
X169397000Y-114181335D01*
X169397000Y-113898665D01*
X169341853Y-113621426D01*
X169233680Y-113360273D01*
X169076637Y-113125241D01*
X168876759Y-112925363D01*
X168660500Y-112780864D01*
X168660500Y-104702070D01*
X168729317Y-104748052D01*
X168917675Y-104826073D01*
X169117634Y-104865847D01*
X169321512Y-104865847D01*
X169521471Y-104826073D01*
X169709829Y-104748052D01*
X169879347Y-104634784D01*
X170023510Y-104490621D01*
X170136778Y-104321103D01*
X170214799Y-104132745D01*
X170254573Y-103932786D01*
X170254573Y-103728908D01*
X170214799Y-103528949D01*
X170136778Y-103340591D01*
X170023510Y-103171073D01*
X169918073Y-103065636D01*
X169918073Y-101504700D01*
X169985012Y-101504700D01*
X170184971Y-101464926D01*
X170373329Y-101386905D01*
X170542847Y-101273637D01*
X170637200Y-101179284D01*
X170637201Y-109823665D01*
X170472726Y-109933563D01*
X170328563Y-110077726D01*
X170215295Y-110247244D01*
X170137274Y-110435602D01*
X170097500Y-110635561D01*
X170097500Y-110839439D01*
X170137274Y-111039398D01*
X170215295Y-111227756D01*
X170328563Y-111397274D01*
X170472726Y-111541437D01*
X170642244Y-111654705D01*
X170830602Y-111732726D01*
X171030561Y-111772500D01*
X171234439Y-111772500D01*
X171434398Y-111732726D01*
X171622756Y-111654705D01*
X171792274Y-111541437D01*
X171936437Y-111397274D01*
X172049705Y-111227756D01*
X172127726Y-111039398D01*
X172157560Y-110889413D01*
X172224361Y-110902700D01*
X172428239Y-110902700D01*
X172628198Y-110862926D01*
X172816556Y-110784905D01*
X172986074Y-110671637D01*
X173130237Y-110527474D01*
X173243505Y-110357956D01*
X173321526Y-110169598D01*
X173361300Y-109969639D01*
X173361300Y-109861456D01*
X173492756Y-109807005D01*
X173662274Y-109693737D01*
X173806437Y-109549574D01*
X173919705Y-109380056D01*
X173952346Y-109301253D01*
X173970468Y-109319375D01*
X174213689Y-109481890D01*
X174483942Y-109593832D01*
X174770840Y-109650900D01*
X175063360Y-109650900D01*
X175350258Y-109593832D01*
X175620511Y-109481890D01*
X175863732Y-109319375D01*
X176070575Y-109112532D01*
X176188200Y-108936494D01*
X176359512Y-109166169D01*
X176575745Y-109361078D01*
X176825848Y-109510057D01*
X177100209Y-109607381D01*
X177330100Y-109486714D01*
X177330100Y-108292900D01*
X177584100Y-108292900D01*
X177584100Y-109486714D01*
X177813991Y-109607381D01*
X178088352Y-109510057D01*
X178338455Y-109361078D01*
X178554688Y-109166169D01*
X178728741Y-108932820D01*
X178853925Y-108669999D01*
X178898576Y-108522790D01*
X178777255Y-108292900D01*
X177584100Y-108292900D01*
X177330100Y-108292900D01*
X177310100Y-108292900D01*
X177310100Y-108038900D01*
X177330100Y-108038900D01*
X177330100Y-105752900D01*
X177584100Y-105752900D01*
X177584100Y-108038900D01*
X178777255Y-108038900D01*
X178898576Y-107809010D01*
X178853925Y-107661801D01*
X178728741Y-107398980D01*
X178554688Y-107165631D01*
X178338455Y-106970722D01*
X178212845Y-106895900D01*
X178338455Y-106821078D01*
X178554688Y-106626169D01*
X178728741Y-106392820D01*
X178853925Y-106129999D01*
X178898576Y-105982790D01*
X178777255Y-105752900D01*
X177584100Y-105752900D01*
X177330100Y-105752900D01*
X177310100Y-105752900D01*
X177310100Y-105498900D01*
X177330100Y-105498900D01*
X177330100Y-103212900D01*
X177584100Y-103212900D01*
X177584100Y-105498900D01*
X178777255Y-105498900D01*
X178898576Y-105269010D01*
X178853925Y-105121801D01*
X178728741Y-104858980D01*
X178554688Y-104625631D01*
X178410055Y-104495261D01*
X181044900Y-104495261D01*
X181044900Y-104699139D01*
X181084674Y-104899098D01*
X181162695Y-105087456D01*
X181275963Y-105256974D01*
X181420126Y-105401137D01*
X181589644Y-105514405D01*
X181778002Y-105592426D01*
X181977961Y-105632200D01*
X182181839Y-105632200D01*
X182381798Y-105592426D01*
X182570156Y-105514405D01*
X182739674Y-105401137D01*
X182883837Y-105256974D01*
X182997105Y-105087456D01*
X183075126Y-104899098D01*
X183114900Y-104699139D01*
X183114900Y-104550027D01*
X184022862Y-103642066D01*
X184049502Y-103620203D01*
X184071367Y-103593561D01*
X184071374Y-103593554D01*
X184136791Y-103513844D01*
X184181711Y-103429803D01*
X184201652Y-103392497D01*
X184241593Y-103260830D01*
X184251700Y-103158209D01*
X184251700Y-103158198D01*
X184255078Y-103123900D01*
X184251700Y-103089602D01*
X184251700Y-99594511D01*
X184357137Y-99489074D01*
X184470405Y-99319556D01*
X184548426Y-99131198D01*
X184588200Y-98931239D01*
X184588200Y-98727361D01*
X184548426Y-98527402D01*
X184470405Y-98339044D01*
X184357137Y-98169526D01*
X184212974Y-98025363D01*
X184043456Y-97912095D01*
X183855098Y-97834074D01*
X183655139Y-97794300D01*
X183451261Y-97794300D01*
X183251302Y-97834074D01*
X183062944Y-97912095D01*
X182893426Y-98025363D01*
X182749263Y-98169526D01*
X182635995Y-98339044D01*
X182557974Y-98527402D01*
X182518200Y-98727361D01*
X182518200Y-98931239D01*
X182557974Y-99131198D01*
X182635995Y-99319556D01*
X182749263Y-99489074D01*
X182854701Y-99594512D01*
X182854700Y-102834572D01*
X182127073Y-103562200D01*
X181977961Y-103562200D01*
X181778002Y-103601974D01*
X181589644Y-103679995D01*
X181420126Y-103793263D01*
X181275963Y-103937426D01*
X181162695Y-104106944D01*
X181084674Y-104295302D01*
X181044900Y-104495261D01*
X178410055Y-104495261D01*
X178338455Y-104430722D01*
X178212845Y-104355900D01*
X178338455Y-104281078D01*
X178554688Y-104086169D01*
X178728741Y-103852820D01*
X178853925Y-103589999D01*
X178898576Y-103442790D01*
X178777255Y-103212900D01*
X177584100Y-103212900D01*
X177330100Y-103212900D01*
X177310100Y-103212900D01*
X177310100Y-102958900D01*
X177330100Y-102958900D01*
X177330100Y-100672900D01*
X177584100Y-100672900D01*
X177584100Y-102958900D01*
X178777255Y-102958900D01*
X178898576Y-102729010D01*
X178853925Y-102581801D01*
X178728741Y-102318980D01*
X178554688Y-102085631D01*
X178338455Y-101890722D01*
X178212845Y-101815900D01*
X178338455Y-101741078D01*
X178554688Y-101546169D01*
X178728741Y-101312820D01*
X178853925Y-101049999D01*
X178898576Y-100902790D01*
X178777255Y-100672900D01*
X177584100Y-100672900D01*
X177330100Y-100672900D01*
X175044100Y-100672900D01*
X175044100Y-100692900D01*
X174790100Y-100692900D01*
X174790100Y-100672900D01*
X174770100Y-100672900D01*
X174770100Y-100418900D01*
X174790100Y-100418900D01*
X174790100Y-100398900D01*
X175044100Y-100398900D01*
X175044100Y-100418900D01*
X177330100Y-100418900D01*
X177330100Y-100398900D01*
X177584100Y-100398900D01*
X177584100Y-100418900D01*
X178777255Y-100418900D01*
X178898576Y-100189010D01*
X178853925Y-100041801D01*
X178728741Y-99778980D01*
X178554688Y-99545631D01*
X178338455Y-99350722D01*
X178221566Y-99281095D01*
X178403732Y-99159375D01*
X178610575Y-98952532D01*
X178773090Y-98709311D01*
X178885032Y-98439058D01*
X178942100Y-98152160D01*
X178942100Y-97859640D01*
X178885032Y-97572742D01*
X178773090Y-97302489D01*
X178610575Y-97059268D01*
X178403732Y-96852425D01*
X178160511Y-96689910D01*
X177890258Y-96577968D01*
X177603360Y-96520900D01*
X177310840Y-96520900D01*
X177023942Y-96577968D01*
X176753689Y-96689910D01*
X176510468Y-96852425D01*
X176378613Y-96984280D01*
X176356602Y-96911720D01*
X176297637Y-96801406D01*
X176218285Y-96704715D01*
X176121594Y-96625363D01*
X176011280Y-96566398D01*
X175891582Y-96530088D01*
X175767100Y-96517828D01*
X175615600Y-96517828D01*
X175615600Y-93545427D01*
X176628828Y-92532200D01*
X177372002Y-92532200D01*
X177406300Y-92535578D01*
X177440598Y-92532200D01*
X177440609Y-92532200D01*
X177543230Y-92522093D01*
X177674897Y-92482152D01*
X177796243Y-92417291D01*
X177902603Y-92330003D01*
X177924475Y-92303352D01*
X179901930Y-90325897D01*
X179906842Y-90327932D01*
X180193740Y-90385000D01*
X180486260Y-90385000D01*
X180773158Y-90327932D01*
X181043411Y-90215990D01*
X181286632Y-90053475D01*
X181493475Y-89846632D01*
X181610000Y-89672240D01*
X181726525Y-89846632D01*
X181933368Y-90053475D01*
X182176589Y-90215990D01*
X182446842Y-90327932D01*
X182733740Y-90385000D01*
X183026260Y-90385000D01*
X183313158Y-90327932D01*
X183583411Y-90215990D01*
X183826632Y-90053475D01*
X184033475Y-89846632D01*
X184195990Y-89603411D01*
X184307932Y-89333158D01*
X184365000Y-89046260D01*
X184365000Y-88753740D01*
X184307932Y-88466842D01*
X184195990Y-88196589D01*
X184033475Y-87953368D01*
X183826632Y-87746525D01*
X183583411Y-87584010D01*
X183313158Y-87472068D01*
X183026260Y-87415000D01*
X182733740Y-87415000D01*
X182446842Y-87472068D01*
X182176589Y-87584010D01*
X181933368Y-87746525D01*
X181726525Y-87953368D01*
X181610000Y-88127760D01*
X181493475Y-87953368D01*
X181286632Y-87746525D01*
X181043411Y-87584010D01*
X180773158Y-87472068D01*
X180486260Y-87415000D01*
X180193740Y-87415000D01*
X179906842Y-87472068D01*
X179636589Y-87584010D01*
X179393368Y-87746525D01*
X179186525Y-87953368D01*
X179070000Y-88127760D01*
X178953475Y-87953368D01*
X178746632Y-87746525D01*
X178503411Y-87584010D01*
X178233158Y-87472068D01*
X177946260Y-87415000D01*
X177653740Y-87415000D01*
X177366842Y-87472068D01*
X177096589Y-87584010D01*
X176853368Y-87746525D01*
X176646525Y-87953368D01*
X176530000Y-88127760D01*
X176413475Y-87953368D01*
X176206632Y-87746525D01*
X175963411Y-87584010D01*
X175693158Y-87472068D01*
X175406260Y-87415000D01*
X175113740Y-87415000D01*
X174826842Y-87472068D01*
X174556589Y-87584010D01*
X174313368Y-87746525D01*
X174181513Y-87878380D01*
X174159502Y-87805820D01*
X174100537Y-87695506D01*
X174021185Y-87598815D01*
X173924494Y-87519463D01*
X173814180Y-87460498D01*
X173694482Y-87424188D01*
X173570000Y-87411928D01*
X171870000Y-87411928D01*
X171745518Y-87424188D01*
X171625820Y-87460498D01*
X171515506Y-87519463D01*
X171418815Y-87598815D01*
X171339463Y-87695506D01*
X171280498Y-87805820D01*
X171244188Y-87925518D01*
X171231928Y-88050000D01*
X171231928Y-89750000D01*
X171244188Y-89874482D01*
X171280498Y-89994180D01*
X171339463Y-90104494D01*
X171413935Y-90195238D01*
X171096273Y-90512900D01*
X164474928Y-90512900D01*
X164661930Y-90325898D01*
X164666842Y-90327932D01*
X164953740Y-90385000D01*
X165246260Y-90385000D01*
X165533158Y-90327932D01*
X165803411Y-90215990D01*
X166046632Y-90053475D01*
X166253475Y-89846632D01*
X166415990Y-89603411D01*
X166527932Y-89333158D01*
X166585000Y-89046260D01*
X166585000Y-88753740D01*
X166527932Y-88466842D01*
X166415990Y-88196589D01*
X166253475Y-87953368D01*
X166046632Y-87746525D01*
X165803411Y-87584010D01*
X165533158Y-87472068D01*
X165246260Y-87415000D01*
X164953740Y-87415000D01*
X164666842Y-87472068D01*
X164396589Y-87584010D01*
X164153368Y-87746525D01*
X163946525Y-87953368D01*
X163830000Y-88127760D01*
X163713475Y-87953368D01*
X163506632Y-87746525D01*
X163263411Y-87584010D01*
X162993158Y-87472068D01*
X162706260Y-87415000D01*
X162413740Y-87415000D01*
X162126842Y-87472068D01*
X161856589Y-87584010D01*
X161613368Y-87746525D01*
X161406525Y-87953368D01*
X161290000Y-88127760D01*
X161173475Y-87953368D01*
X160966632Y-87746525D01*
X160723411Y-87584010D01*
X160453158Y-87472068D01*
X160166260Y-87415000D01*
X159873740Y-87415000D01*
X159586842Y-87472068D01*
X159316589Y-87584010D01*
X159073368Y-87746525D01*
X158866525Y-87953368D01*
X158750000Y-88127760D01*
X158633475Y-87953368D01*
X158426632Y-87746525D01*
X158183411Y-87584010D01*
X157913158Y-87472068D01*
X157626260Y-87415000D01*
X157333740Y-87415000D01*
X157046842Y-87472068D01*
X156776589Y-87584010D01*
X156533368Y-87746525D01*
X156326525Y-87953368D01*
X156210000Y-88127760D01*
X156093475Y-87953368D01*
X155886632Y-87746525D01*
X155643411Y-87584010D01*
X155373158Y-87472068D01*
X155086260Y-87415000D01*
X154793740Y-87415000D01*
X154506842Y-87472068D01*
X154236589Y-87584010D01*
X153993368Y-87746525D01*
X153786525Y-87953368D01*
X153670000Y-88127760D01*
X153553475Y-87953368D01*
X153346632Y-87746525D01*
X153103411Y-87584010D01*
X152833158Y-87472068D01*
X152546260Y-87415000D01*
X152253740Y-87415000D01*
X151966842Y-87472068D01*
X151696589Y-87584010D01*
X151453368Y-87746525D01*
X151246525Y-87953368D01*
X151130000Y-88127760D01*
X151013475Y-87953368D01*
X150806632Y-87746525D01*
X150563411Y-87584010D01*
X150293158Y-87472068D01*
X150006260Y-87415000D01*
X149713740Y-87415000D01*
X149426842Y-87472068D01*
X149156589Y-87584010D01*
X148913368Y-87746525D01*
X148781513Y-87878380D01*
X148759502Y-87805820D01*
X148700537Y-87695506D01*
X148621185Y-87598815D01*
X148524494Y-87519463D01*
X148414180Y-87460498D01*
X148294482Y-87424188D01*
X148170000Y-87411928D01*
X146470000Y-87411928D01*
X146345518Y-87424188D01*
X146225820Y-87460498D01*
X146115506Y-87519463D01*
X146018815Y-87598815D01*
X145939463Y-87695506D01*
X145880498Y-87805820D01*
X145844188Y-87925518D01*
X145831928Y-88050000D01*
X142875000Y-88050000D01*
X142875000Y-87020000D01*
X187325000Y-87020000D01*
X187325000Y-91948000D01*
G37*
X187325000Y-91948000D02*
X187327440Y-91972776D01*
X187334667Y-91996601D01*
X187346403Y-92018557D01*
X187362197Y-92037803D01*
X187381443Y-92053597D01*
X187403399Y-92065333D01*
X187427224Y-92072560D01*
X187452000Y-92075000D01*
X192380001Y-92075000D01*
X192380000Y-118745000D01*
X187452000Y-118745000D01*
X187427224Y-118747440D01*
X187403399Y-118754667D01*
X187381443Y-118766403D01*
X187362197Y-118782197D01*
X187346403Y-118801443D01*
X187334667Y-118823399D01*
X187327440Y-118847224D01*
X187325000Y-118872000D01*
X187325000Y-123800000D01*
X142875000Y-123800000D01*
X142875000Y-119817000D01*
X156077000Y-119817000D01*
X156077000Y-120567000D01*
X156133193Y-120883532D01*
X156250058Y-121183020D01*
X156423105Y-121453954D01*
X156645683Y-121685922D01*
X156909239Y-121870010D01*
X157203645Y-121999144D01*
X157331566Y-122030124D01*
X157585000Y-121910777D01*
X157585000Y-119817000D01*
X157839000Y-119817000D01*
X157839000Y-121910777D01*
X158092434Y-122030124D01*
X158220355Y-121999144D01*
X158514761Y-121870010D01*
X158778317Y-121685922D01*
X159000895Y-121453954D01*
X159173942Y-121183020D01*
X159290807Y-120883532D01*
X159293132Y-120870434D01*
X161971876Y-120870434D01*
X162002856Y-120998355D01*
X162131990Y-121292761D01*
X162316078Y-121556317D01*
X162548046Y-121778895D01*
X162818980Y-121951942D01*
X163118468Y-122068807D01*
X163435000Y-122125000D01*
X164435000Y-122125000D01*
X164435000Y-120617000D01*
X164689000Y-120617000D01*
X164689000Y-122125000D01*
X165689000Y-122125000D01*
X166005532Y-122068807D01*
X166305020Y-121951942D01*
X166575954Y-121778895D01*
X166807922Y-121556317D01*
X166992010Y-121292761D01*
X167121144Y-120998355D01*
X167152124Y-120870434D01*
X167032777Y-120617000D01*
X164689000Y-120617000D01*
X164435000Y-120617000D01*
X162091223Y-120617000D01*
X161971876Y-120870434D01*
X159293132Y-120870434D01*
X159347000Y-120567000D01*
X159347000Y-120109566D01*
X161971876Y-120109566D01*
X162091223Y-120363000D01*
X164435000Y-120363000D01*
X164435000Y-118855000D01*
X164689000Y-118855000D01*
X164689000Y-120363000D01*
X167032777Y-120363000D01*
X167152124Y-120109566D01*
X167121144Y-119981645D01*
X167048927Y-119817000D01*
X169777000Y-119817000D01*
X169777000Y-120567000D01*
X169833193Y-120883532D01*
X169950058Y-121183020D01*
X170123105Y-121453954D01*
X170345683Y-121685922D01*
X170609239Y-121870010D01*
X170903645Y-121999144D01*
X171031566Y-122030124D01*
X171285000Y-121910777D01*
X171285000Y-119817000D01*
X171539000Y-119817000D01*
X171539000Y-121910777D01*
X171792434Y-122030124D01*
X171920355Y-121999144D01*
X172214761Y-121870010D01*
X172478317Y-121685922D01*
X172700895Y-121453954D01*
X172873942Y-121183020D01*
X172990807Y-120883532D01*
X173047000Y-120567000D01*
X173047000Y-119817000D01*
X171539000Y-119817000D01*
X171285000Y-119817000D01*
X169777000Y-119817000D01*
X167048927Y-119817000D01*
X166992010Y-119687239D01*
X166807922Y-119423683D01*
X166575954Y-119201105D01*
X166305020Y-119028058D01*
X166005532Y-118911193D01*
X165689000Y-118855000D01*
X164689000Y-118855000D01*
X164435000Y-118855000D01*
X163435000Y-118855000D01*
X163118468Y-118911193D01*
X162818980Y-119028058D01*
X162548046Y-119201105D01*
X162316078Y-119423683D01*
X162131990Y-119687239D01*
X162002856Y-119981645D01*
X161971876Y-120109566D01*
X159347000Y-120109566D01*
X159347000Y-119817000D01*
X157839000Y-119817000D01*
X157585000Y-119817000D01*
X156077000Y-119817000D01*
X142875000Y-119817000D01*
X142875000Y-118872000D01*
X142872560Y-118847224D01*
X142865333Y-118823399D01*
X142859775Y-118813000D01*
X156077000Y-118813000D01*
X156077000Y-119563000D01*
X157585000Y-119563000D01*
X157585000Y-117469223D01*
X157839000Y-117469223D01*
X157839000Y-119563000D01*
X159347000Y-119563000D01*
X159347000Y-118813000D01*
X169777000Y-118813000D01*
X169777000Y-119563000D01*
X171285000Y-119563000D01*
X171285000Y-117469223D01*
X171539000Y-117469223D01*
X171539000Y-119563000D01*
X173047000Y-119563000D01*
X173047000Y-118813000D01*
X172990807Y-118496468D01*
X172873942Y-118196980D01*
X172700895Y-117926046D01*
X172478317Y-117694078D01*
X172214761Y-117509990D01*
X171920355Y-117380856D01*
X171792434Y-117349876D01*
X171539000Y-117469223D01*
X171285000Y-117469223D01*
X171031566Y-117349876D01*
X170903645Y-117380856D01*
X170609239Y-117509990D01*
X170345683Y-117694078D01*
X170123105Y-117926046D01*
X169950058Y-118196980D01*
X169833193Y-118496468D01*
X169777000Y-118813000D01*
X159347000Y-118813000D01*
X159290807Y-118496468D01*
X159173942Y-118196980D01*
X159000895Y-117926046D01*
X158778317Y-117694078D01*
X158514761Y-117509990D01*
X158220355Y-117380856D01*
X158092434Y-117349876D01*
X157839000Y-117469223D01*
X157585000Y-117469223D01*
X157331566Y-117349876D01*
X157203645Y-117380856D01*
X156909239Y-117509990D01*
X156645683Y-117694078D01*
X156423105Y-117926046D01*
X156250058Y-118196980D01*
X156133193Y-118496468D01*
X156077000Y-118813000D01*
X142859775Y-118813000D01*
X142853597Y-118801443D01*
X142837803Y-118782197D01*
X142818557Y-118766403D01*
X142796601Y-118754667D01*
X142772776Y-118747440D01*
X142748000Y-118745000D01*
X137820000Y-118745000D01*
X137820000Y-112116890D01*
X138258524Y-112116890D01*
X138303175Y-112264099D01*
X138428359Y-112526920D01*
X138602412Y-112760269D01*
X138818645Y-112955178D01*
X139068748Y-113104157D01*
X139343109Y-113201481D01*
X139573000Y-113080814D01*
X139573000Y-111887000D01*
X138379845Y-111887000D01*
X138258524Y-112116890D01*
X137820000Y-112116890D01*
X137820000Y-107793501D01*
X137884621Y-107793501D01*
X137887999Y-107827800D01*
X137888000Y-109720173D01*
X137884621Y-109754481D01*
X137888000Y-109788789D01*
X137888000Y-109788790D01*
X137898107Y-109891411D01*
X137908236Y-109924800D01*
X137938048Y-110023079D01*
X138002908Y-110144424D01*
X138068325Y-110224134D01*
X138068329Y-110224138D01*
X138090197Y-110250784D01*
X138116842Y-110272651D01*
X138603206Y-110759016D01*
X138602412Y-110759731D01*
X138428359Y-110993080D01*
X138303175Y-111255901D01*
X138258524Y-111403110D01*
X138379845Y-111633000D01*
X139573000Y-111633000D01*
X139573000Y-111613000D01*
X139827000Y-111613000D01*
X139827000Y-111633000D01*
X139847000Y-111633000D01*
X139847000Y-111887000D01*
X139827000Y-111887000D01*
X139827000Y-113080814D01*
X140056891Y-113201481D01*
X140331252Y-113104157D01*
X140581355Y-112955178D01*
X140797588Y-112760269D01*
X140971641Y-112526920D01*
X141096825Y-112264099D01*
X141141476Y-112116890D01*
X141020156Y-111887002D01*
X141185000Y-111887002D01*
X141185000Y-111801201D01*
X141627913Y-111801201D01*
X141660844Y-111823205D01*
X141849202Y-111901226D01*
X142049161Y-111941000D01*
X142253039Y-111941000D01*
X142452998Y-111901226D01*
X142641356Y-111823205D01*
X142810874Y-111709937D01*
X142955037Y-111565774D01*
X143068305Y-111396256D01*
X143146326Y-111207898D01*
X143186100Y-111007939D01*
X143186100Y-110804061D01*
X143146326Y-110604102D01*
X143068305Y-110415744D01*
X142955037Y-110246226D01*
X142810874Y-110102063D01*
X142641356Y-109988795D01*
X142452998Y-109910774D01*
X142253039Y-109871000D01*
X142049161Y-109871000D01*
X141994756Y-109881822D01*
X141926337Y-109779426D01*
X141820900Y-109673989D01*
X141820900Y-104619698D01*
X141824278Y-104585400D01*
X141820900Y-104551102D01*
X141820900Y-104551091D01*
X141810793Y-104448470D01*
X141770852Y-104316803D01*
X141719532Y-104220790D01*
X141705991Y-104195456D01*
X141640574Y-104115747D01*
X141618703Y-104089097D01*
X141592052Y-104067225D01*
X141195175Y-103670348D01*
X141188072Y-103661693D01*
X141188072Y-103290000D01*
X141175812Y-103165518D01*
X141139502Y-103045820D01*
X141080537Y-102935506D01*
X141001185Y-102838815D01*
X140904494Y-102759463D01*
X140794180Y-102700498D01*
X140674482Y-102664188D01*
X140550000Y-102651928D01*
X138850000Y-102651928D01*
X138725518Y-102664188D01*
X138605820Y-102700498D01*
X138495506Y-102759463D01*
X138398815Y-102838815D01*
X138319463Y-102935506D01*
X138260498Y-103045820D01*
X138224188Y-103165518D01*
X138211928Y-103290000D01*
X138211928Y-104990000D01*
X138224188Y-105114482D01*
X138260498Y-105234180D01*
X138319463Y-105344494D01*
X138398815Y-105441185D01*
X138495506Y-105520537D01*
X138605820Y-105579502D01*
X138678380Y-105601513D01*
X138546525Y-105733368D01*
X138384010Y-105976589D01*
X138272068Y-106246842D01*
X138215000Y-106533740D01*
X138215000Y-106826260D01*
X138272068Y-107113158D01*
X138274103Y-107118070D01*
X138116843Y-107275330D01*
X138090196Y-107297199D01*
X138068328Y-107323845D01*
X138068325Y-107323848D01*
X138002908Y-107403558D01*
X137982178Y-107442342D01*
X137938047Y-107524905D01*
X137898106Y-107656572D01*
X137887999Y-107759193D01*
X137887999Y-107759203D01*
X137884621Y-107793501D01*
X137820000Y-107793501D01*
X137820000Y-99939589D01*
X147967000Y-99939589D01*
X147967000Y-100212411D01*
X148020225Y-100479989D01*
X148124629Y-100732043D01*
X148276201Y-100958886D01*
X148469114Y-101151799D01*
X148695957Y-101303371D01*
X148948011Y-101407775D01*
X149215589Y-101461000D01*
X149488411Y-101461000D01*
X149755989Y-101407775D01*
X150008043Y-101303371D01*
X150234886Y-101151799D01*
X150427799Y-100958886D01*
X150579371Y-100732043D01*
X150683775Y-100479989D01*
X150737000Y-100212411D01*
X150737000Y-99939589D01*
X150683775Y-99672011D01*
X150579371Y-99419957D01*
X150427799Y-99193114D01*
X150234886Y-99000201D01*
X150008043Y-98848629D01*
X149755989Y-98744225D01*
X149488411Y-98691000D01*
X149215589Y-98691000D01*
X148948011Y-98744225D01*
X148695957Y-98848629D01*
X148469114Y-99000201D01*
X148276201Y-99193114D01*
X148124629Y-99419957D01*
X148020225Y-99672011D01*
X147967000Y-99939589D01*
X137820000Y-99939589D01*
X137820000Y-95059589D01*
X147967000Y-95059589D01*
X147967000Y-95332411D01*
X148020225Y-95599989D01*
X148124629Y-95852043D01*
X148276201Y-96078886D01*
X148469114Y-96271799D01*
X148695957Y-96423371D01*
X148948011Y-96527775D01*
X149215589Y-96581000D01*
X149488411Y-96581000D01*
X149755989Y-96527775D01*
X150008043Y-96423371D01*
X150234886Y-96271799D01*
X150427799Y-96078886D01*
X150579371Y-95852043D01*
X150637050Y-95712792D01*
X153766884Y-95712792D01*
X153766884Y-95916670D01*
X153806658Y-96116629D01*
X153884679Y-96304987D01*
X153997947Y-96474505D01*
X154142110Y-96618668D01*
X154311628Y-96731936D01*
X154499986Y-96809957D01*
X154699945Y-96849731D01*
X154903823Y-96849731D01*
X155103782Y-96809957D01*
X155292140Y-96731936D01*
X155461658Y-96618668D01*
X155605821Y-96474505D01*
X155719089Y-96304987D01*
X155797110Y-96116629D01*
X155836884Y-95916670D01*
X155836884Y-95767559D01*
X155940759Y-95663684D01*
X155967400Y-95641820D01*
X155989265Y-95615178D01*
X155989272Y-95615171D01*
X156054689Y-95535460D01*
X156066783Y-95512833D01*
X156119550Y-95414114D01*
X156159491Y-95282447D01*
X156161610Y-95260930D01*
X156275035Y-95147505D01*
X156388303Y-94977987D01*
X156466324Y-94789629D01*
X156506098Y-94589670D01*
X156506098Y-94385792D01*
X156466324Y-94185833D01*
X156388303Y-93997475D01*
X156275035Y-93827957D01*
X156130872Y-93683794D01*
X155961354Y-93570526D01*
X155772996Y-93492505D01*
X155573037Y-93452731D01*
X155369159Y-93452731D01*
X155169200Y-93492505D01*
X154980842Y-93570526D01*
X154811324Y-93683794D01*
X154667161Y-93827957D01*
X154553893Y-93997475D01*
X154475872Y-94185833D01*
X154436098Y-94385792D01*
X154436098Y-94589670D01*
X154475872Y-94789629D01*
X154489966Y-94823655D01*
X154311628Y-94897526D01*
X154142110Y-95010794D01*
X153997947Y-95154957D01*
X153884679Y-95324475D01*
X153806658Y-95512833D01*
X153766884Y-95712792D01*
X150637050Y-95712792D01*
X150683775Y-95599989D01*
X150737000Y-95332411D01*
X150737000Y-95059589D01*
X150683775Y-94792011D01*
X150579371Y-94539957D01*
X150427799Y-94313114D01*
X150234886Y-94120201D01*
X150008043Y-93968629D01*
X149755989Y-93864225D01*
X149488411Y-93811000D01*
X149215589Y-93811000D01*
X148948011Y-93864225D01*
X148695957Y-93968629D01*
X148469114Y-94120201D01*
X148276201Y-94313114D01*
X148124629Y-94539957D01*
X148020225Y-94792011D01*
X147967000Y-95059589D01*
X137820000Y-95059589D01*
X137820000Y-92075000D01*
X142748000Y-92075000D01*
X142772776Y-92072560D01*
X142796601Y-92065333D01*
X142818557Y-92053597D01*
X142837803Y-92037803D01*
X142853597Y-92018557D01*
X142865333Y-91996601D01*
X142872560Y-91972776D01*
X142875000Y-91948000D01*
X142875000Y-88050000D01*
X145831928Y-88050000D01*
X145831928Y-89750000D01*
X145844188Y-89874482D01*
X145880498Y-89994180D01*
X145939463Y-90104494D01*
X146018815Y-90201185D01*
X146115506Y-90280537D01*
X146225820Y-90339502D01*
X146345518Y-90375812D01*
X146470000Y-90388072D01*
X148170000Y-90388072D01*
X148294482Y-90375812D01*
X148414180Y-90339502D01*
X148524494Y-90280537D01*
X148621185Y-90201185D01*
X148700537Y-90104494D01*
X148759502Y-89994180D01*
X148781513Y-89921620D01*
X148913368Y-90053475D01*
X149156589Y-90215990D01*
X149426842Y-90327932D01*
X149713740Y-90385000D01*
X150006260Y-90385000D01*
X150293158Y-90327932D01*
X150563411Y-90215990D01*
X150806632Y-90053475D01*
X151013475Y-89846632D01*
X151130000Y-89672240D01*
X151246525Y-89846632D01*
X151453368Y-90053475D01*
X151696589Y-90215990D01*
X151966842Y-90327932D01*
X152253740Y-90385000D01*
X152546260Y-90385000D01*
X152833158Y-90327932D01*
X153103411Y-90215990D01*
X153346632Y-90053475D01*
X153553475Y-89846632D01*
X153670000Y-89672240D01*
X153786525Y-89846632D01*
X153993368Y-90053475D01*
X154236589Y-90215990D01*
X154506842Y-90327932D01*
X154793740Y-90385000D01*
X155086260Y-90385000D01*
X155373158Y-90327932D01*
X155643411Y-90215990D01*
X155886632Y-90053475D01*
X156093475Y-89846632D01*
X156210000Y-89672240D01*
X156326525Y-89846632D01*
X156533368Y-90053475D01*
X156776589Y-90215990D01*
X157046842Y-90327932D01*
X157333740Y-90385000D01*
X157503089Y-90385000D01*
X157463463Y-90424626D01*
X157350195Y-90594144D01*
X157272174Y-90782502D01*
X157232400Y-90982461D01*
X157232400Y-91186339D01*
X157272174Y-91386298D01*
X157350195Y-91574656D01*
X157463463Y-91744174D01*
X157560581Y-91841292D01*
X157560580Y-101406179D01*
X157455143Y-101511616D01*
X157341875Y-101681134D01*
X157263854Y-101869492D01*
X157224080Y-102069451D01*
X157224080Y-102273329D01*
X157263854Y-102473288D01*
X157341875Y-102661646D01*
X157455143Y-102831164D01*
X157599306Y-102975327D01*
X157607372Y-102980717D01*
X157476163Y-103111926D01*
X157362895Y-103281444D01*
X157284874Y-103469802D01*
X157245100Y-103669761D01*
X157245100Y-103873639D01*
X157284874Y-104073598D01*
X157362895Y-104261956D01*
X157476163Y-104431474D01*
X157581600Y-104536911D01*
X157581601Y-109321488D01*
X157488863Y-109414226D01*
X157375595Y-109583744D01*
X157297574Y-109772102D01*
X157257800Y-109972061D01*
X157257800Y-110175939D01*
X157297574Y-110375898D01*
X157375595Y-110564256D01*
X157488863Y-110733774D01*
X157633026Y-110877937D01*
X157802544Y-110991205D01*
X157990902Y-111069226D01*
X158190861Y-111109000D01*
X158394739Y-111109000D01*
X158594698Y-111069226D01*
X158783056Y-110991205D01*
X158952574Y-110877937D01*
X159096737Y-110733774D01*
X159150503Y-110653307D01*
X159256103Y-110709752D01*
X159387770Y-110749693D01*
X159490391Y-110759800D01*
X159490392Y-110759800D01*
X159524700Y-110763179D01*
X159559009Y-110759800D01*
X161401229Y-110759800D01*
X161435527Y-110763178D01*
X161469825Y-110759800D01*
X161469836Y-110759800D01*
X161541118Y-110752780D01*
X161658350Y-110831111D01*
X161846708Y-110909132D01*
X162046667Y-110948906D01*
X162250545Y-110948906D01*
X162450504Y-110909132D01*
X162638862Y-110831111D01*
X162808380Y-110717843D01*
X162952543Y-110573680D01*
X163065811Y-110404162D01*
X163143832Y-110215804D01*
X163183606Y-110015845D01*
X163183606Y-109811967D01*
X163143832Y-109612008D01*
X163065811Y-109423650D01*
X162952543Y-109254132D01*
X162808380Y-109109969D01*
X162638862Y-108996701D01*
X162638118Y-108996393D01*
X162719937Y-108914574D01*
X162833205Y-108745056D01*
X162911226Y-108556698D01*
X162951000Y-108356739D01*
X162951000Y-108152861D01*
X162911226Y-107952902D01*
X162833205Y-107764544D01*
X162805000Y-107722332D01*
X162805000Y-104949035D01*
X163088017Y-104666018D01*
X163121940Y-104638178D01*
X163233034Y-104502810D01*
X163315584Y-104348370D01*
X163348647Y-104239375D01*
X163366417Y-104180795D01*
X163371661Y-104127547D01*
X163379281Y-104050186D01*
X163379281Y-104050180D01*
X163383581Y-104006520D01*
X163379281Y-103962860D01*
X163379281Y-99341184D01*
X163407486Y-99298972D01*
X163485507Y-99110614D01*
X163525281Y-98910655D01*
X163525281Y-98706777D01*
X163485507Y-98506818D01*
X163407486Y-98318460D01*
X163294218Y-98148942D01*
X163150055Y-98004779D01*
X162980537Y-97891511D01*
X162792179Y-97813490D01*
X162592220Y-97773716D01*
X162525280Y-97773716D01*
X162525280Y-93288047D01*
X163903429Y-91909900D01*
X164504673Y-91909900D01*
X164350344Y-92064229D01*
X164323697Y-92086098D01*
X164301829Y-92112744D01*
X164301826Y-92112747D01*
X164236409Y-92192457D01*
X164171549Y-92313802D01*
X164171548Y-92313804D01*
X164131607Y-92445471D01*
X164121500Y-92548092D01*
X164121500Y-92548102D01*
X164118122Y-92582400D01*
X164121500Y-92616698D01*
X164121501Y-102194288D01*
X164042063Y-102273726D01*
X163928795Y-102443244D01*
X163850774Y-102631602D01*
X163811000Y-102831561D01*
X163811000Y-103035439D01*
X163850774Y-103235398D01*
X163928795Y-103423756D01*
X164042063Y-103593274D01*
X164186226Y-103737437D01*
X164355744Y-103850705D01*
X164544102Y-103928726D01*
X164744061Y-103968500D01*
X164947939Y-103968500D01*
X165147898Y-103928726D01*
X165163501Y-103922263D01*
X165163500Y-115401928D01*
X165062000Y-115401928D01*
X164937518Y-115414188D01*
X164817820Y-115450498D01*
X164707506Y-115509463D01*
X164610815Y-115588815D01*
X164531463Y-115685506D01*
X164472498Y-115795820D01*
X164436188Y-115915518D01*
X164427703Y-116001667D01*
X164376637Y-115925241D01*
X164176759Y-115725363D01*
X163941727Y-115568320D01*
X163680574Y-115460147D01*
X163403335Y-115405000D01*
X163120665Y-115405000D01*
X162843426Y-115460147D01*
X162582273Y-115568320D01*
X162347241Y-115725363D01*
X162212000Y-115860604D01*
X162076759Y-115725363D01*
X161841727Y-115568320D01*
X161580574Y-115460147D01*
X161479290Y-115440000D01*
X161580574Y-115419853D01*
X161841727Y-115311680D01*
X162076759Y-115154637D01*
X162276637Y-114954759D01*
X162433680Y-114719727D01*
X162541853Y-114458574D01*
X162597000Y-114181335D01*
X162597000Y-113898665D01*
X162541853Y-113621426D01*
X162433680Y-113360273D01*
X162276637Y-113125241D01*
X162076759Y-112925363D01*
X161841727Y-112768320D01*
X161580574Y-112660147D01*
X161303335Y-112605000D01*
X161020665Y-112605000D01*
X160743426Y-112660147D01*
X160482273Y-112768320D01*
X160247241Y-112925363D01*
X160047363Y-113125241D01*
X159890320Y-113360273D01*
X159782147Y-113621426D01*
X159727000Y-113898665D01*
X159727000Y-114181335D01*
X159782147Y-114458574D01*
X159890320Y-114719727D01*
X160047363Y-114954759D01*
X160247241Y-115154637D01*
X160482273Y-115311680D01*
X160743426Y-115419853D01*
X160844710Y-115440000D01*
X160743426Y-115460147D01*
X160482273Y-115568320D01*
X160247241Y-115725363D01*
X160047363Y-115925241D01*
X159890320Y-116160273D01*
X159782147Y-116421426D01*
X159727000Y-116698665D01*
X159727000Y-116981335D01*
X159782147Y-117258574D01*
X159890320Y-117519727D01*
X160047363Y-117754759D01*
X160247241Y-117954637D01*
X160482273Y-118111680D01*
X160743426Y-118219853D01*
X161020665Y-118275000D01*
X161303335Y-118275000D01*
X161580574Y-118219853D01*
X161841727Y-118111680D01*
X162076759Y-117954637D01*
X162212000Y-117819396D01*
X162347241Y-117954637D01*
X162582273Y-118111680D01*
X162843426Y-118219853D01*
X163120665Y-118275000D01*
X163403335Y-118275000D01*
X163680574Y-118219853D01*
X163941727Y-118111680D01*
X164176759Y-117954637D01*
X164376637Y-117754759D01*
X164427703Y-117678333D01*
X164436188Y-117764482D01*
X164472498Y-117884180D01*
X164531463Y-117994494D01*
X164610815Y-118091185D01*
X164707506Y-118170537D01*
X164817820Y-118229502D01*
X164937518Y-118265812D01*
X165062000Y-118278072D01*
X166662000Y-118278072D01*
X166786482Y-118265812D01*
X166906180Y-118229502D01*
X167016494Y-118170537D01*
X167113185Y-118091185D01*
X167192537Y-117994494D01*
X167195014Y-117989859D01*
X167220486Y-118076671D01*
X167475996Y-118197571D01*
X167750184Y-118266300D01*
X168032512Y-118280217D01*
X168312130Y-118238787D01*
X168578292Y-118143603D01*
X168703514Y-118076671D01*
X168775097Y-117832702D01*
X167962000Y-117019605D01*
X167947858Y-117033748D01*
X167768253Y-116854143D01*
X167782395Y-116840000D01*
X168141605Y-116840000D01*
X168954702Y-117653097D01*
X169198671Y-117581514D01*
X169319571Y-117326004D01*
X169388300Y-117051816D01*
X169402217Y-116769488D01*
X169360787Y-116489870D01*
X169265603Y-116223708D01*
X169198671Y-116098486D01*
X168954702Y-116026903D01*
X168141605Y-116840000D01*
X167782395Y-116840000D01*
X167768253Y-116825858D01*
X167947858Y-116646253D01*
X167962000Y-116660395D01*
X168775097Y-115847298D01*
X168703514Y-115603329D01*
X168448004Y-115482429D01*
X168278982Y-115440061D01*
X168380574Y-115419853D01*
X168641727Y-115311680D01*
X168876759Y-115154637D01*
X169076637Y-114954759D01*
X169233680Y-114719727D01*
X169341853Y-114458574D01*
X169397000Y-114181335D01*
X169397000Y-113898665D01*
X169341853Y-113621426D01*
X169233680Y-113360273D01*
X169076637Y-113125241D01*
X168876759Y-112925363D01*
X168660500Y-112780864D01*
X168660500Y-104702070D01*
X168729317Y-104748052D01*
X168917675Y-104826073D01*
X169117634Y-104865847D01*
X169321512Y-104865847D01*
X169521471Y-104826073D01*
X169709829Y-104748052D01*
X169879347Y-104634784D01*
X170023510Y-104490621D01*
X170136778Y-104321103D01*
X170214799Y-104132745D01*
X170254573Y-103932786D01*
X170254573Y-103728908D01*
X170214799Y-103528949D01*
X170136778Y-103340591D01*
X170023510Y-103171073D01*
X169918073Y-103065636D01*
X169918073Y-101504700D01*
X169985012Y-101504700D01*
X170184971Y-101464926D01*
X170373329Y-101386905D01*
X170542847Y-101273637D01*
X170637200Y-101179284D01*
X170637201Y-109823665D01*
X170472726Y-109933563D01*
X170328563Y-110077726D01*
X170215295Y-110247244D01*
X170137274Y-110435602D01*
X170097500Y-110635561D01*
X170097500Y-110839439D01*
X170137274Y-111039398D01*
X170215295Y-111227756D01*
X170328563Y-111397274D01*
X170472726Y-111541437D01*
X170642244Y-111654705D01*
X170830602Y-111732726D01*
X171030561Y-111772500D01*
X171234439Y-111772500D01*
X171434398Y-111732726D01*
X171622756Y-111654705D01*
X171792274Y-111541437D01*
X171936437Y-111397274D01*
X172049705Y-111227756D01*
X172127726Y-111039398D01*
X172157560Y-110889413D01*
X172224361Y-110902700D01*
X172428239Y-110902700D01*
X172628198Y-110862926D01*
X172816556Y-110784905D01*
X172986074Y-110671637D01*
X173130237Y-110527474D01*
X173243505Y-110357956D01*
X173321526Y-110169598D01*
X173361300Y-109969639D01*
X173361300Y-109861456D01*
X173492756Y-109807005D01*
X173662274Y-109693737D01*
X173806437Y-109549574D01*
X173919705Y-109380056D01*
X173952346Y-109301253D01*
X173970468Y-109319375D01*
X174213689Y-109481890D01*
X174483942Y-109593832D01*
X174770840Y-109650900D01*
X175063360Y-109650900D01*
X175350258Y-109593832D01*
X175620511Y-109481890D01*
X175863732Y-109319375D01*
X176070575Y-109112532D01*
X176188200Y-108936494D01*
X176359512Y-109166169D01*
X176575745Y-109361078D01*
X176825848Y-109510057D01*
X177100209Y-109607381D01*
X177330100Y-109486714D01*
X177330100Y-108292900D01*
X177584100Y-108292900D01*
X177584100Y-109486714D01*
X177813991Y-109607381D01*
X178088352Y-109510057D01*
X178338455Y-109361078D01*
X178554688Y-109166169D01*
X178728741Y-108932820D01*
X178853925Y-108669999D01*
X178898576Y-108522790D01*
X178777255Y-108292900D01*
X177584100Y-108292900D01*
X177330100Y-108292900D01*
X177310100Y-108292900D01*
X177310100Y-108038900D01*
X177330100Y-108038900D01*
X177330100Y-105752900D01*
X177584100Y-105752900D01*
X177584100Y-108038900D01*
X178777255Y-108038900D01*
X178898576Y-107809010D01*
X178853925Y-107661801D01*
X178728741Y-107398980D01*
X178554688Y-107165631D01*
X178338455Y-106970722D01*
X178212845Y-106895900D01*
X178338455Y-106821078D01*
X178554688Y-106626169D01*
X178728741Y-106392820D01*
X178853925Y-106129999D01*
X178898576Y-105982790D01*
X178777255Y-105752900D01*
X177584100Y-105752900D01*
X177330100Y-105752900D01*
X177310100Y-105752900D01*
X177310100Y-105498900D01*
X177330100Y-105498900D01*
X177330100Y-103212900D01*
X177584100Y-103212900D01*
X177584100Y-105498900D01*
X178777255Y-105498900D01*
X178898576Y-105269010D01*
X178853925Y-105121801D01*
X178728741Y-104858980D01*
X178554688Y-104625631D01*
X178410055Y-104495261D01*
X181044900Y-104495261D01*
X181044900Y-104699139D01*
X181084674Y-104899098D01*
X181162695Y-105087456D01*
X181275963Y-105256974D01*
X181420126Y-105401137D01*
X181589644Y-105514405D01*
X181778002Y-105592426D01*
X181977961Y-105632200D01*
X182181839Y-105632200D01*
X182381798Y-105592426D01*
X182570156Y-105514405D01*
X182739674Y-105401137D01*
X182883837Y-105256974D01*
X182997105Y-105087456D01*
X183075126Y-104899098D01*
X183114900Y-104699139D01*
X183114900Y-104550027D01*
X184022862Y-103642066D01*
X184049502Y-103620203D01*
X184071367Y-103593561D01*
X184071374Y-103593554D01*
X184136791Y-103513844D01*
X184181711Y-103429803D01*
X184201652Y-103392497D01*
X184241593Y-103260830D01*
X184251700Y-103158209D01*
X184251700Y-103158198D01*
X184255078Y-103123900D01*
X184251700Y-103089602D01*
X184251700Y-99594511D01*
X184357137Y-99489074D01*
X184470405Y-99319556D01*
X184548426Y-99131198D01*
X184588200Y-98931239D01*
X184588200Y-98727361D01*
X184548426Y-98527402D01*
X184470405Y-98339044D01*
X184357137Y-98169526D01*
X184212974Y-98025363D01*
X184043456Y-97912095D01*
X183855098Y-97834074D01*
X183655139Y-97794300D01*
X183451261Y-97794300D01*
X183251302Y-97834074D01*
X183062944Y-97912095D01*
X182893426Y-98025363D01*
X182749263Y-98169526D01*
X182635995Y-98339044D01*
X182557974Y-98527402D01*
X182518200Y-98727361D01*
X182518200Y-98931239D01*
X182557974Y-99131198D01*
X182635995Y-99319556D01*
X182749263Y-99489074D01*
X182854701Y-99594512D01*
X182854700Y-102834572D01*
X182127073Y-103562200D01*
X181977961Y-103562200D01*
X181778002Y-103601974D01*
X181589644Y-103679995D01*
X181420126Y-103793263D01*
X181275963Y-103937426D01*
X181162695Y-104106944D01*
X181084674Y-104295302D01*
X181044900Y-104495261D01*
X178410055Y-104495261D01*
X178338455Y-104430722D01*
X178212845Y-104355900D01*
X178338455Y-104281078D01*
X178554688Y-104086169D01*
X178728741Y-103852820D01*
X178853925Y-103589999D01*
X178898576Y-103442790D01*
X178777255Y-103212900D01*
X177584100Y-103212900D01*
X177330100Y-103212900D01*
X177310100Y-103212900D01*
X177310100Y-102958900D01*
X177330100Y-102958900D01*
X177330100Y-100672900D01*
X177584100Y-100672900D01*
X177584100Y-102958900D01*
X178777255Y-102958900D01*
X178898576Y-102729010D01*
X178853925Y-102581801D01*
X178728741Y-102318980D01*
X178554688Y-102085631D01*
X178338455Y-101890722D01*
X178212845Y-101815900D01*
X178338455Y-101741078D01*
X178554688Y-101546169D01*
X178728741Y-101312820D01*
X178853925Y-101049999D01*
X178898576Y-100902790D01*
X178777255Y-100672900D01*
X177584100Y-100672900D01*
X177330100Y-100672900D01*
X175044100Y-100672900D01*
X175044100Y-100692900D01*
X174790100Y-100692900D01*
X174790100Y-100672900D01*
X174770100Y-100672900D01*
X174770100Y-100418900D01*
X174790100Y-100418900D01*
X174790100Y-100398900D01*
X175044100Y-100398900D01*
X175044100Y-100418900D01*
X177330100Y-100418900D01*
X177330100Y-100398900D01*
X177584100Y-100398900D01*
X177584100Y-100418900D01*
X178777255Y-100418900D01*
X178898576Y-100189010D01*
X178853925Y-100041801D01*
X178728741Y-99778980D01*
X178554688Y-99545631D01*
X178338455Y-99350722D01*
X178221566Y-99281095D01*
X178403732Y-99159375D01*
X178610575Y-98952532D01*
X178773090Y-98709311D01*
X178885032Y-98439058D01*
X178942100Y-98152160D01*
X178942100Y-97859640D01*
X178885032Y-97572742D01*
X178773090Y-97302489D01*
X178610575Y-97059268D01*
X178403732Y-96852425D01*
X178160511Y-96689910D01*
X177890258Y-96577968D01*
X177603360Y-96520900D01*
X177310840Y-96520900D01*
X177023942Y-96577968D01*
X176753689Y-96689910D01*
X176510468Y-96852425D01*
X176378613Y-96984280D01*
X176356602Y-96911720D01*
X176297637Y-96801406D01*
X176218285Y-96704715D01*
X176121594Y-96625363D01*
X176011280Y-96566398D01*
X175891582Y-96530088D01*
X175767100Y-96517828D01*
X175615600Y-96517828D01*
X175615600Y-93545427D01*
X176628828Y-92532200D01*
X177372002Y-92532200D01*
X177406300Y-92535578D01*
X177440598Y-92532200D01*
X177440609Y-92532200D01*
X177543230Y-92522093D01*
X177674897Y-92482152D01*
X177796243Y-92417291D01*
X177902603Y-92330003D01*
X177924475Y-92303352D01*
X179901930Y-90325897D01*
X179906842Y-90327932D01*
X180193740Y-90385000D01*
X180486260Y-90385000D01*
X180773158Y-90327932D01*
X181043411Y-90215990D01*
X181286632Y-90053475D01*
X181493475Y-89846632D01*
X181610000Y-89672240D01*
X181726525Y-89846632D01*
X181933368Y-90053475D01*
X182176589Y-90215990D01*
X182446842Y-90327932D01*
X182733740Y-90385000D01*
X183026260Y-90385000D01*
X183313158Y-90327932D01*
X183583411Y-90215990D01*
X183826632Y-90053475D01*
X184033475Y-89846632D01*
X184195990Y-89603411D01*
X184307932Y-89333158D01*
X184365000Y-89046260D01*
X184365000Y-88753740D01*
X184307932Y-88466842D01*
X184195990Y-88196589D01*
X184033475Y-87953368D01*
X183826632Y-87746525D01*
X183583411Y-87584010D01*
X183313158Y-87472068D01*
X183026260Y-87415000D01*
X182733740Y-87415000D01*
X182446842Y-87472068D01*
X182176589Y-87584010D01*
X181933368Y-87746525D01*
X181726525Y-87953368D01*
X181610000Y-88127760D01*
X181493475Y-87953368D01*
X181286632Y-87746525D01*
X181043411Y-87584010D01*
X180773158Y-87472068D01*
X180486260Y-87415000D01*
X180193740Y-87415000D01*
X179906842Y-87472068D01*
X179636589Y-87584010D01*
X179393368Y-87746525D01*
X179186525Y-87953368D01*
X179070000Y-88127760D01*
X178953475Y-87953368D01*
X178746632Y-87746525D01*
X178503411Y-87584010D01*
X178233158Y-87472068D01*
X177946260Y-87415000D01*
X177653740Y-87415000D01*
X177366842Y-87472068D01*
X177096589Y-87584010D01*
X176853368Y-87746525D01*
X176646525Y-87953368D01*
X176530000Y-88127760D01*
X176413475Y-87953368D01*
X176206632Y-87746525D01*
X175963411Y-87584010D01*
X175693158Y-87472068D01*
X175406260Y-87415000D01*
X175113740Y-87415000D01*
X174826842Y-87472068D01*
X174556589Y-87584010D01*
X174313368Y-87746525D01*
X174181513Y-87878380D01*
X174159502Y-87805820D01*
X174100537Y-87695506D01*
X174021185Y-87598815D01*
X173924494Y-87519463D01*
X173814180Y-87460498D01*
X173694482Y-87424188D01*
X173570000Y-87411928D01*
X171870000Y-87411928D01*
X171745518Y-87424188D01*
X171625820Y-87460498D01*
X171515506Y-87519463D01*
X171418815Y-87598815D01*
X171339463Y-87695506D01*
X171280498Y-87805820D01*
X171244188Y-87925518D01*
X171231928Y-88050000D01*
X171231928Y-89750000D01*
X171244188Y-89874482D01*
X171280498Y-89994180D01*
X171339463Y-90104494D01*
X171413935Y-90195238D01*
X171096273Y-90512900D01*
X164474928Y-90512900D01*
X164661930Y-90325898D01*
X164666842Y-90327932D01*
X164953740Y-90385000D01*
X165246260Y-90385000D01*
X165533158Y-90327932D01*
X165803411Y-90215990D01*
X166046632Y-90053475D01*
X166253475Y-89846632D01*
X166415990Y-89603411D01*
X166527932Y-89333158D01*
X166585000Y-89046260D01*
X166585000Y-88753740D01*
X166527932Y-88466842D01*
X166415990Y-88196589D01*
X166253475Y-87953368D01*
X166046632Y-87746525D01*
X165803411Y-87584010D01*
X165533158Y-87472068D01*
X165246260Y-87415000D01*
X164953740Y-87415000D01*
X164666842Y-87472068D01*
X164396589Y-87584010D01*
X164153368Y-87746525D01*
X163946525Y-87953368D01*
X163830000Y-88127760D01*
X163713475Y-87953368D01*
X163506632Y-87746525D01*
X163263411Y-87584010D01*
X162993158Y-87472068D01*
X162706260Y-87415000D01*
X162413740Y-87415000D01*
X162126842Y-87472068D01*
X161856589Y-87584010D01*
X161613368Y-87746525D01*
X161406525Y-87953368D01*
X161290000Y-88127760D01*
X161173475Y-87953368D01*
X160966632Y-87746525D01*
X160723411Y-87584010D01*
X160453158Y-87472068D01*
X160166260Y-87415000D01*
X159873740Y-87415000D01*
X159586842Y-87472068D01*
X159316589Y-87584010D01*
X159073368Y-87746525D01*
X158866525Y-87953368D01*
X158750000Y-88127760D01*
X158633475Y-87953368D01*
X158426632Y-87746525D01*
X158183411Y-87584010D01*
X157913158Y-87472068D01*
X157626260Y-87415000D01*
X157333740Y-87415000D01*
X157046842Y-87472068D01*
X156776589Y-87584010D01*
X156533368Y-87746525D01*
X156326525Y-87953368D01*
X156210000Y-88127760D01*
X156093475Y-87953368D01*
X155886632Y-87746525D01*
X155643411Y-87584010D01*
X155373158Y-87472068D01*
X155086260Y-87415000D01*
X154793740Y-87415000D01*
X154506842Y-87472068D01*
X154236589Y-87584010D01*
X153993368Y-87746525D01*
X153786525Y-87953368D01*
X153670000Y-88127760D01*
X153553475Y-87953368D01*
X153346632Y-87746525D01*
X153103411Y-87584010D01*
X152833158Y-87472068D01*
X152546260Y-87415000D01*
X152253740Y-87415000D01*
X151966842Y-87472068D01*
X151696589Y-87584010D01*
X151453368Y-87746525D01*
X151246525Y-87953368D01*
X151130000Y-88127760D01*
X151013475Y-87953368D01*
X150806632Y-87746525D01*
X150563411Y-87584010D01*
X150293158Y-87472068D01*
X150006260Y-87415000D01*
X149713740Y-87415000D01*
X149426842Y-87472068D01*
X149156589Y-87584010D01*
X148913368Y-87746525D01*
X148781513Y-87878380D01*
X148759502Y-87805820D01*
X148700537Y-87695506D01*
X148621185Y-87598815D01*
X148524494Y-87519463D01*
X148414180Y-87460498D01*
X148294482Y-87424188D01*
X148170000Y-87411928D01*
X146470000Y-87411928D01*
X146345518Y-87424188D01*
X146225820Y-87460498D01*
X146115506Y-87519463D01*
X146018815Y-87598815D01*
X145939463Y-87695506D01*
X145880498Y-87805820D01*
X145844188Y-87925518D01*
X145831928Y-88050000D01*
X142875000Y-88050000D01*
X142875000Y-87020000D01*
X187325000Y-87020000D01*
X187325000Y-91948000D01*
G36*
X173285200Y-92300022D02*
G01*
X173220008Y-92379458D01*
X173155148Y-92500803D01*
X173140803Y-92548092D01*
X173115207Y-92632471D01*
X173105589Y-92730123D01*
X173101721Y-92769401D01*
X173105100Y-92803709D01*
X173105100Y-97047100D01*
X172948261Y-97047100D01*
X172748302Y-97086874D01*
X172559944Y-97164895D01*
X172390426Y-97278163D01*
X172246263Y-97422326D01*
X172132995Y-97591844D01*
X172054974Y-97780202D01*
X172015200Y-97980161D01*
X172015200Y-98174189D01*
X171995474Y-98154463D01*
X171825956Y-98041195D01*
X171637598Y-97963174D01*
X171437639Y-97923400D01*
X171245073Y-97923400D01*
X171245073Y-96493023D01*
X171286584Y-96475828D01*
X171456102Y-96362560D01*
X171600265Y-96218397D01*
X171713533Y-96048879D01*
X171791554Y-95860521D01*
X171831328Y-95660562D01*
X171831328Y-95456684D01*
X171791554Y-95256725D01*
X171713533Y-95068367D01*
X171600265Y-94898849D01*
X171456102Y-94754686D01*
X171286584Y-94641418D01*
X171098226Y-94563397D01*
X170898267Y-94523623D01*
X170708503Y-94523623D01*
X170687010Y-94491457D01*
X170542847Y-94347294D01*
X170376800Y-94236345D01*
X170376800Y-94182861D01*
X170337026Y-93982902D01*
X170259005Y-93794544D01*
X170145737Y-93625026D01*
X170001574Y-93480863D01*
X169832056Y-93367595D01*
X169643698Y-93289574D01*
X169443739Y-93249800D01*
X169239861Y-93249800D01*
X169039902Y-93289574D01*
X168851544Y-93367595D01*
X168682026Y-93480863D01*
X168537863Y-93625026D01*
X168424595Y-93794544D01*
X168346574Y-93982902D01*
X168306800Y-94182861D01*
X168306800Y-94386739D01*
X168346574Y-94586698D01*
X168424595Y-94775056D01*
X168521074Y-94919447D01*
X168521073Y-102824566D01*
X168480174Y-102774730D01*
X168480166Y-102774722D01*
X168458303Y-102748082D01*
X168431662Y-102726218D01*
X167902820Y-102197377D01*
X167902820Y-102048266D01*
X167863046Y-101848307D01*
X167785025Y-101659949D01*
X167671757Y-101490431D01*
X167527594Y-101346268D01*
X167358076Y-101233000D01*
X167169718Y-101154979D01*
X166969759Y-101115205D01*
X166765881Y-101115205D01*
X166565922Y-101154979D01*
X166377564Y-101233000D01*
X166208046Y-101346268D01*
X166063883Y-101490431D01*
X165950615Y-101659949D01*
X165872594Y-101848307D01*
X165855032Y-101936600D01*
X165747361Y-101936600D01*
X165547402Y-101976374D01*
X165518500Y-101988346D01*
X165518500Y-99722567D01*
X165696061Y-99757886D01*
X165899939Y-99757886D01*
X166099898Y-99718112D01*
X166288256Y-99640091D01*
X166457774Y-99526823D01*
X166601937Y-99382660D01*
X166715205Y-99213142D01*
X166793226Y-99024784D01*
X166833000Y-98824825D01*
X166833000Y-98620947D01*
X166793226Y-98420988D01*
X166767369Y-98358565D01*
X166920900Y-98328026D01*
X167109258Y-98250005D01*
X167278776Y-98136737D01*
X167422939Y-97992574D01*
X167536207Y-97823056D01*
X167614228Y-97634698D01*
X167654002Y-97434739D01*
X167654002Y-97230861D01*
X167614228Y-97030902D01*
X167536207Y-96842544D01*
X167422939Y-96673026D01*
X167317502Y-96567589D01*
X167317502Y-94429450D01*
X167378705Y-94337853D01*
X167456726Y-94149495D01*
X167496500Y-93949536D01*
X167496500Y-93745658D01*
X167456726Y-93545699D01*
X167378705Y-93357341D01*
X167265437Y-93187823D01*
X167121274Y-93043660D01*
X166951756Y-92930392D01*
X166763398Y-92852371D01*
X166563439Y-92812597D01*
X166503609Y-92812597D01*
X166478726Y-92687502D01*
X166400705Y-92499144D01*
X166287437Y-92329626D01*
X166194721Y-92236910D01*
X173285200Y-92236910D01*
X173285200Y-92300022D01*
G37*
X173285200Y-92300022D02*
X173220008Y-92379458D01*
X173155148Y-92500803D01*
X173140803Y-92548092D01*
X173115207Y-92632471D01*
X173105589Y-92730123D01*
X173101721Y-92769401D01*
X173105100Y-92803709D01*
X173105100Y-97047100D01*
X172948261Y-97047100D01*
X172748302Y-97086874D01*
X172559944Y-97164895D01*
X172390426Y-97278163D01*
X172246263Y-97422326D01*
X172132995Y-97591844D01*
X172054974Y-97780202D01*
X172015200Y-97980161D01*
X172015200Y-98174189D01*
X171995474Y-98154463D01*
X171825956Y-98041195D01*
X171637598Y-97963174D01*
X171437639Y-97923400D01*
X171245073Y-97923400D01*
X171245073Y-96493023D01*
X171286584Y-96475828D01*
X171456102Y-96362560D01*
X171600265Y-96218397D01*
X171713533Y-96048879D01*
X171791554Y-95860521D01*
X171831328Y-95660562D01*
X171831328Y-95456684D01*
X171791554Y-95256725D01*
X171713533Y-95068367D01*
X171600265Y-94898849D01*
X171456102Y-94754686D01*
X171286584Y-94641418D01*
X171098226Y-94563397D01*
X170898267Y-94523623D01*
X170708503Y-94523623D01*
X170687010Y-94491457D01*
X170542847Y-94347294D01*
X170376800Y-94236345D01*
X170376800Y-94182861D01*
X170337026Y-93982902D01*
X170259005Y-93794544D01*
X170145737Y-93625026D01*
X170001574Y-93480863D01*
X169832056Y-93367595D01*
X169643698Y-93289574D01*
X169443739Y-93249800D01*
X169239861Y-93249800D01*
X169039902Y-93289574D01*
X168851544Y-93367595D01*
X168682026Y-93480863D01*
X168537863Y-93625026D01*
X168424595Y-93794544D01*
X168346574Y-93982902D01*
X168306800Y-94182861D01*
X168306800Y-94386739D01*
X168346574Y-94586698D01*
X168424595Y-94775056D01*
X168521074Y-94919447D01*
X168521073Y-102824566D01*
X168480174Y-102774730D01*
X168480166Y-102774722D01*
X168458303Y-102748082D01*
X168431662Y-102726218D01*
X167902820Y-102197377D01*
X167902820Y-102048266D01*
X167863046Y-101848307D01*
X167785025Y-101659949D01*
X167671757Y-101490431D01*
X167527594Y-101346268D01*
X167358076Y-101233000D01*
X167169718Y-101154979D01*
X166969759Y-101115205D01*
X166765881Y-101115205D01*
X166565922Y-101154979D01*
X166377564Y-101233000D01*
X166208046Y-101346268D01*
X166063883Y-101490431D01*
X165950615Y-101659949D01*
X165872594Y-101848307D01*
X165855032Y-101936600D01*
X165747361Y-101936600D01*
X165547402Y-101976374D01*
X165518500Y-101988346D01*
X165518500Y-99722567D01*
X165696061Y-99757886D01*
X165899939Y-99757886D01*
X166099898Y-99718112D01*
X166288256Y-99640091D01*
X166457774Y-99526823D01*
X166601937Y-99382660D01*
X166715205Y-99213142D01*
X166793226Y-99024784D01*
X166833000Y-98824825D01*
X166833000Y-98620947D01*
X166793226Y-98420988D01*
X166767369Y-98358565D01*
X166920900Y-98328026D01*
X167109258Y-98250005D01*
X167278776Y-98136737D01*
X167422939Y-97992574D01*
X167536207Y-97823056D01*
X167614228Y-97634698D01*
X167654002Y-97434739D01*
X167654002Y-97230861D01*
X167614228Y-97030902D01*
X167536207Y-96842544D01*
X167422939Y-96673026D01*
X167317502Y-96567589D01*
X167317502Y-94429450D01*
X167378705Y-94337853D01*
X167456726Y-94149495D01*
X167496500Y-93949536D01*
X167496500Y-93745658D01*
X167456726Y-93545699D01*
X167378705Y-93357341D01*
X167265437Y-93187823D01*
X167121274Y-93043660D01*
X166951756Y-92930392D01*
X166763398Y-92852371D01*
X166563439Y-92812597D01*
X166503609Y-92812597D01*
X166478726Y-92687502D01*
X166400705Y-92499144D01*
X166287437Y-92329626D01*
X166194721Y-92236910D01*
X173285200Y-92236910D01*
X173285200Y-92300022D01*
M02*
