G04 #@! TF.GenerationSoftware,KiCad,Pcbnew,(5.1.5-0-10_14)*
G04 #@! TF.CreationDate,2020-06-06T08:29:19+02:00*
G04 #@! TF.ProjectId,ps2zx,7073327a-782e-46b6-9963-61645f706362,rev?*
G04 #@! TF.SameCoordinates,Original*
G04 #@! TF.FileFunction,Soldermask,Bot*
G04 #@! TF.FilePolarity,Negative*
%FSLAX46Y46*%
G04 Gerber Fmt 4.6, Leading zero omitted, Abs format (unit mm)*
G04 Created by KiCad (PCBNEW (5.1.5-0-10_14)) date 2020-06-06 08:29:19*
%MOMM*%
%LPD*%
G04 APERTURE LIST*
%ADD10C,0.100000*%
G04 APERTURE END LIST*
D10*
G36*
X165665097Y-119444069D02*
G01*
X165768032Y-119454207D01*
X165966146Y-119514305D01*
X165966149Y-119514306D01*
X166062975Y-119566061D01*
X166148729Y-119611897D01*
X166308765Y-119743235D01*
X166440103Y-119903271D01*
X166485939Y-119989025D01*
X166537694Y-120085851D01*
X166537695Y-120085854D01*
X166597793Y-120283968D01*
X166618085Y-120490000D01*
X166597793Y-120696032D01*
X166537695Y-120894146D01*
X166537694Y-120894149D01*
X166485939Y-120990975D01*
X166440103Y-121076729D01*
X166308765Y-121236765D01*
X166148729Y-121368103D01*
X166062975Y-121413939D01*
X165966149Y-121465694D01*
X165966146Y-121465695D01*
X165768032Y-121525793D01*
X165665097Y-121535931D01*
X165613631Y-121541000D01*
X163510369Y-121541000D01*
X163458903Y-121535931D01*
X163355968Y-121525793D01*
X163157854Y-121465695D01*
X163157851Y-121465694D01*
X163061025Y-121413939D01*
X162975271Y-121368103D01*
X162815235Y-121236765D01*
X162683897Y-121076729D01*
X162638061Y-120990975D01*
X162586306Y-120894149D01*
X162586305Y-120894146D01*
X162526207Y-120696032D01*
X162505915Y-120490000D01*
X162526207Y-120283968D01*
X162586305Y-120085854D01*
X162586306Y-120085851D01*
X162638061Y-119989025D01*
X162683897Y-119903271D01*
X162815235Y-119743235D01*
X162975271Y-119611897D01*
X163061025Y-119566061D01*
X163157851Y-119514306D01*
X163157854Y-119514305D01*
X163355968Y-119454207D01*
X163458903Y-119444069D01*
X163510369Y-119439000D01*
X165613631Y-119439000D01*
X165665097Y-119444069D01*
G37*
G36*
X171618031Y-117904207D02*
G01*
X171816145Y-117964305D01*
X171816148Y-117964306D01*
X171882030Y-117999521D01*
X171998729Y-118061897D01*
X172158765Y-118193235D01*
X172290103Y-118353271D01*
X172290104Y-118353273D01*
X172387694Y-118535851D01*
X172387694Y-118535852D01*
X172387695Y-118535854D01*
X172447793Y-118733968D01*
X172463000Y-118888370D01*
X172463000Y-120491630D01*
X172447793Y-120646032D01*
X172432626Y-120696030D01*
X172387694Y-120844149D01*
X172360970Y-120894146D01*
X172290103Y-121026729D01*
X172158765Y-121186765D01*
X171998729Y-121318103D01*
X171912975Y-121363939D01*
X171816149Y-121415694D01*
X171816146Y-121415695D01*
X171618032Y-121475793D01*
X171412000Y-121496085D01*
X171205969Y-121475793D01*
X171007855Y-121415695D01*
X171007852Y-121415694D01*
X170911026Y-121363939D01*
X170825272Y-121318103D01*
X170665236Y-121186765D01*
X170533898Y-121026729D01*
X170499904Y-120963130D01*
X170436305Y-120844146D01*
X170376207Y-120646033D01*
X170361000Y-120491631D01*
X170361000Y-118888370D01*
X170376207Y-118733971D01*
X170376207Y-118733969D01*
X170436305Y-118535855D01*
X170436306Y-118535852D01*
X170471521Y-118469970D01*
X170533897Y-118353271D01*
X170665235Y-118193235D01*
X170825271Y-118061897D01*
X170911025Y-118016061D01*
X171007851Y-117964306D01*
X171007854Y-117964305D01*
X171205968Y-117904207D01*
X171412000Y-117883915D01*
X171618031Y-117904207D01*
G37*
G36*
X157918031Y-117904207D02*
G01*
X158116145Y-117964305D01*
X158116148Y-117964306D01*
X158182030Y-117999521D01*
X158298729Y-118061897D01*
X158458765Y-118193235D01*
X158590103Y-118353271D01*
X158590104Y-118353273D01*
X158687694Y-118535851D01*
X158687694Y-118535852D01*
X158687695Y-118535854D01*
X158747793Y-118733968D01*
X158763000Y-118888370D01*
X158763000Y-120491630D01*
X158747793Y-120646032D01*
X158732626Y-120696030D01*
X158687694Y-120844149D01*
X158660970Y-120894146D01*
X158590103Y-121026729D01*
X158458765Y-121186765D01*
X158298729Y-121318103D01*
X158212975Y-121363939D01*
X158116149Y-121415694D01*
X158116146Y-121415695D01*
X157918032Y-121475793D01*
X157712000Y-121496085D01*
X157505969Y-121475793D01*
X157307855Y-121415695D01*
X157307852Y-121415694D01*
X157211026Y-121363939D01*
X157125272Y-121318103D01*
X156965236Y-121186765D01*
X156833898Y-121026729D01*
X156799904Y-120963130D01*
X156736305Y-120844146D01*
X156676207Y-120646033D01*
X156661000Y-120491631D01*
X156661000Y-118888370D01*
X156676207Y-118733971D01*
X156676207Y-118733969D01*
X156736305Y-118535855D01*
X156736306Y-118535852D01*
X156771521Y-118469970D01*
X156833897Y-118353271D01*
X156965235Y-118193235D01*
X157125271Y-118061897D01*
X157211025Y-118016061D01*
X157307851Y-117964306D01*
X157307854Y-117964305D01*
X157505968Y-117904207D01*
X157712000Y-117883915D01*
X157918031Y-117904207D01*
G37*
G36*
X161410228Y-116021703D02*
G01*
X161565100Y-116085853D01*
X161704481Y-116178985D01*
X161823015Y-116297519D01*
X161916147Y-116436900D01*
X161980297Y-116591772D01*
X162013000Y-116756184D01*
X162013000Y-116923816D01*
X161980297Y-117088228D01*
X161916147Y-117243100D01*
X161823015Y-117382481D01*
X161704481Y-117501015D01*
X161565100Y-117594147D01*
X161410228Y-117658297D01*
X161245816Y-117691000D01*
X161078184Y-117691000D01*
X160913772Y-117658297D01*
X160758900Y-117594147D01*
X160619519Y-117501015D01*
X160500985Y-117382481D01*
X160407853Y-117243100D01*
X160343703Y-117088228D01*
X160311000Y-116923816D01*
X160311000Y-116756184D01*
X160343703Y-116591772D01*
X160407853Y-116436900D01*
X160500985Y-116297519D01*
X160619519Y-116178985D01*
X160758900Y-116085853D01*
X160913772Y-116021703D01*
X161078184Y-115989000D01*
X161245816Y-115989000D01*
X161410228Y-116021703D01*
G37*
G36*
X163510228Y-116021703D02*
G01*
X163665100Y-116085853D01*
X163804481Y-116178985D01*
X163923015Y-116297519D01*
X164016147Y-116436900D01*
X164080297Y-116591772D01*
X164113000Y-116756184D01*
X164113000Y-116923816D01*
X164080297Y-117088228D01*
X164016147Y-117243100D01*
X163923015Y-117382481D01*
X163804481Y-117501015D01*
X163665100Y-117594147D01*
X163510228Y-117658297D01*
X163345816Y-117691000D01*
X163178184Y-117691000D01*
X163013772Y-117658297D01*
X162858900Y-117594147D01*
X162719519Y-117501015D01*
X162600985Y-117382481D01*
X162507853Y-117243100D01*
X162443703Y-117088228D01*
X162411000Y-116923816D01*
X162411000Y-116756184D01*
X162443703Y-116591772D01*
X162507853Y-116436900D01*
X162600985Y-116297519D01*
X162719519Y-116178985D01*
X162858900Y-116085853D01*
X163013772Y-116021703D01*
X163178184Y-115989000D01*
X163345816Y-115989000D01*
X163510228Y-116021703D01*
G37*
G36*
X166713000Y-117691000D02*
G01*
X165011000Y-117691000D01*
X165011000Y-115989000D01*
X166713000Y-115989000D01*
X166713000Y-117691000D01*
G37*
G36*
X168210228Y-116021703D02*
G01*
X168365100Y-116085853D01*
X168504481Y-116178985D01*
X168623015Y-116297519D01*
X168716147Y-116436900D01*
X168780297Y-116591772D01*
X168813000Y-116756184D01*
X168813000Y-116923816D01*
X168780297Y-117088228D01*
X168716147Y-117243100D01*
X168623015Y-117382481D01*
X168504481Y-117501015D01*
X168365100Y-117594147D01*
X168210228Y-117658297D01*
X168045816Y-117691000D01*
X167878184Y-117691000D01*
X167713772Y-117658297D01*
X167558900Y-117594147D01*
X167419519Y-117501015D01*
X167300985Y-117382481D01*
X167207853Y-117243100D01*
X167143703Y-117088228D01*
X167111000Y-116923816D01*
X167111000Y-116756184D01*
X167143703Y-116591772D01*
X167207853Y-116436900D01*
X167300985Y-116297519D01*
X167419519Y-116178985D01*
X167558900Y-116085853D01*
X167713772Y-116021703D01*
X167878184Y-115989000D01*
X168045816Y-115989000D01*
X168210228Y-116021703D01*
G37*
G36*
X168210228Y-113221703D02*
G01*
X168365100Y-113285853D01*
X168504481Y-113378985D01*
X168623015Y-113497519D01*
X168716147Y-113636900D01*
X168780297Y-113791772D01*
X168813000Y-113956184D01*
X168813000Y-114123816D01*
X168780297Y-114288228D01*
X168716147Y-114443100D01*
X168623015Y-114582481D01*
X168504481Y-114701015D01*
X168365100Y-114794147D01*
X168210228Y-114858297D01*
X168045816Y-114891000D01*
X167878184Y-114891000D01*
X167713772Y-114858297D01*
X167558900Y-114794147D01*
X167419519Y-114701015D01*
X167300985Y-114582481D01*
X167207853Y-114443100D01*
X167143703Y-114288228D01*
X167111000Y-114123816D01*
X167111000Y-113956184D01*
X167143703Y-113791772D01*
X167207853Y-113636900D01*
X167300985Y-113497519D01*
X167419519Y-113378985D01*
X167558900Y-113285853D01*
X167713772Y-113221703D01*
X167878184Y-113189000D01*
X168045816Y-113189000D01*
X168210228Y-113221703D01*
G37*
G36*
X161410228Y-113221703D02*
G01*
X161565100Y-113285853D01*
X161704481Y-113378985D01*
X161823015Y-113497519D01*
X161916147Y-113636900D01*
X161980297Y-113791772D01*
X162013000Y-113956184D01*
X162013000Y-114123816D01*
X161980297Y-114288228D01*
X161916147Y-114443100D01*
X161823015Y-114582481D01*
X161704481Y-114701015D01*
X161565100Y-114794147D01*
X161410228Y-114858297D01*
X161245816Y-114891000D01*
X161078184Y-114891000D01*
X160913772Y-114858297D01*
X160758900Y-114794147D01*
X160619519Y-114701015D01*
X160500985Y-114582481D01*
X160407853Y-114443100D01*
X160343703Y-114288228D01*
X160311000Y-114123816D01*
X160311000Y-113956184D01*
X160343703Y-113791772D01*
X160407853Y-113636900D01*
X160500985Y-113497519D01*
X160619519Y-113378985D01*
X160758900Y-113285853D01*
X160913772Y-113221703D01*
X161078184Y-113189000D01*
X161245816Y-113189000D01*
X161410228Y-113221703D01*
G37*
G36*
X139813512Y-110863927D02*
G01*
X139962812Y-110893624D01*
X140126784Y-110961544D01*
X140274354Y-111060147D01*
X140399853Y-111185646D01*
X140498456Y-111333216D01*
X140566376Y-111497188D01*
X140601000Y-111671259D01*
X140601000Y-111848741D01*
X140566376Y-112022812D01*
X140498456Y-112186784D01*
X140399853Y-112334354D01*
X140274354Y-112459853D01*
X140126784Y-112558456D01*
X139962812Y-112626376D01*
X139813512Y-112656073D01*
X139788742Y-112661000D01*
X139611258Y-112661000D01*
X139586488Y-112656073D01*
X139437188Y-112626376D01*
X139273216Y-112558456D01*
X139125646Y-112459853D01*
X139000147Y-112334354D01*
X138901544Y-112186784D01*
X138833624Y-112022812D01*
X138799000Y-111848741D01*
X138799000Y-111671259D01*
X138833624Y-111497188D01*
X138901544Y-111333216D01*
X139000147Y-111185646D01*
X139125646Y-111060147D01*
X139273216Y-110961544D01*
X139437188Y-110893624D01*
X139586488Y-110863927D01*
X139611258Y-110859000D01*
X139788742Y-110859000D01*
X139813512Y-110863927D01*
G37*
G36*
X139813512Y-108323927D02*
G01*
X139962812Y-108353624D01*
X140126784Y-108421544D01*
X140274354Y-108520147D01*
X140399853Y-108645646D01*
X140498456Y-108793216D01*
X140566376Y-108957188D01*
X140601000Y-109131259D01*
X140601000Y-109308741D01*
X140566376Y-109482812D01*
X140498456Y-109646784D01*
X140399853Y-109794354D01*
X140274354Y-109919853D01*
X140126784Y-110018456D01*
X139962812Y-110086376D01*
X139813512Y-110116073D01*
X139788742Y-110121000D01*
X139611258Y-110121000D01*
X139586488Y-110116073D01*
X139437188Y-110086376D01*
X139273216Y-110018456D01*
X139125646Y-109919853D01*
X139000147Y-109794354D01*
X138901544Y-109646784D01*
X138833624Y-109482812D01*
X138799000Y-109308741D01*
X138799000Y-109131259D01*
X138833624Y-108957188D01*
X138901544Y-108793216D01*
X139000147Y-108645646D01*
X139125646Y-108520147D01*
X139273216Y-108421544D01*
X139437188Y-108353624D01*
X139586488Y-108323927D01*
X139611258Y-108319000D01*
X139788742Y-108319000D01*
X139813512Y-108323927D01*
G37*
G36*
X175030612Y-107269827D02*
G01*
X175179912Y-107299524D01*
X175343884Y-107367444D01*
X175491454Y-107466047D01*
X175616953Y-107591546D01*
X175715556Y-107739116D01*
X175783476Y-107903088D01*
X175818100Y-108077159D01*
X175818100Y-108254641D01*
X175783476Y-108428712D01*
X175715556Y-108592684D01*
X175616953Y-108740254D01*
X175491454Y-108865753D01*
X175343884Y-108964356D01*
X175179912Y-109032276D01*
X175030612Y-109061973D01*
X175005842Y-109066900D01*
X174828358Y-109066900D01*
X174803588Y-109061973D01*
X174654288Y-109032276D01*
X174490316Y-108964356D01*
X174342746Y-108865753D01*
X174217247Y-108740254D01*
X174118644Y-108592684D01*
X174050724Y-108428712D01*
X174016100Y-108254641D01*
X174016100Y-108077159D01*
X174050724Y-107903088D01*
X174118644Y-107739116D01*
X174217247Y-107591546D01*
X174342746Y-107466047D01*
X174490316Y-107367444D01*
X174654288Y-107299524D01*
X174803588Y-107269827D01*
X174828358Y-107264900D01*
X175005842Y-107264900D01*
X175030612Y-107269827D01*
G37*
G36*
X177570612Y-107269827D02*
G01*
X177719912Y-107299524D01*
X177883884Y-107367444D01*
X178031454Y-107466047D01*
X178156953Y-107591546D01*
X178255556Y-107739116D01*
X178323476Y-107903088D01*
X178358100Y-108077159D01*
X178358100Y-108254641D01*
X178323476Y-108428712D01*
X178255556Y-108592684D01*
X178156953Y-108740254D01*
X178031454Y-108865753D01*
X177883884Y-108964356D01*
X177719912Y-109032276D01*
X177570612Y-109061973D01*
X177545842Y-109066900D01*
X177368358Y-109066900D01*
X177343588Y-109061973D01*
X177194288Y-109032276D01*
X177030316Y-108964356D01*
X176882746Y-108865753D01*
X176757247Y-108740254D01*
X176658644Y-108592684D01*
X176590724Y-108428712D01*
X176556100Y-108254641D01*
X176556100Y-108077159D01*
X176590724Y-107903088D01*
X176658644Y-107739116D01*
X176757247Y-107591546D01*
X176882746Y-107466047D01*
X177030316Y-107367444D01*
X177194288Y-107299524D01*
X177343588Y-107269827D01*
X177368358Y-107264900D01*
X177545842Y-107264900D01*
X177570612Y-107269827D01*
G37*
G36*
X139813512Y-105783927D02*
G01*
X139962812Y-105813624D01*
X140126784Y-105881544D01*
X140274354Y-105980147D01*
X140399853Y-106105646D01*
X140498456Y-106253216D01*
X140566376Y-106417188D01*
X140601000Y-106591259D01*
X140601000Y-106768741D01*
X140566376Y-106942812D01*
X140498456Y-107106784D01*
X140399853Y-107254354D01*
X140274354Y-107379853D01*
X140126784Y-107478456D01*
X139962812Y-107546376D01*
X139813512Y-107576073D01*
X139788742Y-107581000D01*
X139611258Y-107581000D01*
X139586488Y-107576073D01*
X139437188Y-107546376D01*
X139273216Y-107478456D01*
X139125646Y-107379853D01*
X139000147Y-107254354D01*
X138901544Y-107106784D01*
X138833624Y-106942812D01*
X138799000Y-106768741D01*
X138799000Y-106591259D01*
X138833624Y-106417188D01*
X138901544Y-106253216D01*
X139000147Y-106105646D01*
X139125646Y-105980147D01*
X139273216Y-105881544D01*
X139437188Y-105813624D01*
X139586488Y-105783927D01*
X139611258Y-105779000D01*
X139788742Y-105779000D01*
X139813512Y-105783927D01*
G37*
G36*
X177570612Y-104729827D02*
G01*
X177719912Y-104759524D01*
X177883884Y-104827444D01*
X178031454Y-104926047D01*
X178156953Y-105051546D01*
X178255556Y-105199116D01*
X178323476Y-105363088D01*
X178358100Y-105537159D01*
X178358100Y-105714641D01*
X178323476Y-105888712D01*
X178255556Y-106052684D01*
X178156953Y-106200254D01*
X178031454Y-106325753D01*
X177883884Y-106424356D01*
X177719912Y-106492276D01*
X177570612Y-106521973D01*
X177545842Y-106526900D01*
X177368358Y-106526900D01*
X177343588Y-106521973D01*
X177194288Y-106492276D01*
X177030316Y-106424356D01*
X176882746Y-106325753D01*
X176757247Y-106200254D01*
X176658644Y-106052684D01*
X176590724Y-105888712D01*
X176556100Y-105714641D01*
X176556100Y-105537159D01*
X176590724Y-105363088D01*
X176658644Y-105199116D01*
X176757247Y-105051546D01*
X176882746Y-104926047D01*
X177030316Y-104827444D01*
X177194288Y-104759524D01*
X177343588Y-104729827D01*
X177368358Y-104724900D01*
X177545842Y-104724900D01*
X177570612Y-104729827D01*
G37*
G36*
X175030612Y-104729827D02*
G01*
X175179912Y-104759524D01*
X175343884Y-104827444D01*
X175491454Y-104926047D01*
X175616953Y-105051546D01*
X175715556Y-105199116D01*
X175783476Y-105363088D01*
X175818100Y-105537159D01*
X175818100Y-105714641D01*
X175783476Y-105888712D01*
X175715556Y-106052684D01*
X175616953Y-106200254D01*
X175491454Y-106325753D01*
X175343884Y-106424356D01*
X175179912Y-106492276D01*
X175030612Y-106521973D01*
X175005842Y-106526900D01*
X174828358Y-106526900D01*
X174803588Y-106521973D01*
X174654288Y-106492276D01*
X174490316Y-106424356D01*
X174342746Y-106325753D01*
X174217247Y-106200254D01*
X174118644Y-106052684D01*
X174050724Y-105888712D01*
X174016100Y-105714641D01*
X174016100Y-105537159D01*
X174050724Y-105363088D01*
X174118644Y-105199116D01*
X174217247Y-105051546D01*
X174342746Y-104926047D01*
X174490316Y-104827444D01*
X174654288Y-104759524D01*
X174803588Y-104729827D01*
X174828358Y-104724900D01*
X175005842Y-104724900D01*
X175030612Y-104729827D01*
G37*
G36*
X140601000Y-105041000D02*
G01*
X138799000Y-105041000D01*
X138799000Y-103239000D01*
X140601000Y-103239000D01*
X140601000Y-105041000D01*
G37*
G36*
X175030612Y-102189827D02*
G01*
X175179912Y-102219524D01*
X175343884Y-102287444D01*
X175491454Y-102386047D01*
X175616953Y-102511546D01*
X175715556Y-102659116D01*
X175783476Y-102823088D01*
X175818100Y-102997159D01*
X175818100Y-103174641D01*
X175783476Y-103348712D01*
X175715556Y-103512684D01*
X175616953Y-103660254D01*
X175491454Y-103785753D01*
X175343884Y-103884356D01*
X175179912Y-103952276D01*
X175030612Y-103981973D01*
X175005842Y-103986900D01*
X174828358Y-103986900D01*
X174803588Y-103981973D01*
X174654288Y-103952276D01*
X174490316Y-103884356D01*
X174342746Y-103785753D01*
X174217247Y-103660254D01*
X174118644Y-103512684D01*
X174050724Y-103348712D01*
X174016100Y-103174641D01*
X174016100Y-102997159D01*
X174050724Y-102823088D01*
X174118644Y-102659116D01*
X174217247Y-102511546D01*
X174342746Y-102386047D01*
X174490316Y-102287444D01*
X174654288Y-102219524D01*
X174803588Y-102189827D01*
X174828358Y-102184900D01*
X175005842Y-102184900D01*
X175030612Y-102189827D01*
G37*
G36*
X177570612Y-102189827D02*
G01*
X177719912Y-102219524D01*
X177883884Y-102287444D01*
X178031454Y-102386047D01*
X178156953Y-102511546D01*
X178255556Y-102659116D01*
X178323476Y-102823088D01*
X178358100Y-102997159D01*
X178358100Y-103174641D01*
X178323476Y-103348712D01*
X178255556Y-103512684D01*
X178156953Y-103660254D01*
X178031454Y-103785753D01*
X177883884Y-103884356D01*
X177719912Y-103952276D01*
X177570612Y-103981973D01*
X177545842Y-103986900D01*
X177368358Y-103986900D01*
X177343588Y-103981973D01*
X177194288Y-103952276D01*
X177030316Y-103884356D01*
X176882746Y-103785753D01*
X176757247Y-103660254D01*
X176658644Y-103512684D01*
X176590724Y-103348712D01*
X176556100Y-103174641D01*
X176556100Y-102997159D01*
X176590724Y-102823088D01*
X176658644Y-102659116D01*
X176757247Y-102511546D01*
X176882746Y-102386047D01*
X177030316Y-102287444D01*
X177194288Y-102219524D01*
X177343588Y-102189827D01*
X177368358Y-102184900D01*
X177545842Y-102184900D01*
X177570612Y-102189827D01*
G37*
G36*
X175030612Y-99649827D02*
G01*
X175179912Y-99679524D01*
X175343884Y-99747444D01*
X175491454Y-99846047D01*
X175616953Y-99971546D01*
X175715556Y-100119116D01*
X175783476Y-100283088D01*
X175818100Y-100457159D01*
X175818100Y-100634641D01*
X175783476Y-100808712D01*
X175715556Y-100972684D01*
X175616953Y-101120254D01*
X175491454Y-101245753D01*
X175343884Y-101344356D01*
X175179912Y-101412276D01*
X175030612Y-101441973D01*
X175005842Y-101446900D01*
X174828358Y-101446900D01*
X174803588Y-101441973D01*
X174654288Y-101412276D01*
X174490316Y-101344356D01*
X174342746Y-101245753D01*
X174217247Y-101120254D01*
X174118644Y-100972684D01*
X174050724Y-100808712D01*
X174016100Y-100634641D01*
X174016100Y-100457159D01*
X174050724Y-100283088D01*
X174118644Y-100119116D01*
X174217247Y-99971546D01*
X174342746Y-99846047D01*
X174490316Y-99747444D01*
X174654288Y-99679524D01*
X174803588Y-99649827D01*
X174828358Y-99644900D01*
X175005842Y-99644900D01*
X175030612Y-99649827D01*
G37*
G36*
X177570612Y-99649827D02*
G01*
X177719912Y-99679524D01*
X177883884Y-99747444D01*
X178031454Y-99846047D01*
X178156953Y-99971546D01*
X178255556Y-100119116D01*
X178323476Y-100283088D01*
X178358100Y-100457159D01*
X178358100Y-100634641D01*
X178323476Y-100808712D01*
X178255556Y-100972684D01*
X178156953Y-101120254D01*
X178031454Y-101245753D01*
X177883884Y-101344356D01*
X177719912Y-101412276D01*
X177570612Y-101441973D01*
X177545842Y-101446900D01*
X177368358Y-101446900D01*
X177343588Y-101441973D01*
X177194288Y-101412276D01*
X177030316Y-101344356D01*
X176882746Y-101245753D01*
X176757247Y-101120254D01*
X176658644Y-100972684D01*
X176590724Y-100808712D01*
X176556100Y-100634641D01*
X176556100Y-100457159D01*
X176590724Y-100283088D01*
X176658644Y-100119116D01*
X176757247Y-99971546D01*
X176882746Y-99846047D01*
X177030316Y-99747444D01*
X177194288Y-99679524D01*
X177343588Y-99649827D01*
X177368358Y-99644900D01*
X177545842Y-99644900D01*
X177570612Y-99649827D01*
G37*
G36*
X149585642Y-99305781D02*
G01*
X149731414Y-99366162D01*
X149731416Y-99366163D01*
X149862608Y-99453822D01*
X149974178Y-99565392D01*
X150061837Y-99696584D01*
X150061838Y-99696586D01*
X150122219Y-99842358D01*
X150153000Y-99997107D01*
X150153000Y-100154893D01*
X150122219Y-100309642D01*
X150061838Y-100455414D01*
X150061837Y-100455416D01*
X149974178Y-100586608D01*
X149862608Y-100698178D01*
X149731416Y-100785837D01*
X149731415Y-100785838D01*
X149731414Y-100785838D01*
X149585642Y-100846219D01*
X149430893Y-100877000D01*
X149273107Y-100877000D01*
X149118358Y-100846219D01*
X148972586Y-100785838D01*
X148972585Y-100785838D01*
X148972584Y-100785837D01*
X148841392Y-100698178D01*
X148729822Y-100586608D01*
X148642163Y-100455416D01*
X148642162Y-100455414D01*
X148581781Y-100309642D01*
X148551000Y-100154893D01*
X148551000Y-99997107D01*
X148581781Y-99842358D01*
X148642162Y-99696586D01*
X148642163Y-99696584D01*
X148729822Y-99565392D01*
X148841392Y-99453822D01*
X148972584Y-99366163D01*
X148972586Y-99366162D01*
X149118358Y-99305781D01*
X149273107Y-99275000D01*
X149430893Y-99275000D01*
X149585642Y-99305781D01*
G37*
G36*
X175818100Y-98906900D02*
G01*
X174016100Y-98906900D01*
X174016100Y-97104900D01*
X175818100Y-97104900D01*
X175818100Y-98906900D01*
G37*
G36*
X177570612Y-97109827D02*
G01*
X177719912Y-97139524D01*
X177883884Y-97207444D01*
X178031454Y-97306047D01*
X178156953Y-97431546D01*
X178255556Y-97579116D01*
X178323476Y-97743088D01*
X178358100Y-97917159D01*
X178358100Y-98094641D01*
X178323476Y-98268712D01*
X178255556Y-98432684D01*
X178156953Y-98580254D01*
X178031454Y-98705753D01*
X177883884Y-98804356D01*
X177719912Y-98872276D01*
X177570612Y-98901973D01*
X177545842Y-98906900D01*
X177368358Y-98906900D01*
X177343588Y-98901973D01*
X177194288Y-98872276D01*
X177030316Y-98804356D01*
X176882746Y-98705753D01*
X176757247Y-98580254D01*
X176658644Y-98432684D01*
X176590724Y-98268712D01*
X176556100Y-98094641D01*
X176556100Y-97917159D01*
X176590724Y-97743088D01*
X176658644Y-97579116D01*
X176757247Y-97431546D01*
X176882746Y-97306047D01*
X177030316Y-97207444D01*
X177194288Y-97139524D01*
X177343588Y-97109827D01*
X177368358Y-97104900D01*
X177545842Y-97104900D01*
X177570612Y-97109827D01*
G37*
G36*
X149585642Y-94425781D02*
G01*
X149731414Y-94486162D01*
X149731416Y-94486163D01*
X149862608Y-94573822D01*
X149974178Y-94685392D01*
X150061837Y-94816584D01*
X150061838Y-94816586D01*
X150122219Y-94962358D01*
X150153000Y-95117107D01*
X150153000Y-95274893D01*
X150122219Y-95429642D01*
X150061838Y-95575414D01*
X150061837Y-95575416D01*
X149974178Y-95706608D01*
X149862608Y-95818178D01*
X149731416Y-95905837D01*
X149731415Y-95905838D01*
X149731414Y-95905838D01*
X149585642Y-95966219D01*
X149430893Y-95997000D01*
X149273107Y-95997000D01*
X149118358Y-95966219D01*
X148972586Y-95905838D01*
X148972585Y-95905838D01*
X148972584Y-95905837D01*
X148841392Y-95818178D01*
X148729822Y-95706608D01*
X148642163Y-95575416D01*
X148642162Y-95575414D01*
X148581781Y-95429642D01*
X148551000Y-95274893D01*
X148551000Y-95117107D01*
X148581781Y-94962358D01*
X148642162Y-94816586D01*
X148642163Y-94816584D01*
X148729822Y-94685392D01*
X148841392Y-94573822D01*
X148972584Y-94486163D01*
X148972586Y-94486162D01*
X149118358Y-94425781D01*
X149273107Y-94395000D01*
X149430893Y-94395000D01*
X149585642Y-94425781D01*
G37*
G36*
X148221000Y-89801000D02*
G01*
X146419000Y-89801000D01*
X146419000Y-87999000D01*
X148221000Y-87999000D01*
X148221000Y-89801000D01*
G37*
G36*
X149973512Y-88003927D02*
G01*
X150122812Y-88033624D01*
X150286784Y-88101544D01*
X150434354Y-88200147D01*
X150559853Y-88325646D01*
X150658456Y-88473216D01*
X150726376Y-88637188D01*
X150761000Y-88811259D01*
X150761000Y-88988741D01*
X150726376Y-89162812D01*
X150658456Y-89326784D01*
X150559853Y-89474354D01*
X150434354Y-89599853D01*
X150286784Y-89698456D01*
X150122812Y-89766376D01*
X149973512Y-89796073D01*
X149948742Y-89801000D01*
X149771258Y-89801000D01*
X149746488Y-89796073D01*
X149597188Y-89766376D01*
X149433216Y-89698456D01*
X149285646Y-89599853D01*
X149160147Y-89474354D01*
X149061544Y-89326784D01*
X148993624Y-89162812D01*
X148959000Y-88988741D01*
X148959000Y-88811259D01*
X148993624Y-88637188D01*
X149061544Y-88473216D01*
X149160147Y-88325646D01*
X149285646Y-88200147D01*
X149433216Y-88101544D01*
X149597188Y-88033624D01*
X149746488Y-88003927D01*
X149771258Y-87999000D01*
X149948742Y-87999000D01*
X149973512Y-88003927D01*
G37*
G36*
X152513512Y-88003927D02*
G01*
X152662812Y-88033624D01*
X152826784Y-88101544D01*
X152974354Y-88200147D01*
X153099853Y-88325646D01*
X153198456Y-88473216D01*
X153266376Y-88637188D01*
X153301000Y-88811259D01*
X153301000Y-88988741D01*
X153266376Y-89162812D01*
X153198456Y-89326784D01*
X153099853Y-89474354D01*
X152974354Y-89599853D01*
X152826784Y-89698456D01*
X152662812Y-89766376D01*
X152513512Y-89796073D01*
X152488742Y-89801000D01*
X152311258Y-89801000D01*
X152286488Y-89796073D01*
X152137188Y-89766376D01*
X151973216Y-89698456D01*
X151825646Y-89599853D01*
X151700147Y-89474354D01*
X151601544Y-89326784D01*
X151533624Y-89162812D01*
X151499000Y-88988741D01*
X151499000Y-88811259D01*
X151533624Y-88637188D01*
X151601544Y-88473216D01*
X151700147Y-88325646D01*
X151825646Y-88200147D01*
X151973216Y-88101544D01*
X152137188Y-88033624D01*
X152286488Y-88003927D01*
X152311258Y-87999000D01*
X152488742Y-87999000D01*
X152513512Y-88003927D01*
G37*
G36*
X155053512Y-88003927D02*
G01*
X155202812Y-88033624D01*
X155366784Y-88101544D01*
X155514354Y-88200147D01*
X155639853Y-88325646D01*
X155738456Y-88473216D01*
X155806376Y-88637188D01*
X155841000Y-88811259D01*
X155841000Y-88988741D01*
X155806376Y-89162812D01*
X155738456Y-89326784D01*
X155639853Y-89474354D01*
X155514354Y-89599853D01*
X155366784Y-89698456D01*
X155202812Y-89766376D01*
X155053512Y-89796073D01*
X155028742Y-89801000D01*
X154851258Y-89801000D01*
X154826488Y-89796073D01*
X154677188Y-89766376D01*
X154513216Y-89698456D01*
X154365646Y-89599853D01*
X154240147Y-89474354D01*
X154141544Y-89326784D01*
X154073624Y-89162812D01*
X154039000Y-88988741D01*
X154039000Y-88811259D01*
X154073624Y-88637188D01*
X154141544Y-88473216D01*
X154240147Y-88325646D01*
X154365646Y-88200147D01*
X154513216Y-88101544D01*
X154677188Y-88033624D01*
X154826488Y-88003927D01*
X154851258Y-87999000D01*
X155028742Y-87999000D01*
X155053512Y-88003927D01*
G37*
G36*
X157593512Y-88003927D02*
G01*
X157742812Y-88033624D01*
X157906784Y-88101544D01*
X158054354Y-88200147D01*
X158179853Y-88325646D01*
X158278456Y-88473216D01*
X158346376Y-88637188D01*
X158381000Y-88811259D01*
X158381000Y-88988741D01*
X158346376Y-89162812D01*
X158278456Y-89326784D01*
X158179853Y-89474354D01*
X158054354Y-89599853D01*
X157906784Y-89698456D01*
X157742812Y-89766376D01*
X157593512Y-89796073D01*
X157568742Y-89801000D01*
X157391258Y-89801000D01*
X157366488Y-89796073D01*
X157217188Y-89766376D01*
X157053216Y-89698456D01*
X156905646Y-89599853D01*
X156780147Y-89474354D01*
X156681544Y-89326784D01*
X156613624Y-89162812D01*
X156579000Y-88988741D01*
X156579000Y-88811259D01*
X156613624Y-88637188D01*
X156681544Y-88473216D01*
X156780147Y-88325646D01*
X156905646Y-88200147D01*
X157053216Y-88101544D01*
X157217188Y-88033624D01*
X157366488Y-88003927D01*
X157391258Y-87999000D01*
X157568742Y-87999000D01*
X157593512Y-88003927D01*
G37*
G36*
X160133512Y-88003927D02*
G01*
X160282812Y-88033624D01*
X160446784Y-88101544D01*
X160594354Y-88200147D01*
X160719853Y-88325646D01*
X160818456Y-88473216D01*
X160886376Y-88637188D01*
X160921000Y-88811259D01*
X160921000Y-88988741D01*
X160886376Y-89162812D01*
X160818456Y-89326784D01*
X160719853Y-89474354D01*
X160594354Y-89599853D01*
X160446784Y-89698456D01*
X160282812Y-89766376D01*
X160133512Y-89796073D01*
X160108742Y-89801000D01*
X159931258Y-89801000D01*
X159906488Y-89796073D01*
X159757188Y-89766376D01*
X159593216Y-89698456D01*
X159445646Y-89599853D01*
X159320147Y-89474354D01*
X159221544Y-89326784D01*
X159153624Y-89162812D01*
X159119000Y-88988741D01*
X159119000Y-88811259D01*
X159153624Y-88637188D01*
X159221544Y-88473216D01*
X159320147Y-88325646D01*
X159445646Y-88200147D01*
X159593216Y-88101544D01*
X159757188Y-88033624D01*
X159906488Y-88003927D01*
X159931258Y-87999000D01*
X160108742Y-87999000D01*
X160133512Y-88003927D01*
G37*
G36*
X162673512Y-88003927D02*
G01*
X162822812Y-88033624D01*
X162986784Y-88101544D01*
X163134354Y-88200147D01*
X163259853Y-88325646D01*
X163358456Y-88473216D01*
X163426376Y-88637188D01*
X163461000Y-88811259D01*
X163461000Y-88988741D01*
X163426376Y-89162812D01*
X163358456Y-89326784D01*
X163259853Y-89474354D01*
X163134354Y-89599853D01*
X162986784Y-89698456D01*
X162822812Y-89766376D01*
X162673512Y-89796073D01*
X162648742Y-89801000D01*
X162471258Y-89801000D01*
X162446488Y-89796073D01*
X162297188Y-89766376D01*
X162133216Y-89698456D01*
X161985646Y-89599853D01*
X161860147Y-89474354D01*
X161761544Y-89326784D01*
X161693624Y-89162812D01*
X161659000Y-88988741D01*
X161659000Y-88811259D01*
X161693624Y-88637188D01*
X161761544Y-88473216D01*
X161860147Y-88325646D01*
X161985646Y-88200147D01*
X162133216Y-88101544D01*
X162297188Y-88033624D01*
X162446488Y-88003927D01*
X162471258Y-87999000D01*
X162648742Y-87999000D01*
X162673512Y-88003927D01*
G37*
G36*
X165213512Y-88003927D02*
G01*
X165362812Y-88033624D01*
X165526784Y-88101544D01*
X165674354Y-88200147D01*
X165799853Y-88325646D01*
X165898456Y-88473216D01*
X165966376Y-88637188D01*
X166001000Y-88811259D01*
X166001000Y-88988741D01*
X165966376Y-89162812D01*
X165898456Y-89326784D01*
X165799853Y-89474354D01*
X165674354Y-89599853D01*
X165526784Y-89698456D01*
X165362812Y-89766376D01*
X165213512Y-89796073D01*
X165188742Y-89801000D01*
X165011258Y-89801000D01*
X164986488Y-89796073D01*
X164837188Y-89766376D01*
X164673216Y-89698456D01*
X164525646Y-89599853D01*
X164400147Y-89474354D01*
X164301544Y-89326784D01*
X164233624Y-89162812D01*
X164199000Y-88988741D01*
X164199000Y-88811259D01*
X164233624Y-88637188D01*
X164301544Y-88473216D01*
X164400147Y-88325646D01*
X164525646Y-88200147D01*
X164673216Y-88101544D01*
X164837188Y-88033624D01*
X164986488Y-88003927D01*
X165011258Y-87999000D01*
X165188742Y-87999000D01*
X165213512Y-88003927D01*
G37*
G36*
X173621000Y-89801000D02*
G01*
X171819000Y-89801000D01*
X171819000Y-87999000D01*
X173621000Y-87999000D01*
X173621000Y-89801000D01*
G37*
G36*
X175373512Y-88003927D02*
G01*
X175522812Y-88033624D01*
X175686784Y-88101544D01*
X175834354Y-88200147D01*
X175959853Y-88325646D01*
X176058456Y-88473216D01*
X176126376Y-88637188D01*
X176161000Y-88811259D01*
X176161000Y-88988741D01*
X176126376Y-89162812D01*
X176058456Y-89326784D01*
X175959853Y-89474354D01*
X175834354Y-89599853D01*
X175686784Y-89698456D01*
X175522812Y-89766376D01*
X175373512Y-89796073D01*
X175348742Y-89801000D01*
X175171258Y-89801000D01*
X175146488Y-89796073D01*
X174997188Y-89766376D01*
X174833216Y-89698456D01*
X174685646Y-89599853D01*
X174560147Y-89474354D01*
X174461544Y-89326784D01*
X174393624Y-89162812D01*
X174359000Y-88988741D01*
X174359000Y-88811259D01*
X174393624Y-88637188D01*
X174461544Y-88473216D01*
X174560147Y-88325646D01*
X174685646Y-88200147D01*
X174833216Y-88101544D01*
X174997188Y-88033624D01*
X175146488Y-88003927D01*
X175171258Y-87999000D01*
X175348742Y-87999000D01*
X175373512Y-88003927D01*
G37*
G36*
X177913512Y-88003927D02*
G01*
X178062812Y-88033624D01*
X178226784Y-88101544D01*
X178374354Y-88200147D01*
X178499853Y-88325646D01*
X178598456Y-88473216D01*
X178666376Y-88637188D01*
X178701000Y-88811259D01*
X178701000Y-88988741D01*
X178666376Y-89162812D01*
X178598456Y-89326784D01*
X178499853Y-89474354D01*
X178374354Y-89599853D01*
X178226784Y-89698456D01*
X178062812Y-89766376D01*
X177913512Y-89796073D01*
X177888742Y-89801000D01*
X177711258Y-89801000D01*
X177686488Y-89796073D01*
X177537188Y-89766376D01*
X177373216Y-89698456D01*
X177225646Y-89599853D01*
X177100147Y-89474354D01*
X177001544Y-89326784D01*
X176933624Y-89162812D01*
X176899000Y-88988741D01*
X176899000Y-88811259D01*
X176933624Y-88637188D01*
X177001544Y-88473216D01*
X177100147Y-88325646D01*
X177225646Y-88200147D01*
X177373216Y-88101544D01*
X177537188Y-88033624D01*
X177686488Y-88003927D01*
X177711258Y-87999000D01*
X177888742Y-87999000D01*
X177913512Y-88003927D01*
G37*
G36*
X180453512Y-88003927D02*
G01*
X180602812Y-88033624D01*
X180766784Y-88101544D01*
X180914354Y-88200147D01*
X181039853Y-88325646D01*
X181138456Y-88473216D01*
X181206376Y-88637188D01*
X181241000Y-88811259D01*
X181241000Y-88988741D01*
X181206376Y-89162812D01*
X181138456Y-89326784D01*
X181039853Y-89474354D01*
X180914354Y-89599853D01*
X180766784Y-89698456D01*
X180602812Y-89766376D01*
X180453512Y-89796073D01*
X180428742Y-89801000D01*
X180251258Y-89801000D01*
X180226488Y-89796073D01*
X180077188Y-89766376D01*
X179913216Y-89698456D01*
X179765646Y-89599853D01*
X179640147Y-89474354D01*
X179541544Y-89326784D01*
X179473624Y-89162812D01*
X179439000Y-88988741D01*
X179439000Y-88811259D01*
X179473624Y-88637188D01*
X179541544Y-88473216D01*
X179640147Y-88325646D01*
X179765646Y-88200147D01*
X179913216Y-88101544D01*
X180077188Y-88033624D01*
X180226488Y-88003927D01*
X180251258Y-87999000D01*
X180428742Y-87999000D01*
X180453512Y-88003927D01*
G37*
G36*
X182993512Y-88003927D02*
G01*
X183142812Y-88033624D01*
X183306784Y-88101544D01*
X183454354Y-88200147D01*
X183579853Y-88325646D01*
X183678456Y-88473216D01*
X183746376Y-88637188D01*
X183781000Y-88811259D01*
X183781000Y-88988741D01*
X183746376Y-89162812D01*
X183678456Y-89326784D01*
X183579853Y-89474354D01*
X183454354Y-89599853D01*
X183306784Y-89698456D01*
X183142812Y-89766376D01*
X182993512Y-89796073D01*
X182968742Y-89801000D01*
X182791258Y-89801000D01*
X182766488Y-89796073D01*
X182617188Y-89766376D01*
X182453216Y-89698456D01*
X182305646Y-89599853D01*
X182180147Y-89474354D01*
X182081544Y-89326784D01*
X182013624Y-89162812D01*
X181979000Y-88988741D01*
X181979000Y-88811259D01*
X182013624Y-88637188D01*
X182081544Y-88473216D01*
X182180147Y-88325646D01*
X182305646Y-88200147D01*
X182453216Y-88101544D01*
X182617188Y-88033624D01*
X182766488Y-88003927D01*
X182791258Y-87999000D01*
X182968742Y-87999000D01*
X182993512Y-88003927D01*
G37*
M02*
