M48
; DRILL file {KiCad (5.1.5-0-10_14)} date Sunday, 21 June 2020 at 16:07:26
; FORMAT={-:-/ absolute / inch / decimal}
; #@! TF.CreationDate,2020-06-21T16:07:26+02:00
; #@! TF.GenerationSoftware,Kicad,Pcbnew,(5.1.5-0-10_14)
; #@! TF.FileFunction,Plated,1,2,PTH
FMAT,2
INCH
T1C0.0118
T2C0.0197
T3C0.0315
T4C0.0394
%
G90
G05
T1
X5.8Y-4.165
X5.955Y-4.105
X6.0Y-4.075
X6.16Y-3.865
X6.225Y-4.045
X6.2472Y-4.015
X6.496Y-4.511
X6.5001Y-4.1631
X6.555Y-3.9503
X6.57Y-4.3222
X6.594Y-4.555
X6.6164Y-4.1974
X6.62Y-3.996
X6.622Y-3.9139
X6.711Y-4.045
X6.7548Y-3.9606
X6.78Y-3.985
X6.805Y-4.3
X6.8054Y-3.8627
X6.8207Y-3.8121
X6.835Y-4.28
X6.8369Y-3.8627
X6.8728Y-4.0763
X6.895Y-4.1098
X6.9079Y-3.9198
X6.9301Y-4.013
X6.956Y-4.436
X7.0Y-4.14
X7.1Y-4.195
X7.1763Y-4.235
X7.225Y-4.32
X7.2265Y-4.0614
T2
X6.6479Y-4.2471
X6.65Y-4.355
X6.6828Y-3.9158
X7.218Y-4.402
X7.2196Y-4.59
T3
X6.635Y-4.4898
X6.635Y-4.6
X6.7176Y-4.6
X6.82Y-4.6
X6.9027Y-4.4898
X6.9027Y-4.6
X6.11Y-3.8379
X6.11Y-4.03
T4
X5.5Y-4.2
X5.5Y-4.3
X5.5Y-4.4
X5.5Y-4.5
X6.5Y-3.5
X6.6Y-3.5
X6.7Y-3.5
X6.8Y-3.5
X6.9Y-3.5
X7.0Y-3.5
X7.1Y-3.5
X7.2Y-3.5
X5.8Y-3.5
X5.9Y-3.5
X6.0Y-3.5
X6.1Y-3.5
X6.2Y-3.5
X5.885Y-4.41
X5.885Y-4.51
X5.985Y-4.41
X5.985Y-4.51
X6.085Y-4.41
X6.085Y-4.51
X6.185Y-4.41
X6.185Y-4.51
X6.285Y-4.41
X6.285Y-4.51
T4
G00X6.4991Y-4.6827
M15
G01X6.4991Y-4.7417
M16
G05
G00X6.7294Y-4.7437
M15
G01X6.8082Y-4.7437
M16
G05
G00X7.0385Y-4.6827
M15
G01X7.0385Y-4.7417
M16
G05
T0
M30
