G04 #@! TF.GenerationSoftware,KiCad,Pcbnew,(5.1.5-0-10_14)*
G04 #@! TF.CreationDate,2020-06-06T08:29:19+02:00*
G04 #@! TF.ProjectId,ps2zx,7073327a-782e-46b6-9963-61645f706362,rev?*
G04 #@! TF.SameCoordinates,Original*
G04 #@! TF.FileFunction,Paste,Top*
G04 #@! TF.FilePolarity,Positive*
%FSLAX46Y46*%
G04 Gerber Fmt 4.6, Leading zero omitted, Abs format (unit mm)*
G04 Created by KiCad (PCBNEW (5.1.5-0-10_14)) date 2020-06-06 08:29:19*
%MOMM*%
%LPD*%
G04 APERTURE LIST*
%ADD10C,0.100000*%
%ADD11R,1.600000X0.550000*%
%ADD12R,0.550000X1.600000*%
%ADD13R,1.550000X1.300000*%
G04 APERTURE END LIST*
D10*
G36*
X154906505Y-106623204D02*
G01*
X154930773Y-106626804D01*
X154954572Y-106632765D01*
X154977671Y-106641030D01*
X154999850Y-106651520D01*
X155020893Y-106664132D01*
X155040599Y-106678747D01*
X155058777Y-106695223D01*
X155075253Y-106713401D01*
X155089868Y-106733107D01*
X155102480Y-106754150D01*
X155112970Y-106776329D01*
X155121235Y-106799428D01*
X155127196Y-106823227D01*
X155130796Y-106847495D01*
X155132000Y-106871999D01*
X155132000Y-107522001D01*
X155130796Y-107546505D01*
X155127196Y-107570773D01*
X155121235Y-107594572D01*
X155112970Y-107617671D01*
X155102480Y-107639850D01*
X155089868Y-107660893D01*
X155075253Y-107680599D01*
X155058777Y-107698777D01*
X155040599Y-107715253D01*
X155020893Y-107729868D01*
X154999850Y-107742480D01*
X154977671Y-107752970D01*
X154954572Y-107761235D01*
X154930773Y-107767196D01*
X154906505Y-107770796D01*
X154882001Y-107772000D01*
X153981999Y-107772000D01*
X153957495Y-107770796D01*
X153933227Y-107767196D01*
X153909428Y-107761235D01*
X153886329Y-107752970D01*
X153864150Y-107742480D01*
X153843107Y-107729868D01*
X153823401Y-107715253D01*
X153805223Y-107698777D01*
X153788747Y-107680599D01*
X153774132Y-107660893D01*
X153761520Y-107639850D01*
X153751030Y-107617671D01*
X153742765Y-107594572D01*
X153736804Y-107570773D01*
X153733204Y-107546505D01*
X153732000Y-107522001D01*
X153732000Y-106871999D01*
X153733204Y-106847495D01*
X153736804Y-106823227D01*
X153742765Y-106799428D01*
X153751030Y-106776329D01*
X153761520Y-106754150D01*
X153774132Y-106733107D01*
X153788747Y-106713401D01*
X153805223Y-106695223D01*
X153823401Y-106678747D01*
X153843107Y-106664132D01*
X153864150Y-106651520D01*
X153886329Y-106641030D01*
X153909428Y-106632765D01*
X153933227Y-106626804D01*
X153957495Y-106623204D01*
X153981999Y-106622000D01*
X154882001Y-106622000D01*
X154906505Y-106623204D01*
G37*
G36*
X154906505Y-104573204D02*
G01*
X154930773Y-104576804D01*
X154954572Y-104582765D01*
X154977671Y-104591030D01*
X154999850Y-104601520D01*
X155020893Y-104614132D01*
X155040599Y-104628747D01*
X155058777Y-104645223D01*
X155075253Y-104663401D01*
X155089868Y-104683107D01*
X155102480Y-104704150D01*
X155112970Y-104726329D01*
X155121235Y-104749428D01*
X155127196Y-104773227D01*
X155130796Y-104797495D01*
X155132000Y-104821999D01*
X155132000Y-105472001D01*
X155130796Y-105496505D01*
X155127196Y-105520773D01*
X155121235Y-105544572D01*
X155112970Y-105567671D01*
X155102480Y-105589850D01*
X155089868Y-105610893D01*
X155075253Y-105630599D01*
X155058777Y-105648777D01*
X155040599Y-105665253D01*
X155020893Y-105679868D01*
X154999850Y-105692480D01*
X154977671Y-105702970D01*
X154954572Y-105711235D01*
X154930773Y-105717196D01*
X154906505Y-105720796D01*
X154882001Y-105722000D01*
X153981999Y-105722000D01*
X153957495Y-105720796D01*
X153933227Y-105717196D01*
X153909428Y-105711235D01*
X153886329Y-105702970D01*
X153864150Y-105692480D01*
X153843107Y-105679868D01*
X153823401Y-105665253D01*
X153805223Y-105648777D01*
X153788747Y-105630599D01*
X153774132Y-105610893D01*
X153761520Y-105589850D01*
X153751030Y-105567671D01*
X153742765Y-105544572D01*
X153736804Y-105520773D01*
X153733204Y-105496505D01*
X153732000Y-105472001D01*
X153732000Y-104821999D01*
X153733204Y-104797495D01*
X153736804Y-104773227D01*
X153742765Y-104749428D01*
X153751030Y-104726329D01*
X153761520Y-104704150D01*
X153774132Y-104683107D01*
X153788747Y-104663401D01*
X153805223Y-104645223D01*
X153823401Y-104628747D01*
X153843107Y-104614132D01*
X153864150Y-104601520D01*
X153886329Y-104591030D01*
X153909428Y-104582765D01*
X153933227Y-104576804D01*
X153957495Y-104573204D01*
X153981999Y-104572000D01*
X154882001Y-104572000D01*
X154906505Y-104573204D01*
G37*
G36*
X149826505Y-106623204D02*
G01*
X149850773Y-106626804D01*
X149874572Y-106632765D01*
X149897671Y-106641030D01*
X149919850Y-106651520D01*
X149940893Y-106664132D01*
X149960599Y-106678747D01*
X149978777Y-106695223D01*
X149995253Y-106713401D01*
X150009868Y-106733107D01*
X150022480Y-106754150D01*
X150032970Y-106776329D01*
X150041235Y-106799428D01*
X150047196Y-106823227D01*
X150050796Y-106847495D01*
X150052000Y-106871999D01*
X150052000Y-107522001D01*
X150050796Y-107546505D01*
X150047196Y-107570773D01*
X150041235Y-107594572D01*
X150032970Y-107617671D01*
X150022480Y-107639850D01*
X150009868Y-107660893D01*
X149995253Y-107680599D01*
X149978777Y-107698777D01*
X149960599Y-107715253D01*
X149940893Y-107729868D01*
X149919850Y-107742480D01*
X149897671Y-107752970D01*
X149874572Y-107761235D01*
X149850773Y-107767196D01*
X149826505Y-107770796D01*
X149802001Y-107772000D01*
X148901999Y-107772000D01*
X148877495Y-107770796D01*
X148853227Y-107767196D01*
X148829428Y-107761235D01*
X148806329Y-107752970D01*
X148784150Y-107742480D01*
X148763107Y-107729868D01*
X148743401Y-107715253D01*
X148725223Y-107698777D01*
X148708747Y-107680599D01*
X148694132Y-107660893D01*
X148681520Y-107639850D01*
X148671030Y-107617671D01*
X148662765Y-107594572D01*
X148656804Y-107570773D01*
X148653204Y-107546505D01*
X148652000Y-107522001D01*
X148652000Y-106871999D01*
X148653204Y-106847495D01*
X148656804Y-106823227D01*
X148662765Y-106799428D01*
X148671030Y-106776329D01*
X148681520Y-106754150D01*
X148694132Y-106733107D01*
X148708747Y-106713401D01*
X148725223Y-106695223D01*
X148743401Y-106678747D01*
X148763107Y-106664132D01*
X148784150Y-106651520D01*
X148806329Y-106641030D01*
X148829428Y-106632765D01*
X148853227Y-106626804D01*
X148877495Y-106623204D01*
X148901999Y-106622000D01*
X149802001Y-106622000D01*
X149826505Y-106623204D01*
G37*
G36*
X149826505Y-104573204D02*
G01*
X149850773Y-104576804D01*
X149874572Y-104582765D01*
X149897671Y-104591030D01*
X149919850Y-104601520D01*
X149940893Y-104614132D01*
X149960599Y-104628747D01*
X149978777Y-104645223D01*
X149995253Y-104663401D01*
X150009868Y-104683107D01*
X150022480Y-104704150D01*
X150032970Y-104726329D01*
X150041235Y-104749428D01*
X150047196Y-104773227D01*
X150050796Y-104797495D01*
X150052000Y-104821999D01*
X150052000Y-105472001D01*
X150050796Y-105496505D01*
X150047196Y-105520773D01*
X150041235Y-105544572D01*
X150032970Y-105567671D01*
X150022480Y-105589850D01*
X150009868Y-105610893D01*
X149995253Y-105630599D01*
X149978777Y-105648777D01*
X149960599Y-105665253D01*
X149940893Y-105679868D01*
X149919850Y-105692480D01*
X149897671Y-105702970D01*
X149874572Y-105711235D01*
X149850773Y-105717196D01*
X149826505Y-105720796D01*
X149802001Y-105722000D01*
X148901999Y-105722000D01*
X148877495Y-105720796D01*
X148853227Y-105717196D01*
X148829428Y-105711235D01*
X148806329Y-105702970D01*
X148784150Y-105692480D01*
X148763107Y-105679868D01*
X148743401Y-105665253D01*
X148725223Y-105648777D01*
X148708747Y-105630599D01*
X148694132Y-105610893D01*
X148681520Y-105589850D01*
X148671030Y-105567671D01*
X148662765Y-105544572D01*
X148656804Y-105520773D01*
X148653204Y-105496505D01*
X148652000Y-105472001D01*
X148652000Y-104821999D01*
X148653204Y-104797495D01*
X148656804Y-104773227D01*
X148662765Y-104749428D01*
X148671030Y-104726329D01*
X148681520Y-104704150D01*
X148694132Y-104683107D01*
X148708747Y-104663401D01*
X148725223Y-104645223D01*
X148743401Y-104628747D01*
X148763107Y-104614132D01*
X148784150Y-104601520D01*
X148806329Y-104591030D01*
X148829428Y-104582765D01*
X148853227Y-104576804D01*
X148877495Y-104573204D01*
X148901999Y-104572000D01*
X149802001Y-104572000D01*
X149826505Y-104573204D01*
G37*
D11*
X167994000Y-98928800D03*
X167994000Y-99728800D03*
X167994000Y-100528800D03*
X167994000Y-101328800D03*
X167994000Y-102128800D03*
X167994000Y-102928800D03*
X167994000Y-103728800D03*
X167994000Y-104528800D03*
D12*
X166544000Y-105978800D03*
X165744000Y-105978800D03*
X164944000Y-105978800D03*
X164144000Y-105978800D03*
X163344000Y-105978800D03*
X162544000Y-105978800D03*
X161744000Y-105978800D03*
X160944000Y-105978800D03*
D11*
X159494000Y-104528800D03*
X159494000Y-103728800D03*
X159494000Y-102928800D03*
X159494000Y-102128800D03*
X159494000Y-101328800D03*
X159494000Y-100528800D03*
X159494000Y-99728800D03*
X159494000Y-98928800D03*
D12*
X160944000Y-97478800D03*
X161744000Y-97478800D03*
X162544000Y-97478800D03*
X163344000Y-97478800D03*
X164144000Y-97478800D03*
X164944000Y-97478800D03*
X165744000Y-97478800D03*
X166544000Y-97478800D03*
D13*
X191503200Y-113489300D03*
X191503200Y-108989300D03*
X183553200Y-108989300D03*
X183553200Y-113489300D03*
X191503200Y-103329300D03*
X191503200Y-98829300D03*
X183553200Y-98829300D03*
X183553200Y-103329300D03*
D10*
G36*
X162265505Y-107556004D02*
G01*
X162289773Y-107559604D01*
X162313572Y-107565565D01*
X162336671Y-107573830D01*
X162358850Y-107584320D01*
X162379893Y-107596932D01*
X162399599Y-107611547D01*
X162417777Y-107628023D01*
X162434253Y-107646201D01*
X162448868Y-107665907D01*
X162461480Y-107686950D01*
X162471970Y-107709129D01*
X162480235Y-107732228D01*
X162486196Y-107756027D01*
X162489796Y-107780295D01*
X162491000Y-107804799D01*
X162491000Y-108704801D01*
X162489796Y-108729305D01*
X162486196Y-108753573D01*
X162480235Y-108777372D01*
X162471970Y-108800471D01*
X162461480Y-108822650D01*
X162448868Y-108843693D01*
X162434253Y-108863399D01*
X162417777Y-108881577D01*
X162399599Y-108898053D01*
X162379893Y-108912668D01*
X162358850Y-108925280D01*
X162336671Y-108935770D01*
X162313572Y-108944035D01*
X162289773Y-108949996D01*
X162265505Y-108953596D01*
X162241001Y-108954800D01*
X161590999Y-108954800D01*
X161566495Y-108953596D01*
X161542227Y-108949996D01*
X161518428Y-108944035D01*
X161495329Y-108935770D01*
X161473150Y-108925280D01*
X161452107Y-108912668D01*
X161432401Y-108898053D01*
X161414223Y-108881577D01*
X161397747Y-108863399D01*
X161383132Y-108843693D01*
X161370520Y-108822650D01*
X161360030Y-108800471D01*
X161351765Y-108777372D01*
X161345804Y-108753573D01*
X161342204Y-108729305D01*
X161341000Y-108704801D01*
X161341000Y-107804799D01*
X161342204Y-107780295D01*
X161345804Y-107756027D01*
X161351765Y-107732228D01*
X161360030Y-107709129D01*
X161370520Y-107686950D01*
X161383132Y-107665907D01*
X161397747Y-107646201D01*
X161414223Y-107628023D01*
X161432401Y-107611547D01*
X161452107Y-107596932D01*
X161473150Y-107584320D01*
X161495329Y-107573830D01*
X161518428Y-107565565D01*
X161542227Y-107559604D01*
X161566495Y-107556004D01*
X161590999Y-107554800D01*
X162241001Y-107554800D01*
X162265505Y-107556004D01*
G37*
G36*
X164315505Y-107556004D02*
G01*
X164339773Y-107559604D01*
X164363572Y-107565565D01*
X164386671Y-107573830D01*
X164408850Y-107584320D01*
X164429893Y-107596932D01*
X164449599Y-107611547D01*
X164467777Y-107628023D01*
X164484253Y-107646201D01*
X164498868Y-107665907D01*
X164511480Y-107686950D01*
X164521970Y-107709129D01*
X164530235Y-107732228D01*
X164536196Y-107756027D01*
X164539796Y-107780295D01*
X164541000Y-107804799D01*
X164541000Y-108704801D01*
X164539796Y-108729305D01*
X164536196Y-108753573D01*
X164530235Y-108777372D01*
X164521970Y-108800471D01*
X164511480Y-108822650D01*
X164498868Y-108843693D01*
X164484253Y-108863399D01*
X164467777Y-108881577D01*
X164449599Y-108898053D01*
X164429893Y-108912668D01*
X164408850Y-108925280D01*
X164386671Y-108935770D01*
X164363572Y-108944035D01*
X164339773Y-108949996D01*
X164315505Y-108953596D01*
X164291001Y-108954800D01*
X163640999Y-108954800D01*
X163616495Y-108953596D01*
X163592227Y-108949996D01*
X163568428Y-108944035D01*
X163545329Y-108935770D01*
X163523150Y-108925280D01*
X163502107Y-108912668D01*
X163482401Y-108898053D01*
X163464223Y-108881577D01*
X163447747Y-108863399D01*
X163433132Y-108843693D01*
X163420520Y-108822650D01*
X163410030Y-108800471D01*
X163401765Y-108777372D01*
X163395804Y-108753573D01*
X163392204Y-108729305D01*
X163391000Y-108704801D01*
X163391000Y-107804799D01*
X163392204Y-107780295D01*
X163395804Y-107756027D01*
X163401765Y-107732228D01*
X163410030Y-107709129D01*
X163420520Y-107686950D01*
X163433132Y-107665907D01*
X163447747Y-107646201D01*
X163464223Y-107628023D01*
X163482401Y-107611547D01*
X163502107Y-107596932D01*
X163523150Y-107584320D01*
X163545329Y-107573830D01*
X163568428Y-107565565D01*
X163592227Y-107559604D01*
X163616495Y-107556004D01*
X163640999Y-107554800D01*
X164291001Y-107554800D01*
X164315505Y-107556004D01*
G37*
M02*
