M48
; DRILL file {KiCad (5.1.5-0-10_14)} date 2020 June 06, Saturday 08:29:21
; FORMAT={-:-/ absolute / inch / decimal}
; #@! TF.CreationDate,2020-06-06T08:29:21+02:00
; #@! TF.GenerationSoftware,Kicad,Pcbnew,(5.1.5-0-10_14)
; #@! TF.FileFunction,Plated,1,2,PTH
FMAT,2
INCH
T1C0.0157
T2C0.0315
T3C0.0394
%
G90
G05
T1
X5.556Y-4.348
X5.5965Y-4.3664
X5.98Y-4.22
X5.98Y-4.4057
X6.0946Y-3.7722
X6.1209Y-3.72
X6.2307Y-4.0225
X6.231Y-3.586
X6.2315Y-4.0855
X6.232Y-4.3336
X6.2785Y-3.8919
X6.2805Y-4.1183
X6.3222Y-3.9263
X6.3301Y-3.9649
X6.341Y-4.0027
X6.367Y-4.125
X6.3746Y-4.262
X6.3838Y-4.3273
X6.3973Y-3.8901
X6.454Y-4.4056
X6.4554Y-4.262
X6.46Y-4.1225
X6.462Y-3.8929
X6.49Y-4.0525
X6.5151Y-3.661
X6.52Y-3.96
X6.5275Y-3.8867
X6.5295Y-4.054
X6.5536Y-3.6948
X6.5561Y-4.1173
X6.5561Y-4.3664
X6.5598Y-3.832
X6.5696Y-4.0217
X6.6622Y-4.0878
X6.667Y-3.712
X6.6883Y-3.7461
X6.6883Y-3.9555
X6.7144Y-3.9214
X6.7243Y-3.7622
X6.7375Y-4.3597
X6.7455Y-3.896
X6.7845Y-4.3255
X6.785Y-4.1725
X6.8111Y-4.287
X6.813Y-3.8615
X6.863Y-3.6335
X6.9355Y-4.218
X6.985Y-4.4
X7.1685Y-4.118
X7.2265Y-3.8909
T2
X5.88Y-3.7479
X5.88Y-3.94
X6.345Y-4.4898
X6.345Y-4.6
X6.4276Y-4.6
X6.53Y-4.6
X6.6127Y-4.4898
X6.6127Y-4.6
T3
X5.8Y-3.5
X5.9Y-3.5
X6.0Y-3.5
X6.1Y-3.5
X6.2Y-3.5
X6.3Y-3.5
X6.4Y-3.5
X6.5Y-3.5
X6.8Y-3.5
X6.9Y-3.5
X7.0Y-3.5
X7.1Y-3.5
X7.2Y-3.5
X6.8865Y-3.8585
X6.8865Y-3.9585
X6.8865Y-4.0585
X6.8865Y-4.1585
X6.8865Y-4.2585
X6.9865Y-3.8585
X6.9865Y-3.9585
X6.9865Y-4.0585
X6.9865Y-4.1585
X6.9865Y-4.2585
X5.5Y-4.1
X5.5Y-4.2
X5.5Y-4.3
X5.5Y-4.4
T3
G00X6.2091Y-4.6827
M15
G01X6.2091Y-4.7417
M16
G05
G00X6.4394Y-4.7437
M15
G01X6.5182Y-4.7437
M16
G05
G00X6.7485Y-4.6827
M15
G01X6.7485Y-4.7417
M16
G05
T0
M30
